<svg xmlns="http://www.w3.org/2000/svg" xmlns:xlink="http://www.w3.org/1999/xlink" width="118" height="118" viewBox="0 0 118 118">
  <defs>
    <filter id="Elipse_12115" x="0" y="0" width="118" height="118" filterUnits="userSpaceOnUse">
      <feOffset dy="3" input="SourceAlpha"/>
      <feGaussianBlur stdDeviation="3" result="blur"/>
      <feFlood flood-opacity="0.161"/>
      <feComposite operator="in" in2="blur"/>
      <feComposite in="SourceGraphic"/>
    </filter>
  </defs>
  <g id="Grupo_1197902" data-name="Grupo 1197902" transform="translate(-736 -1235.523)">
    <g id="Grupo_1182331" data-name="Grupo 1182331" transform="translate(-9.781 -2610.477)">
      <g id="Grupo_1181949" data-name="Grupo 1181949" transform="translate(-54 1303)">
        <g transform="matrix(1, 0, 0, 1, 799.78, 2543)" filter="url(#Elipse_12115)">
          <g id="Elipse_12115-2" data-name="Elipse 12115" transform="translate(9 6)" fill="#ebdad5" stroke="#8f726a" stroke-width="3">
            <circle cx="50" cy="50" r="50" stroke="none"/>
            <circle cx="50" cy="50" r="48.5" fill="none"/>
          </g>
        </g>
      </g>
    </g>
    <g id="autumn-tree_6635515" transform="translate(760.986 1254.553)">
      <path id="Trazado_1064764" data-name="Trazado 1064764" d="M59.824,59a2.153,2.153,0,0,1,0,4.306H8.153A2.169,2.169,0,0,1,6,61.153,2.159,2.159,0,0,1,8.153,59H59.824Z" transform="translate(0.076 4.512)" fill="#6d6d6d"/>
      <path id="Trazado_1064765" data-name="Trazado 1064765" d="M29.143,30.583a1.673,1.673,0,0,1-.248.086,4.4,4.4,0,0,1-2.616-.054,1.079,1.079,0,0,0-1.313.441c-.086.151-.183.3-.28.441a4.3,4.3,0,0,1-6.911.118,2.08,2.08,0,0,0-1.647-.84c-1.7-.011-4.629-.893-4.629-4.241,0-3.735,2.777-4.489,4.683-4.3a1.056,1.056,0,0,0,1.066-.667A4.283,4.283,0,0,1,21.188,19a4.424,4.424,0,0,1,3.9,2.831,1.049,1.049,0,0,0,1.259.592,4.386,4.386,0,0,1,1.3-.194,4.306,4.306,0,0,1,4.187,5.307,4.252,4.252,0,0,1-2.691,3.046Z" transform="translate(0.497 1.453)" fill="#7ad200"/>
      <path id="Trazado_1064766" data-name="Trazado 1064766" d="M24.751,21.218a4.261,4.261,0,0,0-3.2,2.508,1.056,1.056,0,0,1-1.066.667c-1.905-.194-4.683.56-4.683,4.3a4.232,4.232,0,0,0,.5,2.1.926.926,0,0,0-.172-.011c-1.7-.011-4.629-.893-4.629-4.241,0-3.735,2.777-4.489,4.683-4.3a1.056,1.056,0,0,0,1.066-.667A4.283,4.283,0,0,1,21.188,19,4.13,4.13,0,0,1,24.751,21.218Z" transform="translate(0.497 1.453)" fill="#5cb008"/>
      <path id="Trazado_1064767" data-name="Trazado 1064767" d="M50.647,22.229a4.314,4.314,0,0,1,1.249,8.44,4.4,4.4,0,0,1-2.616-.054,1.079,1.079,0,0,0-1.313.441,4.31,4.31,0,0,1-6.836.969,4.2,4.2,0,0,1-.355-.409,2.08,2.08,0,0,0-1.647-.84,5.321,5.321,0,0,1-3.262-1.109A3.821,3.821,0,0,1,34.5,26.535c0-3.735,2.777-4.489,4.683-4.3a1.056,1.056,0,0,0,1.066-.667A4.283,4.283,0,0,1,44.188,19a4.424,4.424,0,0,1,3.9,2.831,1.049,1.049,0,0,0,1.259.592,4.387,4.387,0,0,1,1.3-.194Z" transform="translate(2.256 1.453)" fill="#7ad200"/>
      <path id="Trazado_1064768" data-name="Trazado 1064768" d="M47.751,21.218a4.261,4.261,0,0,0-3.2,2.508,1.056,1.056,0,0,1-1.066.667c-1.905-.194-4.683.56-4.683,4.3a4.232,4.232,0,0,0,.5,2.1.926.926,0,0,0-.172-.011,5.321,5.321,0,0,1-3.262-1.109A3.821,3.821,0,0,1,34.5,26.535c0-3.735,2.777-4.489,4.683-4.3a1.056,1.056,0,0,0,1.066-.667A4.283,4.283,0,0,1,44.188,19,4.13,4.13,0,0,1,47.751,21.218Z" transform="translate(2.256 1.453)" fill="#5cb008"/>
      <path id="Trazado_1064769" data-name="Trazado 1064769" d="M60.253,23.122a16.171,16.171,0,0,0,.022,7.352,2.14,2.14,0,0,1-1.066,2.368,11.819,11.819,0,0,0-4.381,4.8,2.149,2.149,0,0,1-1.636,1.109,8.07,8.07,0,0,0-4.457,2.174,2.145,2.145,0,0,1-2.185.474,11.542,11.542,0,0,0-7.6-.108A18.357,18.357,0,0,1,43.2,33.4a4.31,4.31,0,0,0,6.836-.969,1.079,1.079,0,0,1,1.313-.441,4.4,4.4,0,0,0,2.616.054,4.314,4.314,0,0,0-1.249-8.44,4.387,4.387,0,0,0-1.3.194,1.049,1.049,0,0,1-1.259-.592,4.424,4.424,0,0,0-3.9-2.831,4.283,4.283,0,0,0-3.94,2.573,1.056,1.056,0,0,1-1.066.667c-1.905-.194-4.683.56-4.683,4.3a3.821,3.821,0,0,0,1.367,3.133c-.7,1.83-1.819,3.326-4.058,3.326a5.338,5.338,0,0,1-4.424-2.411,4.252,4.252,0,0,0,2.691-3.046,4.306,4.306,0,0,0-4.187-5.307,4.386,4.386,0,0,0-1.3.194,1.049,1.049,0,0,1-1.259-.592,4.424,4.424,0,0,0-3.9-2.831,4.283,4.283,0,0,0-3.94,2.573,1.056,1.056,0,0,1-1.066.667c-1.905-.194-4.683.56-4.683,4.3,0,3.348,2.928,4.231,4.629,4.241a2.08,2.08,0,0,1,1.647.84A4.3,4.3,0,0,0,25,32.874a17.9,17.9,0,0,1,4.187,8.633,13.508,13.508,0,0,0-7.977-.108,2.145,2.145,0,0,1-2.185-.474,8.07,8.07,0,0,0-4.457-2.174,2.149,2.149,0,0,1-1.636-1.109,11.819,11.819,0,0,0-4.381-4.8,2.14,2.14,0,0,1-1.066-2.368,16.171,16.171,0,0,0,.022-7.352,2.1,2.1,0,0,1,1.13-2.379c2.4-1.195,6.523-3.918,6.157-8.483a2.13,2.13,0,0,1,1.313-2.11,10.967,10.967,0,0,0,5.221-4.467,2.181,2.181,0,0,1,2.174-1.1A6.777,6.777,0,0,0,29.207,2.83a6.879,6.879,0,0,1,9.344,0,6.777,6.777,0,0,0,5.705,1.755,2.181,2.181,0,0,1,2.174,1.1,10.967,10.967,0,0,0,5.221,4.467,2.13,2.13,0,0,1,1.313,2.11c-.366,4.564,3.757,7.288,6.157,8.483a2.1,2.1,0,0,1,1.13,2.379Z" transform="translate(0.186 0.076)" fill="#5cb008"/>
      <path id="Trazado_1064770" data-name="Trazado 1064770" d="M40.252,4a6.043,6.043,0,0,0-1.356.98A6.777,6.777,0,0,1,33.19,6.738a2.181,2.181,0,0,0-2.174,1.1A10.967,10.967,0,0,1,25.795,12.3a2.13,2.13,0,0,0-1.313,2.11,7.385,7.385,0,0,1-2.519,6,3.232,3.232,0,0,0-.463-.032,4.283,4.283,0,0,0-3.94,2.573,1.056,1.056,0,0,1-1.066.667c-1.905-.194-4.683.56-4.683,4.3,0,3.348,2.928,4.231,4.629,4.241a2,2,0,0,1,.8.172c-.022.108-.043.2-.065.3A2.14,2.14,0,0,0,18.238,35a11.819,11.819,0,0,1,4.381,4.8,2.127,2.127,0,0,0,1.453,1.076,10.461,10.461,0,0,0-2.863.527,2.145,2.145,0,0,1-2.185-.474,8.07,8.07,0,0,0-4.457-2.174,2.149,2.149,0,0,1-1.636-1.109,11.819,11.819,0,0,0-4.381-4.8,2.14,2.14,0,0,1-1.066-2.368,16.171,16.171,0,0,0,.022-7.352,2.1,2.1,0,0,1,1.13-2.379c2.4-1.195,6.523-3.918,6.157-8.483a2.13,2.13,0,0,1,1.313-2.11,10.967,10.967,0,0,0,5.221-4.467,2.181,2.181,0,0,1,2.174-1.1A6.777,6.777,0,0,0,29.207,2.83a6.879,6.879,0,0,1,9.344,0A6.438,6.438,0,0,0,40.252,4Z" transform="translate(0.186 0.076)" fill="#1c7b00"/>
      <path id="Trazado_1064771" data-name="Trazado 1064771" d="M37.93,39.158c-2.239,9.193,3.8,18.16,7.029,22.143H20.76c3.133-3.854,9.032-12.8,7.406-21.928a17.9,17.9,0,0,0-4.187-8.633c.1-.14.194-.291.28-.441a1.079,1.079,0,0,1,1.313-.441,4.4,4.4,0,0,0,2.616.054,1.673,1.673,0,0,0,.248-.086,5.338,5.338,0,0,0,4.424,2.411c2.239,0,3.359-1.5,4.058-3.326a5.321,5.321,0,0,0,3.262,1.109,2.08,2.08,0,0,1,1.647.84,4.2,4.2,0,0,0,.355.409,18.357,18.357,0,0,0-4.252,7.891Z" transform="translate(1.205 2.211)" fill="#c1976d"/>
      <path id="Trazado_1064772" data-name="Trazado 1064772" d="M32.472,39.311C34.1,48.439,28.2,57.385,25.066,61.238H20.76c3.133-3.854,9.032-12.8,7.406-21.928a17.9,17.9,0,0,0-4.187-8.633c.1-.14.194-.291.28-.441a1.079,1.079,0,0,1,1.313-.441,4.4,4.4,0,0,0,2.616.054,1.673,1.673,0,0,0,.248-.086,3.5,3.5,0,0,0,.248.312.771.771,0,0,0-.118.161c-.086.151-.183.3-.28.441a17.9,17.9,0,0,1,4.187,8.633Z" transform="translate(1.205 2.274)" fill="#876239"/>
      <g id="Grupo_1197901" data-name="Grupo 1197901" transform="translate(5 0)">
        <path id="Trazado_1064773" data-name="Trazado 1064773" d="M59.788,19.856c-2.212-1.1-5.878-3.531-5.564-7.431a3.215,3.215,0,0,0-1.969-3.19,9.876,9.876,0,0,1-4.712-4.024A3.251,3.251,0,0,0,44.3,3.594a5.726,5.726,0,0,1-4.823-1.468,7.953,7.953,0,0,0-10.824,0A5.721,5.721,0,0,1,23.844,3.6a3.249,3.249,0,0,0-3.257,1.615,9.892,9.892,0,0,1-4.724,4.028,3.212,3.212,0,0,0-1.956,3.183c.313,3.9-3.352,6.332-5.558,7.429a3.191,3.191,0,0,0-1.7,3.606,15.057,15.057,0,0,1-.026,6.855,3.2,3.2,0,0,0,1.6,3.552,10.76,10.76,0,0,1,3.946,4.363A3.22,3.22,0,0,0,14.608,39.9a6.987,6.987,0,0,1,3.856,1.884,3.192,3.192,0,0,0,2.221.893,3.267,3.267,0,0,0,1.047-.173,12.117,12.117,0,0,1,6.691-.064c1.183,8.524-4.38,16.716-6.974,20H8.229a3.229,3.229,0,0,0,0,6.459H59.9a3.229,3.229,0,0,0,0-6.459H46.683c-3.127-3.956-8.278-11.983-6.61-20.229a10.719,10.719,0,0,1,6.317.29,3.217,3.217,0,0,0,3.271-.713A7,7,0,0,1,53.524,39.9a3.225,3.225,0,0,0,2.441-1.672,10.74,10.74,0,0,1,3.944-4.359,3.2,3.2,0,0,0,1.6-3.553,15.042,15.042,0,0,1-.026-6.855,3.189,3.189,0,0,0-1.7-3.6Zm1.188,45.809A1.078,1.078,0,0,1,59.9,66.742H8.229a1.076,1.076,0,0,1,0-2.153H59.9A1.078,1.078,0,0,1,60.977,65.665Zm-17-3.229H24.146c4.065-5.6,11.116-18.183,2.588-29.267a5.459,5.459,0,0,0,2.5.079,6.257,6.257,0,0,0,4.83,2.277A4.952,4.952,0,0,0,38.6,32.685a6.635,6.635,0,0,0,2.784.62.967.967,0,0,1,.564.22C33.185,44.283,39.5,56.3,43.978,62.436ZM27.17,24.908a3.284,3.284,0,0,1,3.5,1.066,3.23,3.23,0,0,1,.617,2.784,3.165,3.165,0,0,1-2.192,2.325,3.329,3.329,0,0,1-1.971-.03,2.164,2.164,0,0,0-2.606.941,3.237,3.237,0,0,1-2.832,1.679,3.189,3.189,0,0,1-2.554-1.261,3.185,3.185,0,0,0-2.5-1.259c-.6,0-3.562-.167-3.562-3.158a3.264,3.264,0,0,1,.9-2.533,3.268,3.268,0,0,1,2.17-.716,4.21,4.21,0,0,1,.426.02,2.123,2.123,0,0,0,2.159-1.3,3.235,3.235,0,0,1,2.96-1.931,3.364,3.364,0,0,1,2.924,2.221,2.15,2.15,0,0,0,2.561,1.157Zm24.759,0a3.283,3.283,0,0,1,3.5,1.066,3.23,3.23,0,0,1,.617,2.784,3.165,3.165,0,0,1-2.192,2.325,3.329,3.329,0,0,1-1.971-.03,2.163,2.163,0,0,0-2.606.941,3.237,3.237,0,0,1-2.832,1.679,3.189,3.189,0,0,1-2.554-1.261,3.185,3.185,0,0,0-2.5-1.259c-.6,0-3.562-.167-3.562-3.158a3.264,3.264,0,0,1,.9-2.533,3.268,3.268,0,0,1,2.17-.716,4.21,4.21,0,0,1,.426.02,2.126,2.126,0,0,0,2.159-1.3,3.235,3.235,0,0,1,2.96-1.931,3.364,3.364,0,0,1,2.924,2.221,2.15,2.15,0,0,0,2.561,1.157Zm6.951,7.066a12.882,12.882,0,0,0-4.816,5.239,1.074,1.074,0,0,1-.833.549,9.143,9.143,0,0,0-5.057,2.466,1.071,1.071,0,0,1-1.1.226,13.486,13.486,0,0,0-6.331-.6,17.424,17.424,0,0,1,2.8-4.88,5.338,5.338,0,0,0,2.9.847A5.565,5.565,0,0,0,51.2,33.093a5.482,5.482,0,0,0,3.24.06,5.347,5.347,0,0,0,3.705-3.923,5.418,5.418,0,0,0-1.036-4.6A5.359,5.359,0,0,0,52.9,22.606a4.811,4.811,0,0,0-1.568.249.067.067,0,0,1-.023-.027,5.361,5.361,0,0,0-4.868-3.451,5.292,5.292,0,0,0-4.9,3.248,5.484,5.484,0,0,0-4.26,1.238,5.3,5.3,0,0,0-1.607,4.13,5.051,5.051,0,0,0,1.169,3.373,2.917,2.917,0,0,1-2.783,2.005,3.951,3.951,0,0,1-2.726-1.045,5.35,5.35,0,0,0,2.047-3.093,5.418,5.418,0,0,0-1.036-4.6,5.358,5.358,0,0,0-4.207-2.024,4.811,4.811,0,0,0-1.568.249.067.067,0,0,1-.023-.027,5.361,5.361,0,0,0-4.868-3.451,5.292,5.292,0,0,0-4.9,3.248,5.482,5.482,0,0,0-4.26,1.238,5.3,5.3,0,0,0-1.607,4.13c0,3.633,2.957,5.3,5.705,5.311a1.02,1.02,0,0,1,.793.413,5.325,5.325,0,0,0,4.265,2.107A5.507,5.507,0,0,0,25.12,34.6a16.968,16.968,0,0,1,2.805,5.526,13.811,13.811,0,0,0-6.879.333,1.071,1.071,0,0,1-1.1-.235A9.14,9.14,0,0,0,14.9,37.761a1.07,1.07,0,0,1-.831-.545,12.9,12.9,0,0,0-4.818-5.244,1.064,1.064,0,0,1-.531-1.184,17.206,17.206,0,0,0,.017-7.85A1.028,1.028,0,0,1,9.3,21.781c2.7-1.343,7.165-4.367,6.751-9.534a1.058,1.058,0,0,1,.659-1.03,12,12,0,0,0,5.729-4.911,1.124,1.124,0,0,1,1.106-.579,7.812,7.812,0,0,0,6.589-2.041,5.806,5.806,0,0,1,7.865,0,7.817,7.817,0,0,0,6.6,2.038,1.119,1.119,0,0,1,1.092.581,12,12,0,0,0,5.717,4.907,1.061,1.061,0,0,1,.671,1.037c-.414,5.165,4.052,8.189,6.758,9.535a1.024,1.024,0,0,1,.558,1.153,17.19,17.19,0,0,0,.017,7.85,1.067,1.067,0,0,1-.531,1.184Z" transform="translate(-5 0)"/>
        <path id="Trazado_1064774" data-name="Trazado 1064774" d="M44.11,42.417c-.747-.487-2.011.129-2.821,1.375s-.862,2.649-.115,3.137,2.011-.129,2.821-1.375S44.857,42.9,44.11,42.417Z" transform="translate(-2.274 3.231)"/>
        <path id="Trazado_1064775" data-name="Trazado 1064775" d="M54.212,41.939c.229-1.468-.3-2.771-1.18-2.909s-1.782.941-2.011,2.409.3,2.771,1.18,2.909S53.983,43.408,54.212,41.939Z" transform="translate(-1.484 2.984)"/>
        <path id="Trazado_1064776" data-name="Trazado 1064776" d="M46,48.634c-.053,1.486.628,2.715,1.519,2.746s1.657-1.148,1.708-2.632S48.6,46.033,47.71,46,46.054,47.148,46,48.634Z" transform="translate(-1.865 3.518)"/>
        <path id="Trazado_1064777" data-name="Trazado 1064777" d="M56.342,50.758c.693-.561.5-1.952-.436-3.108s-2.254-1.638-2.947-1.078-.5,1.952.436,3.108S55.649,51.319,56.342,50.758Z" transform="translate(-1.364 3.544)"/>
        <path id="Trazado_1064778" data-name="Trazado 1064778" d="M23.11,46.927c.747-.487.7-1.89-.115-3.137s-2.074-1.861-2.821-1.375-.7,1.89.115,3.137S22.363,47.414,23.11,46.927Z" transform="translate(-3.88 3.231)"/>
        <path id="Trazado_1064779" data-name="Trazado 1064779" d="M12.033,44.349c.881-.138,1.409-1.44,1.18-2.909s-1.13-2.547-2.011-2.409-1.409,1.44-1.18,2.909S11.152,44.486,12.033,44.349Z" transform="translate(-4.62 2.984)"/>
        <path id="Trazado_1064780" data-name="Trazado 1064780" d="M18.228,48.634c-.053-1.486-.817-2.664-1.708-2.633S14.948,47.263,15,48.747s.817,2.664,1.708,2.632S18.281,50.12,18.228,48.634Z" transform="translate(-4.235 3.518)"/>
        <path id="Trazado_1064781" data-name="Trazado 1064781" d="M8.395,47.65c-.934,1.156-1.13,2.547-.436,3.108s2.013.079,2.947-1.078,1.13-2.547.436-3.108S9.329,46.494,8.395,47.65Z" transform="translate(-4.806 3.544)"/>
      </g>
    </g>
  </g>
</svg>
