<svg xmlns="http://www.w3.org/2000/svg" xmlns:xlink="http://www.w3.org/1999/xlink" width="220" height="173.993" viewBox="0 0 220 173.993">
  <defs>
    <filter id="Rect치ngulo_404858" x="0" y="0" width="220" height="173.993" filterUnits="userSpaceOnUse">
      <feOffset dx="3" dy="6" input="SourceAlpha"/>
      <feGaussianBlur stdDeviation="5" result="blur"/>
      <feFlood flood-opacity="0.161"/>
      <feComposite operator="in" in2="blur"/>
      <feComposite in="SourceGraphic"/>
    </filter>
  </defs>
  <g id="Grupo_1197606" data-name="Grupo 1197606" transform="translate(-194.467 -480.072)">
    <g id="Grupo_1113681" data-name="Grupo 1113681" transform="translate(206.466 489.072)">
      <g transform="matrix(1, 0, 0, 1, -12, -9)" filter="url(#Rect치ngulo_404858)">
        <rect id="Rect치ngulo_404858-2" data-name="Rect치ngulo 404858" width="190" height="143.993" rx="8" transform="translate(12 9)" fill="#1b5e69"/>
      </g>
    </g>
    <g id="botanical_5493163" transform="translate(243.467 504.061)">
      <g id="Grupo_1197605" data-name="Grupo 1197605" transform="translate(2.83 1.839)">
        <g id="Grupo_1197591" data-name="Grupo 1197591" transform="translate(57.285 18.39)">
          <path id="Trazado_1060782" data-name="Trazado 1060782" d="M54.849,47.78a43.961,43.961,0,0,1-6.676,3.6h-.018l.809-3.6A15.253,15.253,0,0,0,37.93,52.488v-.294a12.542,12.542,0,0,0-5-10l-.239-.184a38.507,38.507,0,0,1,1.582-4.285,43.941,43.941,0,0,1,14.142-18c1.03-.772,2.1-1.49,3.181-2.152A43.883,43.883,0,0,1,74.71,11a43.864,43.864,0,0,1-3.218,16.551c-.313.754-.644,1.508-.993,2.244A44.227,44.227,0,0,1,54.849,47.78Z" transform="translate(-32.689 -11)" fill="#ff826e"/>
        </g>
        <g id="Grupo_1197592" data-name="Grupo 1197592" transform="translate(11.034 18.39)">
          <path id="Trazado_1060783" data-name="Trazado 1060783" d="M49.321,42.189a12.533,12.533,0,0,0-5,10v.294A15.253,15.253,0,0,0,33.285,47.78l.809,3.6h-.018a43.961,43.961,0,0,1-6.676-3.6A44.227,44.227,0,0,1,11.75,29.794c-.349-.736-.68-1.49-.993-2.244A43.864,43.864,0,0,1,7.539,11a43.638,43.638,0,0,1,16.2,3.09,43.431,43.431,0,0,1,6.915,3.476c1.085.662,2.152,1.379,3.181,2.152a43.941,43.941,0,0,1,14.142,18,38.508,38.508,0,0,1,1.582,4.285Z" transform="translate(-7.539 -11)" fill="#ff826e"/>
        </g>
        <g id="Grupo_1197593" data-name="Grupo 1197593" transform="translate(58.848 77.238)">
          <path id="Trazado_1060784" data-name="Trazado 1060784" d="M33.539,76.1A55.721,55.721,0,0,1,84.479,43h.552a55.691,55.691,0,0,1-50.94,33.1Z" transform="translate(-33.539 -43)" fill="#b4dd7f"/>
        </g>
        <g id="Grupo_1197594" data-name="Grupo 1197594" transform="translate(0 77.238)">
          <path id="Trazado_1060785" data-name="Trazado 1060785" d="M53.031,76.1h-.552A55.721,55.721,0,0,1,1.539,43h.552A55.721,55.721,0,0,1,53.031,76.1Z" transform="translate(-1.539 -43)" fill="#b4dd7f"/>
        </g>
        <g id="Grupo_1197595" data-name="Grupo 1197595" transform="translate(36.78 47.814)">
          <path id="Trazado_1060786" data-name="Trazado 1060786" d="M42.044,28.582l.239.184a12.542,12.542,0,0,1,5,10v.294a15.253,15.253,0,0,1,11.034-4.708l-.809,3.6-1.067,4.8a20.8,20.8,0,0,1-8.735,12.781,9.167,9.167,0,0,0-4.1,7.65V89.526H36.251V63.191a9.167,9.167,0,0,0-4.1-7.65A20.8,20.8,0,0,1,23.415,42.76l-1.067-4.8-.809-3.6a15.253,15.253,0,0,1,11.034,4.708V38.77a12.533,12.533,0,0,1,5-10l.239-.184L39.929,27Z" transform="translate(-21.539 -27)" fill="#cf9e76"/>
        </g>
        <g id="Grupo_1197596" data-name="Grupo 1197596" transform="translate(55.17 11.034)">
          <path id="Trazado_1060787" data-name="Trazado 1060787" d="M52.559,20.921c-1.085.662-2.152,1.379-3.181,2.152a43.941,43.941,0,0,0-14.142,18h-.018V29.656A71.907,71.907,0,0,0,31.539,7a25.954,25.954,0,0,1,21.02,13.921Z" transform="translate(-31.539 -7)" fill="#fc6e51"/>
        </g>
        <g id="Grupo_1197597" data-name="Grupo 1197597" transform="translate(34.15 11.034)">
          <path id="Trazado_1060788" data-name="Trazado 1060788" d="M41.129,7a71.907,71.907,0,0,0-3.678,22.656v11.42h-.018a43.941,43.941,0,0,0-14.142-18c-1.03-.772-2.1-1.49-3.181-2.152A25.914,25.914,0,0,1,41.129,7Z" transform="translate(-20.109 -7)" fill="#fc6e51"/>
        </g>
        <g id="Grupo_1197598" data-name="Grupo 1197598" transform="translate(0 37.184)">
          <path id="Trazado_1060789" data-name="Trazado 1060789" d="M32.434,39.205H24.2A71.907,71.907,0,0,0,1.539,42.883,25.884,25.884,0,0,1,16.784,21.22,44.227,44.227,0,0,0,32.434,39.205Z" transform="translate(-1.539 -21.22)" fill="#fc6e51"/>
        </g>
        <g id="Grupo_1197599" data-name="Grupo 1197599" transform="translate(79.444 37.184)">
          <path id="Trazado_1060790" data-name="Trazado 1060790" d="M70.889,29.808a25.765,25.765,0,0,1,4.745,13.075,71.907,71.907,0,0,0-22.656-3.678H44.739A44.227,44.227,0,0,0,60.389,21.22a25.845,25.845,0,0,1,10.5,8.588Z" transform="translate(-44.739 -21.22)" fill="#fc6e51"/>
        </g>
        <g id="Grupo_1197600" data-name="Grupo 1197600" transform="translate(99.306 7.356)">
          <path id="Trazado_1060791" data-name="Trazado 1060791" d="M62.2,14.894a3.9,3.9,0,0,1-5.517-5.517L59.916,6.14a3.9,3.9,0,0,1,5.517,5.517Z" transform="translate(-55.539 -5)" fill="#fc6e51"/>
        </g>
        <g id="Grupo_1197601" data-name="Grupo 1197601" transform="translate(80.916)">
          <path id="Trazado_1060792" data-name="Trazado 1060792" d="M52.895,4.678V8.356a3.678,3.678,0,1,1-7.356,0V4.678A3.689,3.689,0,0,1,49.217,1,3.6,3.6,0,0,1,51.81,2.085,3.6,3.6,0,0,1,52.895,4.678Z" transform="translate(-45.539 -1)" fill="#fc6e51"/>
        </g>
        <g id="Grupo_1197602" data-name="Grupo 1197602" transform="translate(0 7.356)">
          <path id="Trazado_1060793" data-name="Trazado 1060793" d="M11.433,9.377a3.9,3.9,0,0,1-5.517,5.517L2.679,11.657A3.9,3.9,0,0,1,8.2,6.14Z" transform="translate(-1.539 -5)" fill="#fc6e51"/>
        </g>
        <g id="Grupo_1197603" data-name="Grupo 1197603" transform="translate(22.068)">
          <path id="Trazado_1060794" data-name="Trazado 1060794" d="M20.895,4.678V8.356a3.678,3.678,0,1,1-7.356,0V4.678a3.6,3.6,0,0,1,1.085-2.593A3.6,3.6,0,0,1,17.217,1,3.689,3.689,0,0,1,20.895,4.678Z" transform="translate(-13.539 -1)" fill="#fc6e51"/>
        </g>
        <g id="Grupo_1197604" data-name="Grupo 1197604" transform="translate(51.473 11.034)">
          <path id="Trazado_1060795" data-name="Trazado 1060795" d="M33.225,7A71.907,71.907,0,0,1,36.9,29.656v11.42h.018a38.507,38.507,0,0,0-1.582,4.285L33.225,43.78l-2.115,1.582a38.507,38.507,0,0,0-1.582-4.285h.018V29.656A71.907,71.907,0,0,1,33.225,7Z" transform="translate(-29.529 -7)" fill="#ff826e"/>
        </g>
      </g>
      <path id="Trazado_1060796" data-name="Trazado 1060796" d="M112.612,77.238a57.611,57.611,0,0,0-49.1,27.568V85.837a7.344,7.344,0,0,1,3.275-6.12,22.5,22.5,0,0,0,9.524-13.9l.875-3.937a46.149,46.149,0,0,0,5.6-3.032h7.713a69.7,69.7,0,0,1,22.083,3.582l2.628.877L115,60.547a27.7,27.7,0,0,0-13.868-21.924,20,20,0,0,1,11.014,3.365l2.039-3.06a23.652,23.652,0,0,0-12.671-3.969,45.71,45.71,0,0,0,2.4-13.307,5.685,5.685,0,0,0,2.113.416,5.778,5.778,0,0,0,4.059-1.681l3.233-3.233a5.74,5.74,0,0,0-4.059-9.8,5.778,5.778,0,0,0-4.059,1.681l-3.233,3.233a5.69,5.69,0,0,0-1.263,6.177,46.2,46.2,0,0,0-12.205,2.01,39.3,39.3,0,0,0,.7-6.069,5.5,5.5,0,0,0,3.729-5.193V5.517a5.517,5.517,0,0,0-11.034,0V9.195a5.51,5.51,0,0,0,3.626,5.162A35.521,35.521,0,0,1,84.4,21.921a45.131,45.131,0,0,0-4.711,2.321,27.555,27.555,0,0,0-21.542-13.2L58,11.028l-.142.011a27.55,27.55,0,0,0-21.542,13.2,45.867,45.867,0,0,0-4.711-2.321,35.538,35.538,0,0,1-1.136-7.564,5.512,5.512,0,0,0,3.623-5.162V5.517a5.517,5.517,0,0,0-11.034,0V9.195a5.508,5.508,0,0,0,3.731,5.2,39.327,39.327,0,0,0,.7,6.069,46.135,46.135,0,0,0-12.205-2.01,5.7,5.7,0,0,0-1.265-6.177L10.789,9.037A5.74,5.74,0,0,0,.991,13.1a5.7,5.7,0,0,0,1.681,4.059l3.233,3.233a5.778,5.778,0,0,0,4.059,1.681,5.7,5.7,0,0,0,2.115-.416,45.832,45.832,0,0,0,2.4,13.307A23.642,23.642,0,0,0,1.811,38.928l2.039,3.06a20,20,0,0,1,11.014-3.365A27.7,27.7,0,0,0,1,60.547l-.211,2.76,2.628-.877a69.684,69.684,0,0,1,22.081-3.582h7.713a45.511,45.511,0,0,0,5.6,3.032l.875,3.937a22.487,22.487,0,0,0,9.524,13.9,7.344,7.344,0,0,1,3.275,6.12v18.969a57.613,57.613,0,0,0-49.1-27.568H0l1.149,2.586a57.632,57.632,0,0,0,52.615,34.194h8.469a57.63,57.63,0,0,0,52.615-34.194L116,77.238ZM85.585,5.517a1.839,1.839,0,1,1,3.678,0V9.195a1.839,1.839,0,1,1-3.678,0Zm-58.848,0a1.839,1.839,0,0,1,3.678,0V9.195a1.839,1.839,0,0,1-3.678,0Zm84.228,52.557a73.385,73.385,0,0,0-20.459-2.9H87.8A45.738,45.738,0,0,0,98.71,41.513a24.013,24.013,0,0,1,12.255,16.56Zm-6.387-43.2,3.233-3.233a2.062,2.062,0,0,1,3.52,1.458,2.046,2.046,0,0,1-.6,1.458l-3.233,3.233a2.062,2.062,0,0,1-3.52-1.458A2.046,2.046,0,0,1,104.578,14.87Zm-26.362,42.4.467-2.1H76.39a17.229,17.229,0,0,0-9.585,2.944,14.421,14.421,0,0,0-4.533-7.479,41.858,41.858,0,0,1,37.984-28.526,42.09,42.09,0,0,1-22.04,35.163ZM56.788,48.262c-.2-.552-.4-1.1-.627-1.642V35.538A69.762,69.762,0,0,1,58,19.662a69.762,69.762,0,0,1,1.839,15.876V46.62c-.223.539-.425,1.091-.627,1.642L58,47.354ZM76.515,26.191a45.383,45.383,0,0,0-13,13.357V35.537a73.389,73.389,0,0,0-2.9-20.437A23.836,23.836,0,0,1,76.515,26.191ZM55.383,15.1a73.39,73.39,0,0,0-2.9,20.437v4.011a45.383,45.383,0,0,0-13-13.357A23.815,23.815,0,0,1,55.383,15.1ZM9.964,18.39a2.083,2.083,0,0,1-1.458-.6L5.272,14.554a2.062,2.062,0,0,1,1.458-3.52,2.083,2.083,0,0,1,1.458.6l3.233,3.233a2.062,2.062,0,0,1-1.458,3.52Zm15.53,36.78a73.385,73.385,0,0,0-20.459,2.9A24.013,24.013,0,0,1,17.29,41.513,45.744,45.744,0,0,0,28.2,55.17ZM15.745,22.108A41.858,41.858,0,0,1,53.73,50.635,14.409,14.409,0,0,0,49.2,58.114,17.239,17.239,0,0,0,39.61,55.17H37.317l.467,2.1A42.084,42.084,0,0,1,15.745,22.108Zm35.5,54.548a18.824,18.824,0,0,1-7.972-11.635l-1.328-5.966a13.571,13.571,0,0,1,6.926,3.533,14.419,14.419,0,0,0,1.444,5.241l.52,1.039,3.29-1.648-.52-1.037A10.658,10.658,0,0,1,56.742,52.9L58,51.955l1.256.942a10.656,10.656,0,0,1,3.137,13.287l-.52,1.039,3.29,1.648.52-1.041a14.39,14.39,0,0,0,1.444-5.239,13.564,13.564,0,0,1,6.926-3.533l-1.328,5.966a18.814,18.814,0,0,1-7.972,11.635,11.014,11.014,0,0,0-4.914,9.18v24.5H56.161v-24.5A11.014,11.014,0,0,0,51.247,76.656ZM5.771,80.967a53.96,53.96,0,0,1,43.737,25.967L14.852,84.88l-1.975,3.1L47.4,109.951A53.956,53.956,0,0,1,5.771,80.967Zm62.835,28.984,34.52-21.967-1.975-3.1L66.494,106.934a53.96,53.96,0,0,1,43.737-25.967A53.962,53.962,0,0,1,68.605,109.951Z"/>
    </g>
  </g>
</svg>
