<svg xmlns="http://www.w3.org/2000/svg" xmlns:xlink="http://www.w3.org/1999/xlink" width="118" height="118" viewBox="0 0 118 118">
  <defs>
    <filter id="Elipse_12115" x="0" y="0" width="118" height="118" filterUnits="userSpaceOnUse">
      <feOffset dy="3" input="SourceAlpha"/>
      <feGaussianBlur stdDeviation="3" result="blur"/>
      <feFlood flood-opacity="0.161"/>
      <feComposite operator="in" in2="blur"/>
      <feComposite in="SourceGraphic"/>
    </filter>
  </defs>
  <g id="Grupo_1197975" data-name="Grupo 1197975" transform="translate(-3566.731 8295.04)">
    <g id="Grupo_1184449" data-name="Grupo 1184449" transform="translate(2766.95 -10838.04)">
      <g transform="matrix(1, 0, 0, 1, 799.78, 2543)" filter="url(#Elipse_12115)">
        <g id="Elipse_12115-2" data-name="Elipse 12115" transform="translate(9 6)" fill="#cea499" stroke="#8f726a" stroke-width="3">
          <circle cx="50" cy="50" r="50" stroke="none"/>
          <circle cx="50" cy="50" r="48.5" fill="none"/>
        </g>
      </g>
    </g>
    <g id="_17-Smart_farm" data-name="17-Smart farm" transform="translate(3593.096 -8268.876)">
      <path id="Trazado_1065108" data-name="Trazado 1065108" d="M1,6H64.752V45.074H1Z" transform="translate(0.028 0.141)" fill="#cdebfc"/>
      <path id="Trazado_1065109" data-name="Trazado 1065109" d="M64.752,44v6.17H1V44H64.752Z" transform="translate(0.028 1.215)" fill="#e2e8ed"/>
      <path id="Trazado_1065110" data-name="Trazado 1065110" d="M46.791,59.028v2.057a1.028,1.028,0,0,1-1.028,1.028H19.028A1.028,1.028,0,0,1,18,61.085V59.028A1.028,1.028,0,0,1,19.028,58H45.763A1.028,1.028,0,0,1,46.791,59.028Z" transform="translate(0.509 1.611)" fill="#e2e8ed"/>
      <path id="Trazado_1065111" data-name="Trazado 1065111" d="M40.509,50l2.057,8.226H22L24.057,50Z" transform="translate(0.622 1.385)" fill="#5c7c94"/>
      <path id="Trazado_1065112" data-name="Trazado 1065112" d="M1,44H64.752v2.057H1Z" transform="translate(0.028 1.215)" fill="#c5d1db"/>
      <path id="Trazado_1065113" data-name="Trazado 1065113" d="M47,24H57.283v6.17H47Z" transform="translate(1.328 0.65)" fill="#d7fa78"/>
      <path id="Trazado_1065114" data-name="Trazado 1065114" d="M33,14h7.2v6.17H33Z" transform="translate(0.932 0.367)" fill="#d7fa78"/>
      <path id="Trazado_1065115" data-name="Trazado 1065115" d="M33,24H47.4v6.17H33Z" transform="translate(0.932 0.65)" fill="#e2e8ed"/>
      <path id="Trazado_1065116" data-name="Trazado 1065116" d="M40,14H57.48v6.17H40Z" transform="translate(1.13 0.367)" fill="#e2e8ed"/>
      <path id="Trazado_1065117" data-name="Trazado 1065117" d="M26.565,28v6.17H6V28H26.565Z" transform="translate(0.17 0.763)" fill="#8ca4b8"/>
      <path id="Trazado_1065118" data-name="Trazado 1065118" d="M25.509,34v8.226l-2.057,2.057H9.057L7,42.226V34Z" transform="translate(0.198 0.932)" fill="#5c7c94"/>
      <path id="Trazado_1065119" data-name="Trazado 1065119" d="M7,34v2.057H23.452v8.226l2.057-2.057V34Z" transform="translate(0.198 0.932)" fill="#4b6276"/>
      <path id="Trazado_1065120" data-name="Trazado 1065120" d="M16.283,22.113V24.17h-6.17A4.113,4.113,0,0,1,6,20.057V18h6.17A4.113,4.113,0,0,1,16.283,22.113Z" transform="translate(0.17 0.48)" fill="#d7fa78"/>
      <path id="Trazado_1065121" data-name="Trazado 1065121" d="M8.057,18H6v2.057a4.113,4.113,0,0,0,4.113,4.113h6.17V22.113H12.17A4.113,4.113,0,0,1,8.057,18Z" transform="translate(0.17 0.48)" fill="#93d632"/>
      <path id="Trazado_1065122" data-name="Trazado 1065122" d="M26.283,10v2.057A4.113,4.113,0,0,1,22.17,16.17H16V14.113A4.113,4.113,0,0,1,20.113,10Z" transform="translate(0.452 0.254)" fill="#d7fa78"/>
      <path id="Trazado_1065123" data-name="Trazado 1065123" d="M24.226,10a4.113,4.113,0,0,1-4.113,4.113H16V16.17h6.17a4.113,4.113,0,0,0,4.113-4.113V10Z" transform="translate(0.452 0.254)" fill="#93d632"/>
      <path id="Trazado_1065124" data-name="Trazado 1065124" d="M16.283,6.113V8.17h-6.17A4.113,4.113,0,0,1,6,4.057V2h6.17A4.113,4.113,0,0,1,16.283,6.113Z" transform="translate(0.17 0.028)" fill="#d7fa78"/>
      <path id="Trazado_1065125" data-name="Trazado 1065125" d="M8.057,2H6V4.057A4.113,4.113,0,0,0,10.113,8.17h6.17V6.113H12.17A4.113,4.113,0,0,1,8.057,2Z" transform="translate(0.17 0.028)" fill="#93d632"/>
      <path id="Trazado_1065126" data-name="Trazado 1065126" d="M23,28h3.085v6.17H23Z" transform="translate(0.65 0.763)" fill="#a8bbc9"/>
      <g id="Grupo_1197974" data-name="Grupo 1197974" transform="translate(0 1)">
        <path id="Trazado_1065127" data-name="Trazado 1065127" d="M64.78,5.113h-47.4A5.151,5.151,0,0,0,12.339,1H6.17A1.028,1.028,0,0,0,5.141,2.028V4.085a5.083,5.083,0,0,0,.116,1.028H1.028A1.028,1.028,0,0,0,0,6.141V51.385a1.028,1.028,0,0,0,1.028,1.028H23.361l-1.542,6.17H19.537a2.057,2.057,0,0,0-2.057,2.057V62.7a2.057,2.057,0,0,0,2.057,2.057H46.272A2.057,2.057,0,0,0,48.328,62.7V60.639a2.057,2.057,0,0,0-2.057-2.057H43.99l-1.542-6.17H64.78a1.028,1.028,0,0,0,1.028-1.028V6.141A1.028,1.028,0,0,0,64.78,5.113ZM63.752,44.187H26.132l.3-.3a1.028,1.028,0,0,0,.3-.727v-7.2a1.028,1.028,0,0,0,1.028-1.028v-6.17a1.028,1.028,0,0,0-1.028-1.028H17.48V17.452h5.141a5.147,5.147,0,0,0,5.141-5.141V10.254a1.028,1.028,0,0,0-1.028-1.028h-6.17a5.088,5.088,0,0,0-3.085,1.055V7.17H63.752ZM8.226,42.733V35.961H19.537V33.9H7.2V29.791H25.706V33.9H21.593v2.057h3.085v6.772l-1.454,1.454H9.68ZM17.48,14.367a3.085,3.085,0,0,1,3.085-3.085h5.141v1.028A3.085,3.085,0,0,1,22.622,15.4H17.48Zm-2.057,9.254H10.283A3.085,3.085,0,0,1,7.2,20.537V19.509h5.141a3.085,3.085,0,0,1,3.085,3.085ZM7.2,3.057h5.141a3.085,3.085,0,0,1,3.085,3.085V7.17H10.283A3.1,3.1,0,0,1,7.2,4.085ZM6.178,7.17a5.141,5.141,0,0,0,4.1,2.057h5.141v9.281a5.088,5.088,0,0,0-3.085-1.055H6.17A1.028,1.028,0,0,0,5.141,18.48v2.057a5.147,5.147,0,0,0,5.141,5.141h5.141v2.057H6.17a1.028,1.028,0,0,0-1.028,1.028v6.17A1.028,1.028,0,0,0,6.17,35.961v7.2a1.028,1.028,0,0,0,.3.727l.3.3H2.057V7.17ZM46.272,62.7H19.537V60.639H46.272ZM23.939,58.582l1.542-6.17H40.327l1.542,6.17ZM41.13,50.356H2.057V46.243h61.7v4.113Z" transform="translate(0 -1)" fill="#002026"/>
        <path id="Trazado_1065128" data-name="Trazado 1065128" d="M9,30h2.057v2.057H9Z" transform="translate(0.254 -0.181)" fill="#002026"/>
        <path id="Trazado_1065129" data-name="Trazado 1065129" d="M13,30h2.057v2.057H13Z" transform="translate(0.367 -0.181)" fill="#002026"/>
        <path id="Trazado_1065130" data-name="Trazado 1065130" d="M33.028,21.226H57.706A1.028,1.028,0,0,0,58.735,20.2v-6.17A1.028,1.028,0,0,0,57.706,13H33.028A1.028,1.028,0,0,0,32,14.028V20.2A1.028,1.028,0,0,0,33.028,21.226Zm23.65-2.057H41.254V15.057H56.678ZM34.057,15.057H39.2V19.17H34.057Z" transform="translate(0.904 -0.661)" fill="#002026"/>
        <path id="Trazado_1065131" data-name="Trazado 1065131" d="M33.028,31.226H57.706A1.028,1.028,0,0,0,58.735,30.2v-6.17A1.028,1.028,0,0,0,57.706,23H33.028A1.028,1.028,0,0,0,32,24.028V30.2A1.028,1.028,0,0,0,33.028,31.226Zm23.65-2.057H48.452V25.057h8.226ZM34.057,25.057H46.4V29.17H34.057Z" transform="translate(0.904 -0.378)" fill="#002026"/>
        <path id="Trazado_1065132" data-name="Trazado 1065132" d="M39.2,39.17h2.057V37.113h17.48V35.057H41.254V33H39.2v2.057H32v2.057h7.2Z" transform="translate(0.904 -0.096)" fill="#002026"/>
      </g>
    </g>
  </g>
</svg>
