<svg xmlns="http://www.w3.org/2000/svg" xmlns:xlink="http://www.w3.org/1999/xlink" width="118" height="118" viewBox="0 0 118 118">
  <defs>
    <filter id="Elipse_12115" x="0" y="0" width="118" height="118" filterUnits="userSpaceOnUse">
      <feOffset dy="3" input="SourceAlpha"/>
      <feGaussianBlur stdDeviation="3" result="blur"/>
      <feFlood flood-opacity="0.161"/>
      <feComposite operator="in" in2="blur"/>
      <feComposite in="SourceGraphic"/>
    </filter>
  </defs>
  <g id="Grupo_1197976" data-name="Grupo 1197976" transform="translate(-3908.981 8295.04)">
    <g id="Grupo_1184450" data-name="Grupo 1184450" transform="translate(3109.2 -10838.04)">
      <g transform="matrix(1, 0, 0, 1, 799.78, 2543)" filter="url(#Elipse_12115)">
        <g id="Elipse_12115-2" data-name="Elipse 12115" transform="translate(9 6)" fill="#cea499" stroke="#8f726a" stroke-width="3">
          <circle cx="50" cy="50" r="50" stroke="none"/>
          <circle cx="50" cy="50" r="48.5" fill="none"/>
        </g>
      </g>
    </g>
    <g id="monitoring_3239318" transform="translate(3932.345 -8274.695)">
      <path id="Trazado_1065133" data-name="Trazado 1065133" d="M46.752,50H3V62.34H46.752Z" transform="translate(0.122 5.848)" fill="#9c5f20"/>
      <path id="Trazado_1065134" data-name="Trazado 1065134" d="M25.694,33.69a4.465,4.465,0,0,0,.746-2.471A4.537,4.537,0,0,0,21.294,26.8a4.487,4.487,0,1,0-7.658,0,4.512,4.512,0,0,0-5.146,4.421,6.089,6.089,0,0,0,.565,2.293,1.993,1.993,0,0,0-.844.368C4.83,36.593,4.672,39.935,6.35,43.747c2.031,4.613,5.454,9.908,11.115,9.908,6.462,0,10.042-7.3,11.808-12.53a6.878,6.878,0,0,0,.368-2.056,5.258,5.258,0,0,0-3.948-5.379Z" transform="translate(0.403 2.193)" fill="#94b020"/>
      <path id="Trazado_1065135" data-name="Trazado 1065135" d="M45.706,43.9V39.318A3.318,3.318,0,0,0,42.388,36h-9.07A3.318,3.318,0,0,0,30,39.317V43.9a3.318,3.318,0,0,0,3.317,3.318h9.071A3.317,3.317,0,0,0,45.706,43.9Z" transform="translate(3.411 4.142)" fill="#c4c4c4"/>
      <ellipse id="Elipse_12291" data-name="Elipse 12291" cx="2.5" cy="2" rx="2.5" ry="2" transform="translate(38.655 43.655)" fill="#c12929"/>
      <circle id="Elipse_12292" data-name="Elipse 12292" cx="3.5" cy="3.5" r="3.5" transform="translate(56.655 7.655)" fill="#edbf36"/>
      <path id="Trazado_1065136" data-name="Trazado 1065136" d="M54.271,30.975c5.609,0,0-8.975,0-8.975S48.662,30.975,54.271,30.975Z" transform="translate(6.065 2.437)" fill="#3699e8"/>
      <ellipse id="Elipse_12293" data-name="Elipse 12293" cx="5.5" cy="6" rx="5.5" ry="6" transform="translate(54.655 39.655)" fill="#f4c69d"/>
      <circle id="Elipse_12294" data-name="Elipse 12294" cx="2.5" cy="2.5" r="2.5" transform="translate(57.655 63.655)" fill="#c12929"/>
      <path id="Trazado_1065137" data-name="Trazado 1065137" d="M29.274,35.885c-1.768,5.229-5.348,12.53-11.808,12.53-5.661,0-9.085-5.3-11.115-9.908A13.023,13.023,0,0,1,5.5,35.94a9.19,9.19,0,0,0,.847,5.932C8.381,46.485,11.8,51.78,17.465,51.78c6.462,0,10.042-7.3,11.808-12.53a6.878,6.878,0,0,0,.368-2.056,5.96,5.96,0,0,0-.239-1.807c-.044.166-.073.332-.129.5Z" transform="translate(0.403 4.068)" fill="#788f1a"/>
      <path id="Trazado_1065138" data-name="Trazado 1065138" d="M46.752,50l-2.866,1.612A80.059,80.059,0,0,1,11.561,61.6L3,62.34H46.752Z" transform="translate(0.122 5.848)" fill="#804e1a"/>
      <path id="Trazado_1065139" data-name="Trazado 1065139" d="M42.388,44.36H33.317A3.317,3.317,0,0,1,30,41.043v2.244A3.317,3.317,0,0,0,33.317,46.6h9.071a3.317,3.317,0,0,0,3.317-3.317V41.043A3.317,3.317,0,0,1,42.388,44.36Z" transform="translate(3.411 4.757)" fill="#a6a6a6"/>
      <path id="Trazado_1065140" data-name="Trazado 1065140" d="M48,66.117V53.777a1.122,1.122,0,0,0-1.122-1.122H39.021V50.411H45.8a4.444,4.444,0,0,0,4.44-4.439V41.389a4.444,4.444,0,0,0-4.44-4.439h-9.07a4.444,4.444,0,0,0-4.439,4.439v4.584a4.444,4.444,0,0,0,4.44,4.439h.047v2.244H23.987c2.717-2.167,5-5.876,6.753-11.049a8.006,8.006,0,0,0,.426-2.392h0a6.4,6.4,0,0,0-3.524-6.005A5.522,5.522,0,0,0,26,27.13a5.659,5.659,0,0,0-2.669-1.288,5.445,5.445,0,0,0,.142-1.234,5.609,5.609,0,1,0-11.218,0,5.431,5.431,0,0,0,.142,1.231A5.651,5.651,0,0,0,9.72,27.124,5.571,5.571,0,0,0,7.772,31.34a5.778,5.778,0,0,0,.273,1.688q-.067.047-.131.1c-3.489,2.8-4.225,6.567-2.186,11.2a21.232,21.232,0,0,0,5.878,8.333H3.122A1.122,1.122,0,0,0,2,53.777v12.34a1.122,1.122,0,0,0,1.122,1.122H46.873A1.122,1.122,0,0,0,48,66.117ZM34.533,45.972V41.389a2.2,2.2,0,0,1,2.2-2.2H45.8a2.2,2.2,0,0,1,2.2,2.2v4.584a2.2,2.2,0,0,1-2.2,2.2h-9.07A2.2,2.2,0,0,1,34.533,45.972ZM7.78,43.418c-1.643-3.735-1.17-6.369,1.538-8.541a.86.86,0,0,1,.368-.145,1.122,1.122,0,0,0,.811-1.523,4.993,4.993,0,0,1-.482-1.869,3.329,3.329,0,0,1,1.17-2.516,3.386,3.386,0,0,1,2.208-.829,3.307,3.307,0,0,1,.481.035A1.122,1.122,0,0,0,15,26.339a3.3,3.3,0,0,1-.5-1.73,3.366,3.366,0,1,1,6.731,0,3.3,3.3,0,0,1-.5,1.73,1.122,1.122,0,0,0,1.124,1.691,3.348,3.348,0,0,1,3.3,5.163,1.119,1.119,0,0,0,.634,1.7,4.118,4.118,0,0,1,3.128,4.276,5.756,5.756,0,0,1-.309,1.72c-1.691,5-4.7,10.884-9.625,11.673V47.51l5.28-5.28L22.68,40.644l-3.694,3.694v-4.68l5.28-5.28L22.68,32.791l-3.694,3.694V29.1H16.742v7.388l-3.694-3.694-1.586,1.586,5.28,5.28v4.68l-3.694-3.694L11.462,42.23l5.28,5.28v5.052c-3.507-.534-6.52-3.6-8.962-9.144ZM45.752,65H4.244V54.9H45.752Z" transform="translate(0 2.071)"/>
      <path id="Trazado_1065141" data-name="Trazado 1065141" d="M37.366,38a3.366,3.366,0,1,0,3.366,3.366A3.37,3.37,0,0,0,37.366,38Zm0,4.487a1.122,1.122,0,1,1,1.122-1.122A1.123,1.123,0,0,1,37.366,42.487Z" transform="translate(3.899 4.386)"/>
      <path id="Trazado_1065142" data-name="Trazado 1065142" d="M54.487,6a4.487,4.487,0,1,0,4.487,4.487A4.492,4.492,0,0,0,54.487,6Zm0,6.731a2.244,2.244,0,1,1,2.244-2.244A2.246,2.246,0,0,1,54.487,12.731Z" transform="translate(5.848 0.487)"/>
      <path id="Trazado_1065143" data-name="Trazado 1065143" d="M53,2h2.244V5.366H53Z" transform="translate(6.214)"/>
      <path id="Trazado_1065144" data-name="Trazado 1065144" d="M53,15h2.244v3.366H53Z" transform="translate(6.214 1.584)"/>
      <path id="Trazado_1065145" data-name="Trazado 1065145" d="M46,9h3.366v2.244H46Z" transform="translate(5.361 0.853)"/>
      <path id="Trazado_1065146" data-name="Trazado 1065146" d="M59,9h3.366v2.244H59Z" transform="translate(6.945 0.853)"/>
      <path id="Trazado_1065147" data-name="Trazado 1065147" d="M0,0H2.244V3.366H0Z" transform="translate(53.182 5.418) rotate(-45)"/>
      <path id="Trazado_1065148" data-name="Trazado 1065148" d="M0,0H2.244V3.366H0Z" transform="translate(63.491 15.726) rotate(-45)"/>
      <path id="Trazado_1065149" data-name="Trazado 1065149" d="M0,0H3.366V2.244H0Z" transform="translate(53.189 16.531) rotate(-45)"/>
      <path id="Trazado_1065150" data-name="Trazado 1065150" d="M0,0H3.366V2.244H0Z" transform="translate(63.501 6.222) rotate(-45)"/>
      <path id="Trazado_1065151" data-name="Trazado 1065151" d="M54.392,32.214a3.32,3.32,0,0,0,3.184-1.594c1.544-2.787-1.59-8.066-2.232-9.1a1.167,1.167,0,0,0-1.9,0c-.644,1.031-3.777,6.31-2.232,9.1A3.32,3.32,0,0,0,54.392,32.214Zm0-7.784c.956,1.93,1.727,4.19,1.221,5.1-.058.108-.241.438-1.221.438s-1.161-.33-1.222-.439c-.5-.909.267-3.171,1.222-5.1Z" transform="translate(5.944 2.319)"/>
      <path id="Trazado_1065152" data-name="Trazado 1065152" d="M55.485,38H53.241v2.257l-2.219.007.007,2.244,2.212-.007v2.23h2.244V42.494l2.247-.007-.007-2.244-2.24.007Z" transform="translate(5.973 4.386)"/>
      <path id="Trazado_1065153" data-name="Trazado 1065153" d="M54.731,35a6.731,6.731,0,1,0,6.731,6.731A6.738,6.738,0,0,0,54.731,35Zm0,11.218a4.487,4.487,0,1,1,4.487-4.487A4.492,4.492,0,0,1,54.731,46.218Z" transform="translate(5.604 4.021)"/>
      <path id="Trazado_1065154" data-name="Trazado 1065154" d="M55.487,56.816V51H53.244v5.816a3.366,3.366,0,1,0,2.244,0ZM54.366,61.1a1.122,1.122,0,1,1,1.122-1.122A1.123,1.123,0,0,1,54.366,61.1Z" transform="translate(5.97 5.97)"/>
      <path id="Trazado_1065155" data-name="Trazado 1065155" d="M42.4,10.61l3.366-3.366a1.121,1.121,0,0,0,0-1.586L42.4,2.293,40.816,3.879,42.267,5.33H37.122A1.122,1.122,0,0,0,36,6.452V35.619h2.244V7.573h4.023L40.816,9.024Z" transform="translate(4.142 0.036)"/>
    </g>
  </g>
</svg>
