<svg xmlns="http://www.w3.org/2000/svg" xmlns:xlink="http://www.w3.org/1999/xlink" width="118" height="118" viewBox="0 0 118 118">
  <defs>
    <filter id="Elipse_12115" x="0" y="0" width="118" height="118" filterUnits="userSpaceOnUse">
      <feOffset dy="3" input="SourceAlpha"/>
      <feGaussianBlur stdDeviation="3" result="blur"/>
      <feFlood flood-opacity="0.161"/>
      <feComposite operator="in" in2="blur"/>
      <feComposite in="SourceGraphic"/>
    </filter>
  </defs>
  <g id="Grupo_1197989" data-name="Grupo 1197989" transform="translate(-3566.731 7841.04)">
    <g id="Grupo_1184451" data-name="Grupo 1184451" transform="translate(2766.95 -10384.04)">
      <g transform="matrix(1, 0, 0, 1, 799.78, 2543)" filter="url(#Elipse_12115)">
        <g id="Elipse_12115-2" data-name="Elipse 12115" transform="translate(9 6)" fill="#cea499" stroke="#8f726a" stroke-width="3">
          <circle cx="50" cy="50" r="50" stroke="none"/>
          <circle cx="50" cy="50" r="48.5" fill="none"/>
        </g>
      </g>
    </g>
    <g id="repurpose_5121259" transform="translate(3594.651 -7816.08)">
      <g id="Grupo_1197987" data-name="Grupo 1197987" transform="translate(1.003 7.018)">
        <g id="Grupo_1197977" data-name="Grupo 1197977">
          <path id="Trazado_1065156" data-name="Trazado 1065156" d="M25.062,47.424a6.016,6.016,0,0,0-4.111-5.7l-1.9-.632A10.029,10.029,0,0,0,29.072,31.062V25.046a4.009,4.009,0,0,0-4.01-4.01H12.028a5.015,5.015,0,0,1-4.712-3.309l-.541.541A6.008,6.008,0,0,0,5.01,22.53v8.532A10.029,10.029,0,0,0,15.036,41.088h.241a4.254,4.254,0,0,0-3.008,7.259l.762.762v1.614a28.063,28.063,0,0,1-2.005,10.417H3.005C3.005,59.034,1,59.034,1,56.929s2.005-2.115,2.005-4.221S1,50.6,1,48.5s2.005-2.105,2.005-4.2a2.772,2.772,0,0,0-1-2.105,2.772,2.772,0,0,1-1-2.105V19.031A12.028,12.028,0,0,1,13.031,7h8.021A12.028,12.028,0,0,1,33.083,19.031V41.148a3.389,3.389,0,0,0-2.647,2.5L30.075,45.1l-5.013,4.01Z" transform="translate(-1 -7)" fill="#fcd770"/>
        </g>
        <g id="Grupo_1197978" data-name="Grupo 1197978" transform="translate(14.277 34.088)">
          <path id="Trazado_1065157" data-name="Trazado 1065157" d="M20.915,41.632a6.016,6.016,0,0,1,4.111,5.7v1.684l-6.777-6.777A4.257,4.257,0,0,0,15.24,41h3.77Z" transform="translate(-15.24 -41)" fill="#ff826e"/>
        </g>
        <g id="Grupo_1197979" data-name="Grupo 1197979" transform="translate(10.026 42.108)">
          <path id="Trazado_1065158" data-name="Trazado 1065158" d="M23.933,57.021a6.736,6.736,0,0,0,1.795-.241v.01a27.643,27.643,0,0,0,1.313,4.241H11a28.063,28.063,0,0,0,2.005-10.417V49l5.965,5.965a7.019,7.019,0,0,0,4.963,2.055Z" transform="translate(-11 -49)" fill="#ff826e"/>
        </g>
        <g id="Grupo_1197980" data-name="Grupo 1197980" transform="translate(32.213 38.098)">
          <path id="Trazado_1065159" data-name="Trazado 1065159" d="M61.072,45v4.01a6.02,6.02,0,0,1-6.015,6.015v-4.01h-4.01v4.01H43.025v-4.01h-4.01v4.01a6.006,6.006,0,0,1-5.885-4.752l2.777-3.058A4.157,4.157,0,0,0,36.96,45Z" transform="translate(-33.13 -45)" fill="#ccd1d9"/>
        </g>
        <g id="Grupo_1197981" data-name="Grupo 1197981" transform="translate(10.026 34.088)">
          <path id="Trazado_1065160" data-name="Trazado 1065160" d="M25.036,49.021l5.013-4.01.361-1.454a3.389,3.389,0,0,1,2.647-2.5,3.215,3.215,0,0,1,.632-.06,3.389,3.389,0,0,1,3.379,3.379,4.469,4.469,0,0,1-.05.632,4.157,4.157,0,0,1-1.053,2.216l-2.777,3.058-4.06,4.461a6.84,6.84,0,0,1-3.4,2.055,6.736,6.736,0,0,1-1.795.241,7.019,7.019,0,0,1-4.963-2.055l-5.965-5.965-.762-.762a4.254,4.254,0,0,1,6.015-6.015Z" transform="translate(-11 -41)" fill="#f0d0b4"/>
        </g>
        <g id="Grupo_1197982" data-name="Grupo 1197982" transform="translate(4.01 10.728)">
          <path id="Trazado_1065161" data-name="Trazado 1065161" d="M29.062,25.019v6.015A10.029,10.029,0,0,1,19.036,41.06h-4.01A10.029,10.029,0,0,1,5,31.034V22.5a6.008,6.008,0,0,1,1.765-4.261l.541-.541a5.015,5.015,0,0,0,4.712,3.309H25.052a4.009,4.009,0,0,1,4.01,4.01Z" transform="translate(-5 -17.7)" fill="#f0d0b4"/>
        </g>
        <g id="Grupo_1197983" data-name="Grupo 1197983" transform="translate(32.714 34.088)">
          <path id="Trazado_1065162" data-name="Trazado 1065162" d="M61.071,41v4.01H36.959a4.469,4.469,0,0,0,.05-.632A3.389,3.389,0,0,0,33.63,41H61.071Z" transform="translate(-33.63 -41)" fill="#aab2bd"/>
        </g>
        <g id="Grupo_1197984" data-name="Grupo 1197984" transform="translate(46.119 22.157)">
          <path id="Trazado_1065163" data-name="Trazado 1065163" d="M47,36.018a6.318,6.318,0,0,1,4.772-6.106l3.248-.812v2.968a5.009,5.009,0,0,1-4.953,5.013L47,37.121Z" transform="translate(-47 -29.1)" fill="#b4dd7f"/>
        </g>
        <g id="Grupo_1197985" data-name="Grupo 1197985" transform="translate(38.098 22.157)">
          <path id="Trazado_1065164" data-name="Trazado 1065164" d="M47.021,36.018v1.1l-3.068-.04A5.009,5.009,0,0,1,39,32.068V29.1l3.248.812a6.3,6.3,0,0,1,4.772,6.106Z" transform="translate(-39 -29.1)" fill="#b4dd7f"/>
        </g>
        <g id="Grupo_1197986" data-name="Grupo 1197986" transform="translate(42.108 12.031)">
          <path id="Trazado_1065165" data-name="Trazado 1065165" d="M47.01,33.036l-1.183-.882A7.328,7.328,0,0,1,45,31.412a7.019,7.019,0,0,1-1.243-1.765A6.947,6.947,0,0,1,43,26.489a7.064,7.064,0,0,1,1.554-4.411L47.01,19l2.456,3.078a7.058,7.058,0,0,1-.642,9.535,8.163,8.163,0,0,1-.632.541Z" transform="translate(-43 -19)" fill="#a0d468"/>
        </g>
      </g>
      <g id="Grupo_1197988" data-name="Grupo 1197988">
        <path id="Trazado_1065166" data-name="Trazado 1065166" d="M46,60h2.005v2.005H46Z" transform="translate(0.119 0.155)"/>
        <path id="Trazado_1065167" data-name="Trazado 1065167" d="M50,60h2.005v2.005H50Z" transform="translate(0.129 0.155)"/>
        <path id="Trazado_1065168" data-name="Trazado 1065168" d="M43,60h2.005v2.005H43Z" transform="translate(0.111 0.155)"/>
        <path id="Trazado_1065169" data-name="Trazado 1065169" d="M62.16,0H32.083V2.005H45.708l-11.62,33.2V19.049A13.049,13.049,0,0,0,21.054,6.016H13.034A13.049,13.049,0,0,0,0,19.049V40.1A3.751,3.751,0,0,0,1.279,42.9a1.738,1.738,0,0,1,0,2.825,3.694,3.694,0,0,0,0,5.591,1.828,1.828,0,0,1,.726,1.413,1.834,1.834,0,0,1-.727,1.417,3.7,3.7,0,0,0,0,5.6,1.834,1.834,0,0,1,.727,1.417v1H4.01v-1a3.767,3.767,0,0,0-1.278-2.8,1.743,1.743,0,0,1,0-2.832,3.769,3.769,0,0,0,1.278-2.8,3.757,3.757,0,0,0-1.278-2.8,1.736,1.736,0,0,1,0-2.824,3.761,3.761,0,0,0,1.279-2.8,3.756,3.756,0,0,0-1.279-2.8A1.824,1.824,0,0,1,2.005,40.1V19.049A11.041,11.041,0,0,1,13.034,8.021h8.021A11.041,11.041,0,0,1,32.083,19.049V40.431a4.361,4.361,0,0,0-2.614,2.99l-.282,1.124-3.15,2.52a6.977,6.977,0,0,0-3.34-5.589,11.039,11.039,0,0,0,7.38-10.4V25.065a5.019,5.019,0,0,0-5.013-5.013H20.052a4.014,4.014,0,0,1-4.01-4.01V14.036H14.036v2.005a5.985,5.985,0,0,0,1.544,4.01H12.031a4.014,4.014,0,0,1-4.01-4.01V14.036H6.015v2.005a6.036,6.036,0,0,0,.169,1.421l-.118.118A6.973,6.973,0,0,0,4.01,22.543V31.08a11.044,11.044,0,0,0,7.644,10.492,5.237,5.237,0,0,0-.089,7.5l.466.466v1.2A26.9,26.9,0,0,1,10.1,60.786l-.55,1.375h19L28,60.785a26.843,26.843,0,0,1-1.04-3.227A8.009,8.009,0,0,0,29.9,55.523l2.956-3.25A7.041,7.041,0,0,0,39.1,56.145h1v-4.01h2.005v4.01H52.134v-4.01h2.005v4.01h1a7.027,7.027,0,0,0,7.018-7.018V40.935L48.535,2.005H62.16Zm-24.1,44.114a4.347,4.347,0,0,0-.673-2.005H60.155v2.005ZM51.5,32.31l-3.239,2.653a5.276,5.276,0,0,1,3.874-4.006l2.005-.5v1.687a4.024,4.024,0,0,1-3.961,4.01l-.21,0,2.8-2.295Zm-3.375-1.272V25.065H46.119v5.974a6.054,6.054,0,0,1-.676-8.286l1.678-2.1,1.678,2.1a6.054,6.054,0,0,1-.676,8.286Zm-2.142,3.925L42.743,32.31l-1.271,1.551,2.8,2.295-.21,0a4.024,4.024,0,0,1-3.961-4.01V30.456l2.005.5a5.273,5.273,0,0,1,3.875,4.005Zm-1.941,3.2,2.077.024V40.1H34.5L38.1,29.82v2.323A6.039,6.039,0,0,0,44.041,38.158ZM48.124,40.1V38.182l2.077-.024a6.038,6.038,0,0,0,5.943-6.015V29.819l3.6,10.284Zm3.614-11.115a8.016,8.016,0,0,0,.4-2.446A8.1,8.1,0,0,0,50.366,21.5l-3.244-4.055L43.877,21.5a8.1,8.1,0,0,0-1.769,5.044,8.023,8.023,0,0,0,.4,2.447l-3.785-.946,8.4-24,8.4,24ZM24,46.641,19.753,42.4l.881.294A5.008,5.008,0,0,1,24,46.641ZM15.039,40.1A9.033,9.033,0,0,1,6.015,31.08V22.543A4.968,4.968,0,0,1,7.08,19.454a6.014,6.014,0,0,0,4.951,2.6H25.065a3.011,3.011,0,0,1,3.008,3.008V31.08A9.033,9.033,0,0,1,19.049,40.1Zm10.59,20.052H12.47a28.86,28.86,0,0,0,1.535-8.639L18.289,55.8a7.894,7.894,0,0,0,6.722,2.273C25.195,58.773,25.394,59.47,25.629,60.155Zm2.788-5.981a6.019,6.019,0,0,1-8.711.208l-6.723-6.723a3.251,3.251,0,0,1,4.6-4.6L23.918,49.4l-.806,2.419,1.9.635.909-2.727,5.047-4.036.444-1.781a2.376,2.376,0,0,1,4.68.576,3.217,3.217,0,0,1-.839,2.171Zm27.727-.135V50.129H50.129v4.01H44.114v-4.01H38.1v3.907a5.037,5.037,0,0,1-3.763-3.391L36.738,48a5.206,5.206,0,0,0,1.081-1.885H60.155v3.008A5.021,5.021,0,0,1,56.145,54.038Z"/>
        <path id="Trazado_1065170" data-name="Trazado 1065170" d="M14.015,28.01v-1a3.008,3.008,0,0,0-6.015,0v1h2.005v-1a1,1,0,0,1,2.005,0v1Z" transform="translate(0.021 0.062)"/>
        <path id="Trazado_1065171" data-name="Trazado 1065171" d="M22.005,27.008a1,1,0,0,1,2.005,0v1h2.005v-1a3.008,3.008,0,0,0-6.015,0v1h2.005Z" transform="translate(0.052 0.062)"/>
        <path id="Trazado_1065172" data-name="Trazado 1065172" d="M22.021,32H20.015a2.007,2.007,0,0,1-2.005,2.005H14V36.01h4.01A4.014,4.014,0,0,0,22.021,32Z" transform="translate(0.036 0.083)"/>
        <path id="Trazado_1065173" data-name="Trazado 1065173" d="M8.01,44.207a3.758,3.758,0,0,0-1.279-2.8A1.824,1.824,0,0,1,6.005,40H4a3.752,3.752,0,0,0,1.279,2.794,1.738,1.738,0,0,1,0,2.825,3.694,3.694,0,0,0,0,5.591,1.741,1.741,0,0,1,0,2.829,3.7,3.7,0,0,0,0,5.6,1.834,1.834,0,0,1,.727,1.417v1H8.01v-1a3.767,3.767,0,0,0-1.278-2.8,1.743,1.743,0,0,1,0-2.832,3.7,3.7,0,0,0,0-5.594,1.736,1.736,0,0,1,0-2.824A3.761,3.761,0,0,0,8.01,44.207Z" transform="translate(0.01 0.103)"/>
      </g>
    </g>
  </g>
</svg>
