<svg xmlns="http://www.w3.org/2000/svg" xmlns:xlink="http://www.w3.org/1999/xlink" width="118" height="118" viewBox="0 0 118 118">
  <defs>
    <filter id="Elipse_12115" x="0" y="0" width="118" height="118" filterUnits="userSpaceOnUse">
      <feOffset dy="3" input="SourceAlpha"/>
      <feGaussianBlur stdDeviation="3" result="blur"/>
      <feFlood flood-opacity="0.161"/>
      <feComposite operator="in" in2="blur"/>
      <feComposite in="SourceGraphic"/>
    </filter>
  </defs>
  <g id="Grupo_1197964" data-name="Grupo 1197964" transform="translate(-1108.782 -1964.96)">
    <g id="Grupo_1184441" data-name="Grupo 1184441" transform="translate(309.001 -578.04)">
      <g transform="matrix(1, 0, 0, 1, 799.78, 2543)" filter="url(#Elipse_12115)">
        <g id="Elipse_12115-2" data-name="Elipse 12115" transform="translate(9 6)" fill="#cea499" stroke="#8f726a" stroke-width="3">
          <circle cx="50" cy="50" r="50" stroke="none"/>
          <circle cx="50" cy="50" r="48.5" fill="none"/>
        </g>
      </g>
    </g>
    <g id="Layer_3" data-name="Layer 3" transform="translate(1135.634 1988.701)">
      <path id="Trazado_1064952" data-name="Trazado 1064952" d="M56.452,9.189a.882.882,0,0,0-.624-.625A14.068,14.068,0,0,0,42.289,12.19a13.87,13.87,0,0,0-2.7,3.8.883.883,0,0,0,.017.8,13.654,13.654,0,0,1,1.6,6.149c.01.359,0,.689-.019,1.008a.882.882,0,0,0,.88.944h7.7a.881.881,0,0,0,.456-.127,13.752,13.752,0,0,0,2.6-2.047A14.063,14.063,0,0,0,56.452,9.189Z" transform="translate(-19.597 -4.014)" fill="#4db6ac"/>
      <path id="Trazado_1064953" data-name="Trazado 1064953" d="M50.632,25.247l-2.47-.662,2-2a.882.882,0,0,0-1.247-1.247l-2,2-.661-2.47a.882.882,0,1,0-1.7.456l.925,3.456-4.755,4.751a.882.882,0,0,0,1.246,1.248l4.757-4.752,3.453.924a.882.882,0,1,0,.454-1.7Z" transform="translate(-20.073 -10.026)" fill="#00695c"/>
      <path id="Trazado_1064954" data-name="Trazado 1064954" d="M43.389,19.158a17.557,17.557,0,0,0-1.418-2.244,13.844,13.844,0,0,0-2.381,3.457.883.883,0,0,0,.017.8,13.654,13.654,0,0,1,1.6,6.149c.01.359,0,.689-.019,1.008a.882.882,0,0,0,.879.944h3.285a3.384,3.384,0,0,0,.109-.643c.032-.457.041-.921.028-1.4a17.937,17.937,0,0,0-2.105-8.069Z" transform="translate(-19.598 -8.389)" fill="#26a69a"/>
      <path id="Trazado_1064955" data-name="Trazado 1064955" d="M45.42,29.381l-4.7,4.7a.882.882,0,0,0,1.246,1.248l3.854-3.85a18.032,18.032,0,0,0-.4-2.1Z" transform="translate(-20.073 -14.572)" fill="#004d40"/>
      <path id="Trazado_1064956" data-name="Trazado 1064956" d="M55.556,108.709H23.591a8.851,8.851,0,0,0-8.841,8.841.882.882,0,0,0,.882.882H63.515a.882.882,0,0,0,.882-.882A8.851,8.851,0,0,0,55.556,108.709Z" transform="translate(-7.321 -53.916)" fill="#495766"/>
      <path id="Trazado_1064957" data-name="Trazado 1064957" d="M98.883,8.662,91.2.978A3.339,3.339,0,0,0,86.477,5.7l.263.263L71.563,19.34a.882.882,0,0,0,.583,1.544H86.655a.882.882,0,0,0,.662-.3L93.9,13.121l.263.263a3.339,3.339,0,1,0,4.722-4.722Z" transform="translate(-35.35 0)" fill="#495766"/>
      <path id="Trazado_1064958" data-name="Trazado 1064958" d="M26.125,22.6A15.45,15.45,0,0,0,6.675,8.014a.883.883,0,0,0-.625.625,15.524,15.524,0,0,0,4,14.928,11.694,11.694,0,0,0,.915.833.881.881,0,0,0,.554.2h13.7a.883.883,0,0,0,.88-.822c.027-.375.033-.761.022-1.172Z" transform="translate(-2.749 -3.715)" fill="#4db6ac"/>
      <path id="Trazado_1064959" data-name="Trazado 1064959" d="M29.03,29.768l-3.818-3.818,1.041-3.888a.882.882,0,0,0-1.7-.456l-.779,2.908-2.336-2.336a.882.882,0,1,0-1.247,1.247l2.334,2.334-2.9.777a.882.882,0,1,0,.454,1.7l3.89-1.041,3.817,3.817a.882.882,0,1,0,1.247-1.247Z" transform="translate(-9.4 -10.392)" fill="#00695c"/>
      <path id="Trazado_1064960" data-name="Trazado 1064960" d="M61.114,37.93H3.4a3.406,3.406,0,0,0-3.4,3.4V52.875a22.518,22.518,0,0,0,22.49,22.5H42.026a22.518,22.518,0,0,0,22.49-22.5V41.332A3.406,3.406,0,0,0,61.114,37.93Z" transform="translate(-0.006 -18.812)" fill="#fec13b"/>
      <path id="Trazado_1064961" data-name="Trazado 1064961" d="M27.323,108.709a8.785,8.785,0,0,0-5.049,1.594,24.844,24.844,0,0,0,11.263,2.691H53.074A24.844,24.844,0,0,0,64.337,110.3a8.785,8.785,0,0,0-5.049-1.594Z" transform="translate(-11.053 -53.916)" fill="#303c47"/>
      <path id="Trazado_1064962" data-name="Trazado 1064962" d="M74.674,32.93l-3.111,2.742a.882.882,0,0,0,.583,1.544H86.655a.882.882,0,0,0,.662-.3l3.515-3.987Z" transform="translate(-35.35 -16.332)" fill="#303c47"/>
      <path id="Trazado_1064963" data-name="Trazado 1064963" d="M61.114,37.93H3.4a3.406,3.406,0,0,0-3.4,3.4V52.875a22.518,22.518,0,0,0,22.49,22.5H42.026a22.518,22.518,0,0,0,22.49-22.5V41.332A3.406,3.406,0,0,0,61.114,37.93Z" transform="translate(-0.006 -18.812)" fill="#fec13b"/>
      <path id="Trazado_1064964" data-name="Trazado 1064964" d="M4.452,52.875V41.332a3.2,3.2,0,0,1,2.932-3.4H3.4a3.406,3.406,0,0,0-3.4,3.4V52.875a22.518,22.518,0,0,0,22.49,22.5h1.348c-10.69,0-19.386-10.091-19.386-22.5Z" transform="translate(-0.006 -18.812)" fill="#ffa000"/>
      <path id="Trazado_1064965" data-name="Trazado 1064965" d="M101.142,37.93H97.16a3.2,3.2,0,0,1,2.932,3.4V52.875c0,12.4-8.7,22.5-19.386,22.5h1.348a22.518,22.518,0,0,0,22.49-22.5V41.332A3.406,3.406,0,0,0,101.142,37.93Z" transform="translate(-40.033 -18.812)" fill="#ffa000"/>
      <path id="Trazado_1064966" data-name="Trazado 1064966" d="M52.307,51.494A11.884,11.884,0,1,0,64.19,63.378,11.884,11.884,0,0,0,52.307,51.494Z" transform="translate(-20.054 -25.539)" fill="#4db6ac"/>
      <path id="Trazado_1064967" data-name="Trazado 1064967" d="M63.236,65.024H59.581V61.37a.882.882,0,0,0-.882-.882H54.835a.882.882,0,0,0-.882.882v3.654H50.3a.882.882,0,0,0-.882.882v3.862a.882.882,0,0,0,.882.882h3.654V74.3a.882.882,0,0,0,.882.882H58.7a.882.882,0,0,0,.882-.882V70.65h3.654a.882.882,0,0,0,.882-.882V65.906a.882.882,0,0,0-.882-.882Z" transform="translate(-24.515 -30)" fill="#ffecb3"/>
      <path id="Trazado_1064968" data-name="Trazado 1064968" d="M61.1,19.118H53.256l5.286-6,.263.263A3.339,3.339,0,1,0,63.527,8.66l-2.8-2.8A.882.882,0,0,0,59.476,7.1l2.8,2.8a1.577,1.577,0,0,1,0,2.227,1.613,1.613,0,0,1-2.228,0l-.927-.926a.893.893,0,0,0-1.285.041L50.9,19.118H39.127L53.254,6.665a.893.893,0,0,0,.04-1.285l-.926-.927a1.576,1.576,0,0,1,0-2.227,1.613,1.613,0,0,1,2.227,0L57.072,4.7a.882.882,0,0,0,1.247-1.247L55.841.978A3.339,3.339,0,1,0,51.119,5.7l.263.262L36.459,19.118h-3.67c.146-.135.293-.269.434-.41A14.063,14.063,0,0,0,36.848,5.175a.882.882,0,0,0-.625-.624A14.067,14.067,0,0,0,22.686,8.177a13.9,13.9,0,0,0-1.937,2.443A15.411,15.411,0,0,0,3.918,4.3a.883.883,0,0,0-.624.625A15.534,15.534,0,0,0,6.607,19.118H3.39a3.406,3.406,0,0,0-3.4,3.4V34.062A22.527,22.527,0,0,0,14.314,55.017a8.852,8.852,0,0,0-6.892,8.619.882.882,0,0,0,.882.882H21.1a.882.882,0,1,0,0-1.764H9.242a7.088,7.088,0,0,1,7.023-6.2H48.23a7.088,7.088,0,0,1,7.021,6.194H32.246a.882.882,0,0,0,0,1.764H56.188a.882.882,0,0,0,.882-.882,8.852,8.852,0,0,0-6.892-8.619A22.527,22.527,0,0,0,64.5,34.062V22.52a3.406,3.406,0,0,0-3.4-3.4ZM23.936,9.425A12.3,12.3,0,0,1,35.269,6.134a12.294,12.294,0,0,1-3.291,11.329,12.054,12.054,0,0,1-2.065,1.655h-6.39L26.643,16l3.454.924a.882.882,0,1,0,.454-1.7l-2.47-.661,2-2a.882.882,0,1,0-1.247-1.247l-2,2-.661-2.47a.882.882,0,1,0-1.7.456l.925,3.456L23.2,16.945a15.447,15.447,0,0,0-1.433-4.587,12.109,12.109,0,0,1,2.166-2.933Zm-15.4,9.18A13.76,13.76,0,0,1,4.876,5.879,13.688,13.688,0,0,1,21.607,18.931v.187H19.366l-3.559-3.559,1.041-3.888a.882.882,0,1,0-1.7-.456l-.778,2.908-2.337-2.336a.882.882,0,1,0-1.248,1.247l2.334,2.334-2.9.777a.882.882,0,1,0,.454,1.7l3.893-1.041,2.312,2.312H9.085c-.173-.152-.353-.321-.545-.513Zm54.2,15.457a20.752,20.752,0,0,1-20.707,20.73H22.459A20.752,20.752,0,0,1,1.752,34.062V22.52A1.64,1.64,0,0,1,3.39,20.882H61.1A1.64,1.64,0,0,1,62.74,22.52Z"/>
      <path id="Trazado_1064969" data-name="Trazado 1064969" d="M52.295,51.494A11.884,11.884,0,1,0,64.178,63.378,11.884,11.884,0,0,0,52.295,51.494Zm0,22a10.12,10.12,0,1,1,10.12-10.12A10.12,10.12,0,0,1,52.295,73.5Z" transform="translate(-20.048 -25.539)"/>
      <path id="Trazado_1064970" data-name="Trazado 1064970" d="M63.223,65.024H59.569V61.37a.882.882,0,0,0-.882-.882H54.822a.882.882,0,0,0-.882.882v3.654H50.286a.882.882,0,0,0-.882.882v3.862a.882.882,0,0,0,.882.882h3.652V74.3a.882.882,0,0,0,.882.882h3.864a.882.882,0,0,0,.882-.882V70.65h3.654a.882.882,0,0,0,.882-.882V65.906A.882.882,0,0,0,63.223,65.024Zm-.882,3.864H58.687a.882.882,0,0,0-.882.882v3.654H55.7V69.768a.882.882,0,0,0-.882-.882H51.166v-2.1H54.82a.882.882,0,0,0,.882-.882V62.252h2.1v3.654a.882.882,0,0,0,.882.882h3.654Z" transform="translate(-24.509 -30)"/>
      <path id="Trazado_1064971" data-name="Trazado 1064971" d="M52.08,126.264a.882.882,0,0,0,0-1.764H49.74a.882.882,0,1,0,0,1.764Z" transform="translate(-24.238 -61.748)"/>
    </g>
  </g>
</svg>
