<svg xmlns="http://www.w3.org/2000/svg" xmlns:xlink="http://www.w3.org/1999/xlink" width="118" height="118" viewBox="0 0 118 118">
  <defs>
    <filter id="Elipse_12115" x="0" y="0" width="118" height="118" filterUnits="userSpaceOnUse">
      <feOffset dy="3" input="SourceAlpha"/>
      <feGaussianBlur stdDeviation="3" result="blur"/>
      <feFlood flood-opacity="0.161"/>
      <feComposite operator="in" in2="blur"/>
      <feComposite in="SourceGraphic"/>
    </filter>
  </defs>
  <g id="Grupo_1197996" data-name="Grupo 1197996" transform="translate(-3566.731 9643.04)">
    <g id="Grupo_1184443" data-name="Grupo 1184443" transform="translate(2766.95 -12186.04)">
      <g transform="matrix(1, 0, 0, 1, 799.78, 2543)" filter="url(#Elipse_12115)">
        <g id="Elipse_12115-2" data-name="Elipse 12115" transform="translate(9 6)" fill="#cea499" stroke="#8f726a" stroke-width="3">
          <circle cx="50" cy="50" r="50" stroke="none"/>
          <circle cx="50" cy="50" r="48.5" fill="none"/>
        </g>
      </g>
    </g>
    <g id="_14-analysis" data-name="14-analysis" transform="translate(3594 -9621)">
      <path id="Trazado_1065210" data-name="Trazado 1065210" d="M10.75,59a4.876,4.876,0,0,0-.53.67L8,63l-.67,1H0V58.88H10.87Z" fill="#a67c52"/>
      <path id="Trazado_1065211" data-name="Trazado 1065211" d="M0,58.88H4V64H0Z" fill="#b89675"/>
      <path id="Trazado_1065212" data-name="Trazado 1065212" d="M26,54.36a1.538,1.538,0,0,0-.17-.19,4.008,4.008,0,0,0-5.66,0,1.537,1.537,0,0,0-.17.19A4,4,0,0,0,19,57a3.939,3.939,0,0,0,.47,1.88,4,4,0,0,0,7.06,0A3.939,3.939,0,0,0,27,57,4,4,0,0,0,26,54.36Z" fill="#736357"/>
      <path id="Trazado_1065213" data-name="Trazado 1065213" d="M23,53a4,4,0,0,1,0,8" fill="#534741"/>
      <path id="Trazado_1065214" data-name="Trazado 1065214" d="M38,63l-2.22-3.33a4.876,4.876,0,0,0-.53-.67l-.12-.12A5.935,5.935,0,0,0,30.79,57H27a3.939,3.939,0,0,1-.47,1.88,4,4,0,0,1-7.06,0A3.939,3.939,0,0,1,19,57H15.21a5.935,5.935,0,0,0-4.34,1.88l-.12.12a4.876,4.876,0,0,0-.53.67L8,63l-.67,1H38.67Z" fill="#534741"/>
      <path id="Trazado_1065215" data-name="Trazado 1065215" d="M38,63l-2.22-3.33a4.876,4.876,0,0,0-.53-.67l-.12-.12A5.935,5.935,0,0,0,30.79,57H27c0,.1-.011.2-.019.3a5.918,5.918,0,0,1,2.479,1.58l.12.12a4.876,4.876,0,0,1,.53.67L32.33,63,33,64h5.67Z" fill="#3e3531"/>
      <path id="Trazado_1065216" data-name="Trazado 1065216" d="M7.981,63l2.22-3.33a4.876,4.876,0,0,1,.53-.67l.12-.12A5.935,5.935,0,0,1,15.191,57h3.79c0,.1.012.2.019.3a5.918,5.918,0,0,0-2.479,1.58L16.4,59a4.876,4.876,0,0,0-.53.67L13.651,63l-.67,1H7.311Z" fill="#6b625b"/>
      <path id="Trazado_1065217" data-name="Trazado 1065217" d="M42,7H58V46H42Z" fill="#a3dee3"/>
      <path id="Trazado_1065218" data-name="Trazado 1065218" d="M45,31v7H39a2.006,2.006,0,0,1-2-2V33a2.015,2.015,0,0,1,2-2Z" fill="#c76f28"/>
      <path id="Trazado_1065219" data-name="Trazado 1065219" d="M57,19v7H39a2.006,2.006,0,0,1-2-2V21a2.015,2.015,0,0,1,2-2Z" fill="#0071bc"/>
      <path id="Trazado_1065220" data-name="Trazado 1065220" d="M50,7v7H39a2.006,2.006,0,0,1-2-2V9a2.015,2.015,0,0,1,2-2Z" fill="#dd5757"/>
      <path id="Trazado_1065221" data-name="Trazado 1065221" d="M46,7h4v7H46Z" fill="#a64141"/>
      <path id="Trazado_1065222" data-name="Trazado 1065222" d="M53,19h4v7H53Z" fill="#00558d"/>
      <path id="Trazado_1065223" data-name="Trazado 1065223" d="M41,31h4v7H41Z" fill="#95531e"/>
      <path id="Trazado_1065224" data-name="Trazado 1065224" d="M35.13,58.88H64V64H38.67L38,63l-2.22-3.33a4.876,4.876,0,0,0-.53-.67Z" fill="#a67c52"/>
      <path id="Trazado_1065225" data-name="Trazado 1065225" d="M54,58.88H64V64H54Z" fill="#7d5d3e"/>
      <path id="Trazado_1065226" data-name="Trazado 1065226" d="M63,9v3a2.006,2.006,0,0,1-2,2H50V7H61A2.006,2.006,0,0,1,63,9Z" fill="#d6d6d6"/>
      <path id="Trazado_1065227" data-name="Trazado 1065227" d="M63,21v3a2.006,2.006,0,0,1-2,2H57V19h4a2.006,2.006,0,0,1,2,2Z" fill="#d6d6d6"/>
      <path id="Trazado_1065228" data-name="Trazado 1065228" d="M63,33v3a2.006,2.006,0,0,1-2,2H45V31H61A2.006,2.006,0,0,1,63,33Z" fill="#d6d6d6"/>
      <path id="Trazado_1065229" data-name="Trazado 1065229" d="M20,54.36l1.5-25.78.09.03A9,9,0,0,0,23,29a9.77,9.77,0,0,0,1.5-.42L26,54.36a1.538,1.538,0,0,0-.17-.19,4.008,4.008,0,0,0-5.66,0,1.537,1.537,0,0,0-.17.19Z" fill="#c69c6d"/>
      <path id="Trazado_1065230" data-name="Trazado 1065230" d="M23,29a9.77,9.77,0,0,0,1.5-.42L26,54.36a1.538,1.538,0,0,0-.17-.19A4.025,4.025,0,0,0,23,53Z" fill="#957552"/>
      <path id="Trazado_1065231" data-name="Trazado 1065231" d="M24.1,1.78C26.51,3.62,32,8.75,32,17c0,7.82-4.94,10.64-7.5,11.58A9.77,9.77,0,0,1,23,29V2Z" fill="#009245"/>
      <path id="Trazado_1065232" data-name="Trazado 1065232" d="M14,17C14,6.44,23,1,23,1a12.882,12.882,0,0,1,1.1.78L23,2V29a9,9,0,0,1-1.41-.39l-.09-.03C18.95,27.65,14,24.83,14,17Z" fill="#8cc63f"/>
      <path id="Trazado_1065233" data-name="Trazado 1065233" d="M1,28s19.54-4.19,19.54,17L15,40.18l-3-2.61Z" fill="#8cc63f"/>
      <path id="Trazado_1065234" data-name="Trazado 1065234" d="M1,28l11,9.57,3,2.61L20.54,45S1,50.55,1,28Z" fill="#009245"/>
      <g id="Grupo_1197995" data-name="Grupo 1197995">
        <path id="Trazado_1065235" data-name="Trazado 1065235" d="M61,6H39a3.015,3.015,0,0,0-3,3v3a3,3,0,0,0,3,3H61a3,3,0,0,0,3-3V9A3,3,0,0,0,61,6ZM38,12V9a.974.974,0,0,1,.306-.712A.957.957,0,0,1,39,8H49v5H39A1,1,0,0,1,38,12Zm24,0a1,1,0,0,1-1,1H51V8H61a1,1,0,0,1,1,1Z" fill="#202020"/>
        <path id="Trazado_1065236" data-name="Trazado 1065236" d="M61,18H39a3.015,3.015,0,0,0-3,3v3a3,3,0,0,0,3,3H61a3,3,0,0,0,3-3V21A3,3,0,0,0,61,18ZM38,24V21a.974.974,0,0,1,.306-.712A.957.957,0,0,1,39,20H56v5H39A1,1,0,0,1,38,24Zm24,0a1,1,0,0,1-1,1H58V20h3a1,1,0,0,1,1,1Z" fill="#202020"/>
        <path id="Trazado_1065237" data-name="Trazado 1065237" d="M61,30H39a3.015,3.015,0,0,0-3,3v3a3,3,0,0,0,3,3H61a3,3,0,0,0,3-3V33A3,3,0,0,0,61,30ZM38,36V33a.974.974,0,0,1,.306-.712A.957.957,0,0,1,39,32h5v5H39A1,1,0,0,1,38,36Zm24,0a1,1,0,0,1-1,1H46V32H61a1,1,0,0,1,1,1Z" fill="#202020"/>
        <path id="Trazado_1065238" data-name="Trazado 1065238" d="M48.413,52.413A1.983,1.983,0,0,1,47,53H42a1,1,0,0,0,0,2h5a4,4,0,0,0,4-4V47h7a1,1,0,0,0,1-1V43a1,1,0,0,0-2,0v2H43V43a1,1,0,0,0-2,0v3a1,1,0,0,0,1,1h7v4a1.986,1.986,0,0,1-.587,1.413Z" fill="#202020"/>
        <path id="Trazado_1065239" data-name="Trazado 1065239" d="M63,58H35.656a6.952,6.952,0,0,0-4.866-2h-2.9a5.013,5.013,0,0,0-.906-1.985L25.54,29.235C28.23,28.059,33,24.867,33,17,33,8.266,27.2,2.894,24.71.987A13.618,13.618,0,0,0,23.517.144a1,1,0,0,0-1.034,0C22.1.378,13,6,13,17c0,7.881,4.769,11.066,7.46,12.237l-.4,6.878a14.264,14.264,0,0,0-4.3-6.008C9.673,25.189,1.15,26.945.791,27.022a.921.921,0,0,0-.126.051,1.039,1.039,0,0,0-.143.057.966.966,0,0,0-.214.166c-.019.019-.045.027-.062.048l-.008.014a.973.973,0,0,0-.182.319c-.011.034-.01.069-.018.1A1,1,0,0,0,0,28v.069C.013,35.42,2.059,40.692,6.085,43.733a15.577,15.577,0,0,0,9.471,2.878,21.947,21.947,0,0,0,3.913-.355l-.451,7.753A5.013,5.013,0,0,0,18.112,56h-2.9a6.941,6.941,0,0,0-4.868,2H1a1,1,0,1,0,0,2H8.8L7.17,62.445a1,1,0,1,0,1.664,1.11l2.221-3.331a3.776,3.776,0,0,1,.4-.516l.143-.143A4.945,4.945,0,0,1,15.21,58h2.9a4.816,4.816,0,0,0,.479,1.352,5,5,0,0,0,8.819.007A4.842,4.842,0,0,0,27.891,58h2.9a4.97,4.97,0,0,1,3.633,1.587l.1.1a3.866,3.866,0,0,1,.422.535l2.22,3.33a1,1,0,1,0,1.664-1.11L37.2,60H63a1,1,0,1,0,0-2ZM22.425,29.9c.232.055.386.082.417.087a.973.973,0,0,0,.323,0c.012,0,.163-.028.41-.087l1.308,22.47a4.968,4.968,0,0,0-3.765,0ZM15,17c0-7.239,4.552-11.984,7-14.014V20a1,1,0,0,0,2,0V2.977C26.448,4.982,31,9.693,31,17c0,7.072-4.289,9.7-6.835,10.638L24,27.693V25a1,1,0,0,0-2,0v2.693l-.157-.052C19.287,26.708,15,24.086,15,17ZM7.284,42.131c-3.093-2.342-4.823-6.338-5.192-11.856l9.252,8.05a1,1,0,1,0,1.312-1.51l-9.3-8.1c2.731-.182,7.533.012,11.159,2.951,2.906,2.354,4.55,6.074,4.931,11.046l-3.785-3.292a1,1,0,1,0-1.312,1.51L18.331,44.4c-2.619.361-7.385.505-11.047-2.269ZM25.648,58.408a3,3,0,0,1-5.3-.008A2.917,2.917,0,0,1,20,57a3.016,3.016,0,0,1,.753-1.981c.022-.027.1-.109.119-.137A3.018,3.018,0,0,1,23,54a3.068,3.068,0,0,1,2.184.938c.02.028.041.054.063.081A3.016,3.016,0,0,1,26,57a2.929,2.929,0,0,1-.352,1.408Z" fill="#202020"/>
        <path id="Trazado_1065240" data-name="Trazado 1065240" d="M36,55h2a1,1,0,0,0,0-2H36a1,1,0,0,0,0,2Z" fill="#202020"/>
      </g>
    </g>
  </g>
</svg>
