<svg xmlns="http://www.w3.org/2000/svg" width="63.307" height="59.193" viewBox="0 0 63.307 59.193">
  <g id="tectonic_16891983" transform="translate(0 0)">
    <g id="Grupo_1182270" data-name="Grupo 1182270" transform="translate(0.897 12.875)">
      <path id="Trazado_1048855" data-name="Trazado 1048855" d="M226.237,129.844a3.432,3.432,0,0,1-1.793-.9l-2.948-2.805a5.881,5.881,0,0,0-4.054-1.621h-7.887a7.5,7.5,0,0,0-3.6.922l-5.655,3.1a8.325,8.325,0,0,1-2.726.925l-.952.147a4.937,4.937,0,0,0-4.183,4.879v35.9H231.21v-39.7Z" transform="translate(-169.697 -124.52)" fill="#afe269" fill-rule="evenodd"/>
      <path id="Trazado_1048856" data-name="Trazado 1048856" d="M225.73,204.727V171.68a3.85,3.85,0,0,1,3.263-3.805l.742-.115a6.489,6.489,0,0,0,2.126-.721l4.411-2.415a5.851,5.851,0,0,1,2.81-.719h6.151a4.587,4.587,0,0,1,3.162,1.264l2.3,2.188a2.677,2.677,0,0,0,1.4.7c.644.109,5.7,1.039,8.146,1.489v35.181Z" transform="translate(-198.724 -158.858)" fill="#d5a889" fill-rule="evenodd"/>
      <path id="Trazado_1048857" data-name="Trazado 1048857" d="M225.73,240.431h34.508v9.6H225.73Z" transform="translate(-198.724 -225.577)" fill="#b9835e" fill-rule="evenodd"/>
      <path id="Trazado_1048858" data-name="Trazado 1048858" d="M225.73,390.249h34.508v11.816H225.73Z" transform="translate(-198.724 -356.195)" fill="#efc7a4" fill-rule="evenodd"/>
      <path id="Trazado_1048859" data-name="Trazado 1048859" d="M41.689,206.571a7.631,7.631,0,0,1-2.538-2.706l-3.414-6.221a4.852,4.852,0,0,0-4.281-2.4H15v36.806H56.3l-4.179-7.827a3.33,3.33,0,0,1-.4-1.571v-7.925a3.07,3.07,0,0,0-1.447-2.558l-8.585-5.6Z" transform="translate(-15 -186.178)" fill="#c6ea94" fill-rule="evenodd"/>
      <path id="Trazado_1048860" data-name="Trazado 1048860" d="M15,230.343H29.445a4.26,4.26,0,0,1,3.757,2.109l3,5.461a6.7,6.7,0,0,0,2.228,2.375l7.536,4.912a2.7,2.7,0,0,1,1.27,2.245V254.4a2.922,2.922,0,0,0,.349,1.379l3.669,6.87H15Z" transform="translate(-15 -216.782)" fill="#d5a889" fill-rule="evenodd"/>
      <path id="Trazado_1048861" data-name="Trazado 1048861" d="M47.147,358.708a2.52,2.52,0,0,1,.086.652v6.956a2.893,2.893,0,0,0,.146.906H15v-8.514Z" transform="translate(-15 -328.696)" fill="#d5a889" fill-rule="evenodd"/>
      <path id="Trazado_1048862" data-name="Trazado 1048862" d="M36.417,292.27a6.759,6.759,0,0,0,2.01,2.009l7.536,4.912a2.771,2.771,0,0,1,1.184,1.593H15V292.27Z" transform="translate(-15 -270.773)" fill="#b9835e" fill-rule="evenodd"/>
      <path id="Trazado_1048863" data-name="Trazado 1048863" d="M47.379,425.146a3.005,3.005,0,0,0,.2.473l3.669,6.87H15v-7.344Z" transform="translate(-15 -386.62)" fill="#efc7a4" fill-rule="evenodd"/>
    </g>
    <path id="Trazado_1048864" data-name="Trazado 1048864" d="M8,82.345V45.539a.9.9,0,0,1,.9-.9H25.354a5.754,5.754,0,0,1,5.067,2.868l.318.58V46.445a5.834,5.834,0,0,1,4.943-5.766l.952-.147a7.426,7.426,0,0,0,2.432-.825l5.655-3.1a8.4,8.4,0,0,1,4.033-1.032h7.887a6.778,6.778,0,0,1,4.673,1.868l2.948,2.805a2.533,2.533,0,0,0,1.324.663l4.974.842a.9.9,0,0,1,.747.884v39.7a.9.9,0,0,1-.9.9H8.9A.9.9,0,0,1,8,82.345ZM32.533,51.359l1.3,2.372a6.514,6.514,0,0,0,1.171,1.531V49.3a4.747,4.747,0,0,1,4.023-4.692l.742-.115A5.594,5.594,0,0,0,41.6,43.87l4.411-2.415a6.748,6.748,0,0,1,3.241-.829h6.151a5.484,5.484,0,0,1,3.781,1.512l2.3,2.188a1.779,1.779,0,0,0,.929.465c.672.114,5.2.947,7.1,1.3V43.4l-4.226-.715a4.328,4.328,0,0,1-2.262-1.132l-2.948-2.805a4.985,4.985,0,0,0-3.436-1.374H48.755a6.6,6.6,0,0,0-3.172.811l-5.655,3.1a9.22,9.22,0,0,1-3.02,1.025l-.952.147a4.04,4.04,0,0,0-3.423,3.993Zm4.267,5.23,5.284,3.444h27.43V52.227H36.8Zm8.028,5.238a3.943,3.943,0,0,1,1.688,3.2v4.61h23V61.827Zm-.106,11.12V65.022a2.179,2.179,0,0,0-1.04-1.807L35.1,57.62a8.525,8.525,0,0,1-2.834-3.026l-3.414-6.221a3.951,3.951,0,0,0-3.494-1.937H9.794v2.7H23.342a5.161,5.161,0,0,1,4.544,2.575l3,5.461a5.8,5.8,0,0,0,1.931,2.055l7.536,4.912a3.587,3.587,0,0,1,1.677,3V74.1a2.027,2.027,0,0,0,.243.956l3.415,6.4H48.7l-3.475-6.508a4.224,4.224,0,0,1-.5-1.994ZM69.513,50.433v-2.52c-1.638-.3-6.686-1.233-7.4-1.353a3.573,3.573,0,0,1-1.867-.935l-2.3-2.188a3.69,3.69,0,0,0-2.544-1.017H49.254a4.954,4.954,0,0,0-2.379.609l-4.411,2.415a7.391,7.391,0,0,1-2.42.821l-.742.115A2.954,2.954,0,0,0,36.8,49.3v1.135ZM50.733,81.448h18.78V71.427h-23v1.521a2.435,2.435,0,0,0,.292,1.148Zm-40.939,0H43.652L40.688,75.9H9.794Zm0-14.064V74.1H40.233v-6.72Zm0-8.514v6.72H39.285l-7.451-4.856a7.722,7.722,0,0,1-1.991-1.864Zm0-7.936v6.142H28.782l-2.469-4.5a3.358,3.358,0,0,0-2.971-1.644Zm13.33-13.157-1.918-1.329a.9.9,0,1,1,1.022-1.475L26.5,37.937a.9.9,0,0,1,0,1.475l-4.276,2.963A.9.9,0,1,1,21.206,40.9l1.918-1.329h-9.6a.9.9,0,1,1,0-1.794Zm32.71-10.765h9.6a.9.9,0,1,1,0,1.794h-9.6l1.918,1.329A.9.9,0,1,1,56.73,31.61l-4.276-2.963a.9.9,0,0,1,0-1.475l4.276-2.963a.9.9,0,1,1,1.022,1.475Z" transform="translate(-8 -24.049)" fill-rule="evenodd"/>
  </g>
</svg>
