<svg xmlns="http://www.w3.org/2000/svg" width="59.166" height="59.193" viewBox="0 0 59.166 59.193">
  <g id="forest_5705849" transform="translate(0 0)">
    <g id="Grupo_1182277" data-name="Grupo 1182277" transform="translate(0.867 0.867)">
      <g id="Grupo_1182271" data-name="Grupo 1182271" transform="translate(26.57 0)">
        <path id="Trazado_1048865" data-name="Trazado 1048865" d="M257.315,32.394a10.106,10.106,0,0,1-2.7,4.664,10.006,10.006,0,0,1-1.912,1.472,9.806,9.806,0,0,1-5.045,1.377,10.006,10.006,0,0,1-9.662-7.512,11.973,11.973,0,0,1,1.83-10.763,11.96,11.96,0,0,0,1.814-3.525l2.587-8.1a3.6,3.6,0,0,1,6.86,0l2.586,8.1a11.949,11.949,0,0,0,1.679,3.338c.044.062.09.125.136.187a11.982,11.982,0,0,1,1.829,10.763Z" transform="translate(-237.44 -7.5)" fill="#fccd7f"/>
      </g>
      <g id="Grupo_1182272" data-name="Grupo 1182272" transform="translate(42.951 11.611)">
        <path id="Trazado_1048866" data-name="Trazado 1048866" d="M382.456,156.35a11.964,11.964,0,0,1,.168,7.685,10.106,10.106,0,0,1-2.7,4.664,6.752,6.752,0,0,1-.417-1.157,8.07,8.07,0,0,1,1.234-7.259,8.081,8.081,0,0,0,1.223-2.377Z" transform="translate(-379.13 -150.752)" fill="#bbec6c"/>
        <path id="Trazado_1048867" data-name="Trazado 1048867" d="M434.357,124.719a6.747,6.747,0,0,1-6.516,5.066,6.573,6.573,0,0,1-1.421-.149,6.779,6.779,0,0,0,5.1-4.917,8.074,8.074,0,0,0-1.234-7.259,8.053,8.053,0,0,1-1.223-2.377l-1.745-5.463a2.418,2.418,0,0,0-.894-1.231,2.43,2.43,0,0,1,3.735,1.231l1.745,5.463a8.128,8.128,0,0,0,1.223,2.377,8.074,8.074,0,0,1,1.234,7.259Z" transform="translate(-420.953 -107.93)" fill="#bbec6c"/>
      </g>
      <g id="Grupo_1182273" data-name="Grupo 1182273" transform="translate(40.109 13.943)">
        <path id="Trazado_1048868" data-name="Trazado 1048868" d="M360.886,139.051a10.106,10.106,0,0,1-2.7,4.664,10,10,0,0,1-1.912,1.472,6.826,6.826,0,0,1-1.347-2.629,8.07,8.07,0,0,1,1.234-7.259,8.082,8.082,0,0,0,1.223-2.377l1.54-4.821c.044.062.09.125.136.187a11.982,11.982,0,0,1,1.829,10.763Z" transform="translate(-354.55 -128.1)" fill="#f4b869"/>
      </g>
      <path id="Trazado_1048869" data-name="Trazado 1048869" d="M318.051,21.631a11.974,11.974,0,0,1-1.815-3.525l-2.587-8.1a3.6,3.6,0,0,0-5.466-1.872,3.594,3.594,0,0,1,1.4,1.872l2.587,8.1a11.969,11.969,0,0,0,1.815,3.525,11.972,11.972,0,0,1,1.829,10.763,10.05,10.05,0,0,1-7.626,7.305,9.779,9.779,0,0,0,2.035.207,10,10,0,0,0,9.661-7.512A11.972,11.972,0,0,0,318.051,21.631Z" transform="translate(-273.435 -7.5)" fill="#f4b869"/>
      <path id="Trazado_1048870" data-name="Trazado 1048870" d="M15.78,92.123l-1.3-4.071a1.81,1.81,0,0,0-3.448,0l-1.3,4.071A6.018,6.018,0,0,1,8.82,93.9,6.017,6.017,0,0,0,7.9,99.3a5.01,5.01,0,0,0,9.711,0,6.017,6.017,0,0,0-.919-5.41,6.021,6.021,0,0,1-.912-1.772Z" transform="translate(-7.623 -77.626)" fill="#fccd7f"/>
      <path id="Trazado_1048871" data-name="Trazado 1048871" d="M40.394,93.895a6.018,6.018,0,0,1-.912-1.772l-1.3-4.071a1.81,1.81,0,0,0-3.448,0l-.311.974.989,3.1a6.018,6.018,0,0,0,.912,1.772,6.017,6.017,0,0,1,.919,5.41,5.071,5.071,0,0,1-2.82,3.343,4.918,4.918,0,0,0,2.035.432A5.028,5.028,0,0,0,41.314,99.3,6.018,6.018,0,0,0,40.394,93.895Z" transform="translate(-31.324 -77.626)" fill="#f4b869"/>
      <g id="Grupo_1182274" data-name="Grupo 1182274" transform="translate(8.494 3.758)">
        <path id="Trazado_1048872" data-name="Trazado 1048872" d="M98.032,51.076l-2.7-8.456a3.759,3.759,0,0,0-7.162,0l-2.7,8.456a12.5,12.5,0,0,1-1.894,3.68,12.5,12.5,0,0,0-1.909,11.236,10.406,10.406,0,0,0,20.17,0,12.5,12.5,0,0,0-1.909-11.236A12.5,12.5,0,0,1,98.032,51.076Z" transform="translate(-81.088 -40.005)" fill="#bbec6c"/>
      </g>
      <path id="Trazado_1048873" data-name="Trazado 1048873" d="M165.922,54.757a12.5,12.5,0,0,1-1.894-3.68l-2.7-8.456a3.756,3.756,0,0,0-5.616-2.015,3.753,3.753,0,0,1,1.546,2.015l2.7,8.456a12.5,12.5,0,0,0,1.894,3.68,12.5,12.5,0,0,1,1.909,11.236,10.488,10.488,0,0,1-8.05,7.643,10.216,10.216,0,0,0,2.035.2,10.444,10.444,0,0,0,10.085-7.842A12.5,12.5,0,0,0,165.922,54.757Z" transform="translate(-138.59 -36.248)" fill="#a2e62e"/>
      <g id="Grupo_1182275" data-name="Grupo 1182275" transform="translate(42.951 11.611)">
        <path id="Trazado_1048874" data-name="Trazado 1048874" d="M390.078,115.084l-1.745-5.463a2.429,2.429,0,0,0-4.627,0l-1.744,5.463a8.073,8.073,0,0,1-1.224,2.377,8.074,8.074,0,0,0-1.234,7.259,6.723,6.723,0,0,0,13.031,0,8.074,8.074,0,0,0-1.234-7.259A8.069,8.069,0,0,1,390.078,115.084Z" transform="translate(-379.131 -107.931)" fill="#bbec6c"/>
      </g>
      <path id="Trazado_1048875" data-name="Trazado 1048875" d="M433.128,117.461a8.073,8.073,0,0,1-1.224-2.377l-1.745-5.463a2.428,2.428,0,0,0-3.734-1.23,2.424,2.424,0,0,1,.893,1.23l1.744,5.463a8.074,8.074,0,0,0,1.224,2.377,8.074,8.074,0,0,1,1.234,7.259,6.779,6.779,0,0,1-5.095,4.917,6.594,6.594,0,0,0,1.421.149,6.747,6.747,0,0,0,6.516-5.066A8.075,8.075,0,0,0,433.128,117.461Z" transform="translate(-378.006 -96.32)" fill="#a2e62e"/>
      <path id="Trazado_1048876" data-name="Trazado 1048876" d="M7.622,262.906s3.6.8,4.123,4.183c0,0,4.41-.692,4.931,4.227,0,0,3.59.245,4.31,4.836L7.622,278.4Z" transform="translate(-7.622 -233.378)" fill="#22b27f"/>
      <path id="Trazado_1048877" data-name="Trazado 1048877" d="M16.676,271.315c-.521-4.919-4.931-4.227-4.931-4.227-.524-3.379-4.123-4.183-4.123-4.183v3.9c.02.092.038.185.052.28,0,0,4.41-.692,4.931,4.227,0,0,3.59.245,4.31,4.836l-9.293,1.564v.685l13.363-2.249C20.265,271.561,16.676,271.315,16.676,271.315Z" transform="translate(-7.622 -233.378)" fill="#09a76d"/>
      <path id="Trazado_1048878" data-name="Trazado 1048878" d="M266.787,349.6s-.842-4.12,3.352-3.91c0,0,.524-5.452,7.654-5.662s8.81,3.273,8.81,3.273a12.05,12.05,0,0,1,7.591-2.644V349.6L271.04,352.03Z" transform="translate(-236.763 -301.576)" fill="#22b27f"/>
      <g id="Grupo_1182276" data-name="Grupo 1182276" transform="translate(39.423 38.443)">
        <path id="Trazado_1048879" data-name="Trazado 1048879" d="M356.551,345.012l2.476-1.711s-1.68-3.482-8.81-3.273a12.269,12.269,0,0,0-1.608.149A11.964,11.964,0,0,1,356.551,345.012Z" transform="translate(-348.61 -340.019)" fill="#09a76d"/>
      </g>
      <path id="Trazado_1048880" data-name="Trazado 1048880" d="M301.4,396.927v12.437H274.87l3.38-7.005S286.153,396.927,301.4,396.927Z" transform="translate(-243.973 -351.905)" fill="#d86f56"/>
      <path id="Trazado_1048881" data-name="Trazado 1048881" d="M7.622,368.406V384.14H49.8S39.086,368.406,7.622,368.406Z" transform="translate(-7.622 -326.681)" fill="#bbec6c"/>
      <path id="Trazado_1048882" data-name="Trazado 1048882" d="M7.622,368.406v.091c28.324,1.276,38.11,15.643,38.11,15.643H49.8S39.086,368.406,7.622,368.406Z" transform="translate(-7.622 -326.681)" fill="#a2e62e"/>
    </g>
    <g id="Grupo_1182278" data-name="Grupo 1182278" transform="translate(0 -0.001)">
      <path id="Trazado_1048883" data-name="Trazado 1048883" d="M58.42,57.459H43.6a27.434,27.434,0,0,0-4.226-4.213c-.7-.575-1.527-1.209-2.485-1.873A32.224,32.224,0,0,1,41.488,49.4a51.8,51.8,0,0,1,16.932-2.64.867.867,0,1,0,0-1.734,60.548,60.548,0,0,0-6.724.368V43.013a11.257,11.257,0,0,1,6.7-2.2h.021a.867.867,0,0,0,.02-1.734A12.694,12.694,0,0,0,51.7,40.929V35.152a7.614,7.614,0,0,0,6.482-5.645A8.963,8.963,0,0,0,56.8,21.489a7.188,7.188,0,0,1-1.093-2.122L53.968,13.9a3.3,3.3,0,0,0-6.279,0l-.577,1.806a17.9,17.9,0,0,1-2.5-4.5l-2.586-8.1a4.468,4.468,0,0,0-8.512,0l-2.587,8.1a11.068,11.068,0,0,1-1.683,3.27,12.79,12.79,0,0,0-1.418,2.41,11.61,11.61,0,0,1-.577-1.455l-2.7-8.456a4.626,4.626,0,0,0-8.814,0l-2.7,8.455a11.6,11.6,0,0,1-1.366,2.855c-.359-1.095-1.287-1.905-1.7-3.186l-1.3-4.07A2.669,2.669,0,0,0,6.121,9.167a2.732,2.732,0,0,0-2.55,1.864L2.272,15.1a5.137,5.137,0,0,1-.781,1.516A6.889,6.889,0,0,0,.433,22.785a5.9,5.9,0,0,0,4.822,4.341v5.317a6.875,6.875,0,0,0-4.077-2.893A.867.867,0,0,0,.8,31.241c.124.029,3.027.732,3.457,3.461a9.426,9.426,0,0,1,0,2.249.867.867,0,1,0,1.708.3,8.826,8.826,0,0,0,.083-1.823,3.46,3.46,0,0,1,1.814.665A3.9,3.9,0,0,1,9.18,38.9a.859.859,0,0,0,.8.773A4.014,4.014,0,0,1,13.2,42.586,83.879,83.879,0,0,0,.988,41.725a.867.867,0,1,0,0,1.734A76.362,76.362,0,0,1,19.277,45.54v2.137a.867.867,0,0,0,1.734,0V39.288a11.29,11.29,0,0,0,9.821-7.677,10.787,10.787,0,0,0,6.073,2.5v5.7a7.234,7.234,0,0,0-2.086,1.9,7.34,7.34,0,0,0-1.161,2.4,3.692,3.692,0,0,0-2.683,1.216,3.913,3.913,0,0,0-.865,2.16,53.683,53.683,0,0,0-5.733-2.284.867.867,0,1,0-.55,1.645A51.209,51.209,0,0,1,30.673,49.7c3.555,1.851,8.264,4.943,10.657,7.763H.988a.867.867,0,1,0,0,1.734H58.42a.867.867,0,1,0,0-1.734ZM49.341,14.432a1.562,1.562,0,0,1,2.975,0l1.744,5.463a8.919,8.919,0,0,0,1.355,2.633,7.224,7.224,0,0,1,1.1,6.48c0,.014-.008.028-.012.041A5.884,5.884,0,0,1,51.7,33.4v-10a.867.867,0,0,0-1.734,0v10a5.885,5.885,0,0,1-4.81-4.355c0-.014-.008-.028-.012-.041a7.225,7.225,0,0,1,1.1-6.48A8.921,8.921,0,0,0,47.6,19.895ZM2.106,22.327c0-.014-.008-.028-.012-.041a5.154,5.154,0,0,1,.787-4.63,6.867,6.867,0,0,0,1.044-2.027l1.3-4.073a.953.953,0,0,1,.9-.655.94.94,0,0,1,.9.657l1.3,4.07c.414,1.5,1.964,2.83,2.044,4.623a13.391,13.391,0,0,0-1.52,4.175,4.08,4.08,0,0,1-1.855.938V21.1a.867.867,0,0,0-1.734,0v4.262a4.17,4.17,0,0,1-3.149-3.038ZM15.09,42.89a6.083,6.083,0,0,0-4.28-4.831,5.256,5.256,0,0,0-1.9-3.349,4.925,4.925,0,0,0-1.917-.882v-6.7a5.763,5.763,0,0,0,1.632-.494c-.036,6.77,4.238,12.094,10.656,12.656v4.465Q17.232,43.261,15.09,42.89Zm14.3-12.5a9.573,9.573,0,0,1-8.379,7.156v-5.94l2.818-2.294a.867.867,0,1,0-1.095-1.345l-1.723,1.4V17.559a.867.867,0,0,0-1.734,0V31.191h0v1.231l-1.647-1.1a.867.867,0,1,0-.961,1.444l2.607,1.735v3.043a9.616,9.616,0,0,1-8.391-7.2,11.659,11.659,0,0,1,1.777-10.456,13.333,13.333,0,0,0,2.026-3.935l2.7-8.455a2.892,2.892,0,0,1,5.51,0l2.7,8.456A13.336,13.336,0,0,0,27.625,19.9,11.736,11.736,0,0,1,29.39,30.393Zm9.249,3.714a10.619,10.619,0,0,0,2.916-.647.867.867,0,1,0-.61-1.623,8.885,8.885,0,0,1-2.306.531V26.734L40.891,24.9A.867.867,0,1,0,39.8,23.556l-1.156.941V13.031a.867.867,0,0,0-1.734,0V26.316h0v1.195L35,26.362a.867.867,0,1,0-.9,1.485l2.8,1.689v2.828a9.074,9.074,0,0,1-5.548-2.622,13.5,13.5,0,0,0-2.4-10.965,11.041,11.041,0,0,1,1.678-3.261,12.8,12.8,0,0,0,1.945-3.78l2.587-8.1a2.734,2.734,0,0,1,5.208,0l2.586,8.1c.566,2.24,2.478,4.1,3.385,6.368a10.4,10.4,0,0,1-1.5,3.386,8.964,8.964,0,0,0-1.373,8.018,7.613,7.613,0,0,0,6.482,5.645v5.272c-1.4-1.028-3.851-2.093-7.968-1.971a11.774,11.774,0,0,0-3.354.563V34.107ZM32.295,46.46a2.7,2.7,0,0,1,2.141-.616h-.015a4.974,4.974,0,0,1,2.067.573.867.867,0,1,0,.733-1.572,8.4,8.4,0,0,0-1.79-.617c.466-1.362,1.958-3.908,6.613-4.045,5.629-.167,7.507,2.035,7.917,2.644v2.782a48.608,48.608,0,0,0-9.124,2.175A31.062,31.062,0,0,0,35.266,50.3c-1.03-.647-2.179-1.309-3.449-1.964a2.735,2.735,0,0,1,.478-1.874Z" transform="translate(-0.121 0)"/>
      <path id="Trazado_1048884" data-name="Trazado 1048884" d="M78.945,431.635v-2.23a.867.867,0,0,0-1.734,0v2.23a.867.867,0,1,0,1.734,0Z" transform="translate(-68.298 -378.994)"/>
      <path id="Trazado_1048885" data-name="Trazado 1048885" d="M103.99,438.693a.866.866,0,0,0,.754-.438l.809-1.421a.867.867,0,1,0-1.507-.858l-.809,1.421a.867.867,0,0,0,.753,1.3Z" transform="translate(-91.215 -385.184)"/>
      <path id="Trazado_1048886" data-name="Trazado 1048886" d="M46.2,438.693a.867.867,0,0,0,.753-1.3l-.809-1.421a.867.867,0,1,0-1.507.858l.809,1.421A.867.867,0,0,0,46.2,438.693Z" transform="translate(-39.39 -385.184)"/>
    </g>
  </g>
</svg>
