<svg xmlns="http://www.w3.org/2000/svg" width="51.99" height="58.405" viewBox="0 0 51.99 58.405">
  <g id="water-management_18455577" transform="translate(0 0)">
    <g id="Grupo_1182279" data-name="Grupo 1182279" transform="translate(0.915 0.911)">
      <path id="Trazado_1048929" data-name="Trazado 1048929" d="M57.583,8C131.87,83.44-16.7,83.44,57.583,8Z" transform="translate(-36.141 -8)" fill="#8bd7fa" fill-rule="evenodd"/>
      <path id="Trazado_1048930" data-name="Trazado 1048930" d="M95.725,197.063a13.934,13.934,0,0,0,3.506-1.453.838.838,0,0,1,.828-.025l2.043,1.042a.854.854,0,0,0,1-.16l2.072-2.072a.851.851,0,0,0,.16-1l-1.042-2.043a.846.846,0,0,1,.025-.828,13.975,13.975,0,0,0,1.453-3.509.85.85,0,0,1,.572-.6l2.178-.706a.858.858,0,0,0,.6-.822v-2.932a.85.85,0,0,0-.6-.822l-2.178-.71a.848.848,0,0,1-.572-.6,13.934,13.934,0,0,0-1.453-3.506.847.847,0,0,1-.025-.828l1.042-2.043a.854.854,0,0,0-.16-1l-2.072-2.072a.851.851,0,0,0-1-.16l-2.043,1.039a.838.838,0,0,1-.828-.022,14.141,14.141,0,0,0-3.506-1.457.829.829,0,0,1-.6-.568l-.71-2.178a.854.854,0,0,0-.822-.6H90.659a.856.856,0,0,0-.822.6l-.706,2.178a.841.841,0,0,1-.6.568,14.111,14.111,0,0,0-3.509,1.457.838.838,0,0,1-.828.022L82.148,170.2a.854.854,0,0,0-1,.16l-2.072,2.072a.851.851,0,0,0-.16,1l1.042,2.043a.838.838,0,0,1-.025.828,13.95,13.95,0,0,0-1.453,3.506.839.839,0,0,1-.568.6l-2.181.71a.851.851,0,0,0-.6.822v2.932a.856.856,0,0,0,.6.822l2.181.706a.853.853,0,0,1,.568.6,13.973,13.973,0,0,0,1.453,3.509.838.838,0,0,1,.025.828l-1.042,2.043a.855.855,0,0,0,.16,1l2.072,2.072a.851.851,0,0,0,1,.16l2.043-1.042a.838.838,0,0,1,.828.025,13.976,13.976,0,0,0,3.509,1.453.839.839,0,0,1,.6.568l.706,2.178a.856.856,0,0,0,.822.6h2.932a.852.852,0,0,0,.822-.6l.71-2.178A.829.829,0,0,1,95.725,197.063Z" transform="translate(-70.682 -148.348)" fill="#2f5274" fill-rule="evenodd"/>
      <path id="Trazado_1048931" data-name="Trazado 1048931" d="M147.575,248.683a9.857,9.857,0,1,0-9.855-9.855A9.876,9.876,0,0,0,147.575,248.683Z" transform="translate(-126.132 -203.763)" fill="#daeafa" fill-rule="evenodd"/>
      <path id="Trazado_1048932" data-name="Trazado 1048932" d="M345,266.971a7.916,7.916,0,1,0-7.916-7.916A7.931,7.931,0,0,0,345,266.971Z" transform="translate(-302.75 -223.404)" fill="#70da40" fill-rule="evenodd"/>
      <path id="Trazado_1048933" data-name="Trazado 1048933" d="M59.673,64.5c-10.941-.838-21.149-8.28-19.086-22.319V41.6a.876.876,0,0,1,.188-.546c1.545-8.167,7.14-18.464,18.9-30.887Q58.66,9.092,57.583,8c-38.537,39.139-17.1,57.97,2.09,56.5Z" transform="translate(-36.139 -8)" fill="#7dc2e1" fill-rule="evenodd"/>
      <path id="Trazado_1048934" data-name="Trazado 1048934" d="M139.283,238.809a9.859,9.859,0,0,1,9.07-9.828c-.26-.022-.524-.032-.788-.032a9.857,9.857,0,0,0,0,19.713c.264,0,.527-.009.788-.032A9.849,9.849,0,0,1,139.283,238.809Z" transform="translate(-126.123 -203.745)" fill="#c4d3e1" fill-rule="evenodd"/>
      <path id="Trazado_1048935" data-name="Trazado 1048935" d="M339.2,259.056a7.909,7.909,0,0,1,6.855-7.844,7.916,7.916,0,1,0-1.29,15.756c.075,0,.154,0,.229,0a7.958,7.958,0,0,0,1.061-.072,7.5,7.5,0,0,1-1.19-.254,7.911,7.911,0,0,1-5.665-7.589Z" transform="translate(-302.75 -223.404)" fill="#65c43a" fill-rule="evenodd"/>
    </g>
    <path id="Trazado_1048936" data-name="Trazado 1048936" d="M50.481,25.215a10.771,10.771,0,1,0,10.77,10.77,10.784,10.784,0,0,0-10.77-10.77Zm0,19.716a8.944,8.944,0,1,1,8.942-8.946,8.956,8.956,0,0,1-8.942,8.946Zm-5.917-8.309A.919.919,0,0,1,44,36.213l-1.329-2.15a.913.913,0,0,1,1.554-.961l.168.27A6.632,6.632,0,0,1,56.542,33.3a.914.914,0,0,1-1.67.741,4.809,4.809,0,0,0-8.654-.279l.222-.138a.913.913,0,1,1,.962,1.553l-2.147,1.329a.915.915,0,0,1-.48.137A.88.88,0,0,1,44.564,36.621Zm12.4-.861,1.329,2.15a.913.913,0,1,1-1.554.961l-.167-.269a6.632,6.632,0,0,1-12.154.067.913.913,0,0,1,1.67-.739,4.807,4.807,0,0,0,8.65.279l-.222.138a.913.913,0,1,1-.961-1.554l2.15-1.329a.912.912,0,0,1,1.257.3Zm23.147.813a8.838,8.838,0,0,0-8.829-8.826c-.221,0-.44.011-.658.027C67.439,19.435,60.885,10.19,51.132.283a.914.914,0,0,0-1.3,0c-9.716,9.867-16.264,19.088-19.46,27.406a31.13,31.13,0,0,0-2.243,10.578,19.549,19.549,0,0,0,1.668,8.47,18.919,18.919,0,0,0,9.233,9.156,26.68,26.68,0,0,0,11.478,2.522q.823,0,1.647-.048a25.124,25.124,0,0,0,12.076-3.755,18.265,18.265,0,0,0,7.484-9.22A8.841,8.841,0,0,0,80.113,36.573ZM52.045,56.543C42.7,57.1,34.621,52.95,31.458,45.982c-2.811-6.19-4.03-20.066,19.023-43.754C59.576,11.575,65.728,20.272,68.8,28.105a8.85,8.85,0,0,0-4.2,2.715A14.924,14.924,0,0,0,63.48,28.44l1.027-2.015a1.781,1.781,0,0,0-.325-2.069l-2.073-2.073a1.78,1.78,0,0,0-2.067-.326l-2.017,1.029a14.986,14.986,0,0,0-3.689-1.53l-.7-2.15a1.77,1.77,0,0,0-1.691-1.232H49.017a1.781,1.781,0,0,0-1.693,1.23l-.7,2.155a14.97,14.97,0,0,0-3.686,1.529l-2.024-1.031a1.777,1.777,0,0,0-2.06.329l-2.073,2.073a1.78,1.78,0,0,0-.33,2.066l1.029,2.02a15.011,15.011,0,0,0-1.529,3.686l-2.15.7a1.769,1.769,0,0,0-1.229,1.691v2.933A1.77,1.77,0,0,0,33.8,39.142l2.155.7a14.969,14.969,0,0,0,1.529,3.686l-1.031,2.024a1.779,1.779,0,0,0,.331,2.064l2.073,2.073a1.777,1.777,0,0,0,2.064.326l2.02-1.029a14.958,14.958,0,0,0,3.686,1.529l.7,2.158A1.78,1.78,0,0,0,49.018,53.9h2.929a1.77,1.77,0,0,0,1.691-1.23l.7-2.154a14.909,14.909,0,0,0,3.689-1.53l2.02,1.031a1.778,1.778,0,0,0,2.064-.329l2.076-2.076a1.777,1.777,0,0,0,.323-2.062l-1.028-2.018a15.014,15.014,0,0,0,.8-1.59,8.841,8.841,0,0,0,5.526,3.336c-3.039,7.687-11.058,10.87-17.762,11.267Zm9.793-12.209,1.026,2.013L60.842,48.37l-2.009-1.026a1.75,1.75,0,0,0-1.7.047,13.11,13.11,0,0,1-3.281,1.361,1.749,1.749,0,0,0-1.24,1.17l-.7,2.147h-2.86l-.7-2.147a1.747,1.747,0,0,0-1.238-1.169,13.114,13.114,0,0,1-3.282-1.362,1.741,1.741,0,0,0-1.7-.047l-2.011,1.024L38.1,46.345l1.022-2.005a1.744,1.744,0,0,0-.044-1.709,13.126,13.126,0,0,1-1.362-3.284,1.75,1.75,0,0,0-1.169-1.234l-2.143-.7V34.555l2.143-.7a1.754,1.754,0,0,0,1.169-1.235,13.163,13.163,0,0,1,1.362-3.284,1.741,1.741,0,0,0,.047-1.7L38.1,25.627,40.121,23.6l2.005,1.022a1.742,1.742,0,0,0,1.708-.044,13.11,13.11,0,0,1,3.281-1.361,1.75,1.75,0,0,0,1.238-1.17l.7-2.147h2.86l.7,2.147a1.752,1.752,0,0,0,1.241,1.169,13.131,13.131,0,0,1,3.277,1.359,1.74,1.74,0,0,0,1.705.049l2.01-1.026,2.023,2.023-1.027,2.016a1.742,1.742,0,0,0,.052,1.7,13.02,13.02,0,0,1,1.356,3.277c.016.06.035.12.057.179a8.806,8.806,0,0,0-.206,7.078,13.206,13.206,0,0,1-1.2,2.75,1.748,1.748,0,0,0-.054,1.708Zm9.444-.759a7,7,0,1,1,7-7A7.01,7.01,0,0,1,71.283,43.575ZM75.949,33.4a.913.913,0,0,1,0,1.291l-5.064,5.06a.914.914,0,0,1-1.291,0l-2.975-2.972a.914.914,0,1,1,1.29-1.294l2.329,2.327L74.656,33.4a.916.916,0,0,1,1.292,0Z" transform="translate(-28.123 -0.01)"/>
  </g>
</svg>
