<svg xmlns="http://www.w3.org/2000/svg" xmlns:xlink="http://www.w3.org/1999/xlink" width="62.832" height="62.832" viewBox="0 0 62.832 62.832">
  <defs>
    <clipPath id="clip-path">
      <path id="path4893" d="M0-682.665H62.832v62.832H0Z" transform="translate(0 682.665)"/>
    </clipPath>
  </defs>
  <g id="g4887" transform="translate(0 682.665)">
    <g id="g4889" transform="translate(0 -682.665)">
      <g id="g4891" clip-path="url(#clip-path)">
        <g id="g4897" transform="translate(17.261 3.039)">
          <path id="path4899" d="M-323.455-186.093a.911.911,0,0,0,1.279-1.09c-1.6-5.036-6.634-17.121-18.107-17.732-13.072-.7-17.007,7.516-15.733,11.966l1.529,3.025c.7,2.225,2.936,6.161,10.04,5.947,9.155-.276,13.281-5.937,20.992-2.115" transform="translate(356.243 204.957)" fill="#6bcb44"/>
        </g>
        <g id="g4901" transform="translate(17.261 3.039)">
          <path id="path4903" d="M-170.339-52.065c6.833,0,11.763,3.858,15.155,8.221-2.558-5.633-7.578-12.984-16.462-13.457-13.071-.7-17.007,7.516-15.733,11.965l.913,1.807c1.539-4.232,6.375-8.54,16.127-8.536" transform="translate(187.606 57.343)" fill="#4dc321"/>
        </g>
        <g id="g4905" transform="translate(33.258 32.094)">
          <path id="path4907" d="M-223.253-3.873l-3.384-.188c-2.275-.509-6.8-.538-10.171,5.722-4.338,8.066-1.5,14.47-8.664,19.237a.911.911,0,0,0,.3,1.653c5.164,1.129,18.144,2.815,24.41-6.815,7.139-10.972,1.994-18.486-2.5-19.608" transform="translate(245.884 4.266)" fill="#6bcb44"/>
        </g>
        <g id="g4909" transform="translate(33.258 32.094)">
          <path id="path4911" d="M-57.328-267.532c7.165-5.073,4.326-11.889,8.664-20.473,2.385-4.719,5.352-6.079,7.688-6.279l-2.917-.162c-2.275-.509-6.8-.538-10.171,5.722-4.338,8.066-1.5,14.47-8.664,19.237a.911.911,0,0,0,.3,1.653,39.187,39.187,0,0,0,4.756.735.958.958,0,0,1,.339-.432" transform="translate(63.139 294.652)" fill="#4dc321"/>
        </g>
        <g id="g4913" transform="translate(0.931 24.298)">
          <path id="path4915" d="M-94.757-8.5a.911.911,0,0,0-1.584-.563c-3.56,3.907-11.51,14.306-6.3,24.547,5.933,11.669,15.013,10.97,18.229,7.643l1.855-2.837c1.578-1.716,3.868-5.623.13-11.669C-87.246.827-94.212.084-94.757-8.5" transform="translate(104.362 9.367)" fill="#6bcb44"/>
        </g>
        <g id="g4917" transform="translate(0.931 24.298)">
          <path id="path4919" d="M-66.592-245.114c-4.021-7.908-.2-15.909,3.393-20.943a12.967,12.967,0,0,1-.538-3.042.911.911,0,0,0-1.584-.562c-3.56,3.907-11.51,14.306-6.3,24.547,4.537,8.923,10.914,10.614,15.1,9.428-3.4-.886-7.122-3.629-10.07-9.428" transform="translate(73.343 269.961)" fill="#4dc321"/>
        </g>
        <g id="g4921" transform="translate(12.957 12.625)">
          <path id="path4923" d="M-3.524-72.557a.955.955,0,0,0-.357.737l.623.778a.948.948,0,0,0,1.419.069c2.417-2.48,10.5-9.836,19.512-7.747a.456.456,0,0,0,.461-.141c-3.7-1.682-10.768-2.408-21.658,6.3" transform="translate(3.881 79.912)" fill="#c3ebb0"/>
        </g>
        <g id="g4925" transform="translate(12.108 11.343)">
          <path id="path4927" d="M-13.482-85.351c10.731-8.585,17.692-7.86,21.332-6.2a.478.478,0,0,0,.056-.849c-3.243-1.955-10.506-3.878-22.4,5.638a.948.948,0,0,0-.146,1.332l.831,1.039a.946.946,0,0,1,.327-.96" transform="translate(14.848 94.003)" fill="#97dc7c"/>
        </g>
        <g id="g4929" transform="translate(49.812 25.563)">
          <path id="path4931" d="M-54.518-7.925a.948.948,0,0,0-1.08-.792l-1.038.158a.946.946,0,0,0-.229.912c.94,3.334,3.271,14.008-3.047,20.771a.459.459,0,0,0-.069.557l.037.059c3.277-2.265,7.522-7.9,5.425-21.665" transform="translate(60.044 8.728)" fill="#c3ebb0"/>
        </g>
        <g id="g4933" transform="translate(48.308 25.71)">
          <path id="path4935" d="M-17.353-214.117c6.318-6.764,3.987-17.438,3.047-20.771a.947.947,0,0,1,.248-.933l-1.1.168a.948.948,0,0,0-.77,1.195c.94,3.334,3.271,14.008-3.047,20.771a.476.476,0,0,0,.579.741,10.524,10.524,0,0,0,.978-.613.459.459,0,0,1,.069-.557" transform="translate(19.112 235.822)" fill="#97dc7c"/>
        </g>
        <g id="g4937" transform="translate(10.757 42.321)">
          <path id="path4939" d="M-167.816-131.814c-3.357-.853-13.766-4.171-16.465-13.025a.463.463,0,0,0-.546-.328.454.454,0,0,1,.327.248c.466,4.038,3.469,10.365,16.19,15.336a.951.951,0,0,0,.782-.041l.362-.926a.948.948,0,0,0-.65-1.264" transform="translate(184.828 145.175)" fill="#c3ebb0"/>
        </g>
        <g id="g4941" transform="translate(10.37 42.321)">
          <path id="path4943" d="M-166.854-152.158c-12.583-4.916-15.553-11.174-16.014-15.169a.476.476,0,0,0-.9.214c-.071,3.786,1.894,11.037,16.084,16.581a.948.948,0,0,0,1.226-.539l.459-1.175a.943.943,0,0,1-.857.088" transform="translate(183.767 167.582)" fill="#97dc7c"/>
        </g>
        <g id="g4945" transform="translate(12.097 11.343)">
          <path id="path4947" d="M-224.482-15.807c-3.243-1.955-10.506-3.878-22.4,5.638a.948.948,0,0,0-.146,1.332l1.264,1.58a.948.948,0,0,0,1.42.069c2.417-2.48,10.5-9.836,19.512-7.747A.476.476,0,0,0-224.482-15.807Z" transform="translate(247.237 17.41)" fill="none" stroke="#000" stroke-linecap="round" stroke-linejoin="round" stroke-miterlimit="10" stroke-width="1.5"/>
        </g>
        <g id="g4949" transform="translate(48.297 25.563)">
          <path id="path4951" d="M-7.026-227.117c3.315-1.831,8.611-7.159,6.318-22.219a.948.948,0,0,0-1.08-.792l-2,.3a.948.948,0,0,0-.77,1.195c.94,3.333,3.271,14.008-3.047,20.771A.476.476,0,0,0-7.026-227.117Z" transform="translate(7.738 250.139)" fill="none" stroke="#000" stroke-linecap="round" stroke-linejoin="round" stroke-miterlimit="10" stroke-width="1.5"/>
        </g>
        <g id="g4953" transform="translate(10.359 42.32)">
          <path id="path4955" d="M-.018-4.633C-.089-.847,1.876,6.4,16.066,11.948a.948.948,0,0,0,1.226-.539l.736-1.885a.948.948,0,0,0-.65-1.264C14.021,7.407,3.612,4.089.913-4.764A.476.476,0,0,0-.018-4.633Z" transform="translate(0.02 5.103)" fill="none" stroke="#000" stroke-linecap="round" stroke-linejoin="round" stroke-miterlimit="10" stroke-width="1.5"/>
        </g>
        <g id="g4957" transform="translate(0.92 24.298)">
          <path id="path4959" d="M-79.134-2.955c-3.56,3.907-11.51,14.306-6.3,24.547,5.933,11.669,15.013,10.97,18.229,7.643-9.154-5.051-10.568-10.777-10.507-14a.476.476,0,0,1,.931-.131c1.817,5.961,7.13,9.412,11.432,11.292,1.578-1.716,3.868-5.623.13-11.669C-70.039,6.939-77,6.2-77.55-2.393A.911.911,0,0,0-79.134-2.955Z" transform="translate(87.156 3.255)" fill="none" stroke="#000" stroke-linecap="round" stroke-linejoin="round" stroke-miterlimit="10" stroke-width="1.5"/>
        </g>
        <g id="g4961" transform="translate(17.25 3.039)">
          <path id="path4963" d="M-120.174-206.807c8.886-.419,13-5.868,20.606-2.1A.911.911,0,0,0-98.288-210c-1.6-5.036-6.634-17.121-18.107-17.732-13.072-.7-17.007,7.516-15.733,11.965,8.951-5.4,14.617-3.764,17.376-2.1a.476.476,0,0,1-.352.872c-6.071-1.407-11.716,1.468-15.495,4.254a8.138,8.138,0,0,0,6.131,5.575" transform="translate(132.356 227.77)" fill="none" stroke="#000" stroke-linecap="round" stroke-linejoin="round" stroke-miterlimit="10" stroke-width="1.5"/>
        </g>
        <g id="g4965" transform="translate(33.247 32.094)">
          <path id="path4967" d="M-245.552-200.752c.079-.115.158-.231.235-.349,7.139-10.972,1.994-18.486-2.5-19.608.2,10.453-4.049,14.541-6.868,16.1a.476.476,0,0,1-.579-.741c4.254-4.554,4.587-10.881,4.063-15.546-2.275-.509-6.8-.538-10.17,5.722-4.339,8.066-1.5,14.47-8.664,19.237a.911.911,0,0,0,.3,1.653c4.41.964,14.524,2.334,21.285-3.289" transform="translate(270.444 221.102)" fill="none" stroke="#000" stroke-linecap="round" stroke-linejoin="round" stroke-miterlimit="10" stroke-width="1.5"/>
        </g>
      </g>
    </g>
  </g>
</svg>
