<svg xmlns="http://www.w3.org/2000/svg" width="56.917" height="59.194" viewBox="0 0 56.917 59.194">
  <g id="global-warming_11226388" transform="translate(0)">
    <path id="Trazado_1048842" data-name="Trazado 1048842" d="M237.362,374.014V376.5l3,.592,1.317,3.176-1.7,2.541,3.513,3.512,2.541-1.7,3.176,1.317.591,3h4.967l.592-3,3.176-1.317,2.541,1.7,3.513-3.512-1.7-2.541,1.317-3.176,3-.592v-2.484h-7.274a7.643,7.643,0,0,1-15.287,0h-7.274Z" transform="translate(-211.093 -330.555)" fill="#8bbd00" fill-rule="evenodd"/>
    <path id="Trazado_1048843" data-name="Trazado 1048843" d="M265.751,376.5l-3,.592-1.317,3.176,1.7,2.541-2.93,2.93-2.227-1.494-4.072,1.689-.592,3H249.8l-.591-3-4.072-1.689-2.227,1.493-2.93-2.93,1.7-2.541-1.317-3.176-3-.591v-2.484h7.274a7.643,7.643,0,0,0,15.286,0h5.824V376.5Z" transform="translate(-211.097 -330.554)" fill="#a8e304" fill-rule="evenodd"/>
    <path id="Trazado_1048844" data-name="Trazado 1048844" d="M289.951,374.014a7.643,7.643,0,0,0,7.233,7.632,7.677,7.677,0,0,1-8.477-7.632Z" transform="translate(-256.408 -330.555)" fill="#8bbd00" fill-rule="evenodd"/>
    <ellipse id="Elipse_12248" data-name="Elipse 12248" cx="20.203" cy="20.203" rx="20.203" ry="20.203" transform="translate(0.825 0.829)" fill="#1176e8"/>
    <g id="Grupo_1182269" data-name="Grupo 1182269" transform="translate(0.825 0.824)">
      <path id="Trazado_1048845" data-name="Trazado 1048845" d="M37.892,52.988a20.206,20.206,0,0,1,0-39.947,20.206,20.206,0,0,1,0,39.947Z" transform="translate(-20.743 -12.806)" fill="#2a92fa" fill-rule="evenodd"/>
      <path id="Trazado_1048846" data-name="Trazado 1048846" d="M118.486,23.942c4.055-1.305-1.03-6.322,1.733-8.057a20.228,20.228,0,0,0-20.856-3.3c.612,1.862,1.551,3.386,2.918,3.811,1.484.461,4.04,1.2,3.062,3.152-.953,1.9,1.962,2.072-.663,5.237-.992,1.2.8,3.7-2.3,4.4-.789.178-8.788,1.836-6.163,3.571,2.469,1.632,2.628-2.167,5.7,1.621,1.291,1.594,2.884.953,3.849-.518.674-1.027,2.146-3.778,3.422-3.339,4.981,1.712,2.943-4.253,2.572-6.236-.547-2.922,4.841-6.216,4.4-1.778-.181,1.806.632,1.992,2.332,1.445Z" transform="translate(-86.887 -11.04)" fill="#a8e304" fill-rule="evenodd"/>
      <path id="Trazado_1048847" data-name="Trazado 1048847" d="M118.486,25.7a2.682,2.682,0,0,0,1.087-.613A20.228,20.228,0,0,0,104.03,13.034a20.223,20.223,0,0,0-4.667,1.307c.612,1.862,1.551,3.386,2.918,3.811,1.484.461,4.04,1.2,3.062,3.152-.953,1.9,1.962,2.072-.663,5.237-.992,1.2.8,3.7-2.3,4.4-.789.178-8.788,1.836-6.163,3.571,2.469,1.632,2.628-2.167,5.7,1.621,1.291,1.594,2.884.953,3.849-.518.674-1.027,2.146-3.778,3.422-3.339,4.981,1.712,2.943-4.253,2.572-6.236-.547-2.922,4.841-6.217,4.4-1.778-.181,1.806.632,1.992,2.332,1.445Z" transform="translate(-86.888 -12.8)" fill="#dbff78" fill-rule="evenodd"/>
      <path id="Trazado_1048848" data-name="Trazado 1048848" d="M24.437,133.853c3.983-.16,6.024-2.2,2.292-3.953-1.174-.552-3.2-1.461-2.168-2.959,1.006-1.459-1.2-3.216,1.334-5.53,1.888-1.724,4.5-3.7,3.21-6.332-.884-1.467-2.274-1.121-3.242-.016-.676.771-2.21,2.876-3.215,2.366A4.039,4.039,0,0,0,21.421,117a20.239,20.239,0,0,0,3.016,16.851Z" transform="translate(-20.743 -101.998)" fill="#dbff78" fill-rule="evenodd"/>
      <path id="Trazado_1048849" data-name="Trazado 1048849" d="M144.063,277.841c-4.729,4.336-1.828-.517-5.491-.517-6.067,0-.057,3.823-5.548,3.968-1.759.046-2.29,1.579-2.44,2.894a20.23,20.23,0,0,0,20.965-3.962c-1.533-2.823-3.708-5.847-7.486-2.383Z" transform="translate(-117.682 -245.134)" fill="#a8e304" fill-rule="evenodd"/>
      <path id="Trazado_1048850" data-name="Trazado 1048850" d="M144.063,277.842c-4.729,4.336-1.828-.517-5.491-.517-6.067,0-.057,3.823-5.548,3.968-1.759.046-2.29,1.579-2.44,2.894a20.067,20.067,0,0,0,4.246,1.13,20.2,20.2,0,0,0,13.712-8.7C147.353,276.008,145.9,276.16,144.063,277.842Z" transform="translate(-117.682 -245.134)" fill="#dbff78" fill-rule="evenodd"/>
      <path id="Trazado_1048851" data-name="Trazado 1048851" d="M311.414,138.593a7.65,7.65,0,1,1-9.057,0V118.762a4.528,4.528,0,0,1,9.057,0Z" transform="translate(-266.524 -102.113)" fill="#b6dbff" fill-rule="evenodd"/>
      <path id="Trazado_1048852" data-name="Trazado 1048852" d="M305.672,152.312a7.65,7.65,0,0,1-3.315-13.719V118.762a3.517,3.517,0,1,1,6.629-1.119v20.949a7.65,7.65,0,0,1-3.315,13.719Z" transform="translate(-266.524 -102.113)" fill="#e3f1ff" fill-rule="evenodd"/>
    </g>
    <circle id="Elipse_12249" data-name="Elipse 12249" cx="2.897" cy="2.897" r="2.897" transform="translate(37.081 43.47) rotate(-45)" fill="#e8333c"/>
    <path id="Trazado_1048853" data-name="Trazado 1048853" d="M341.626,356.332a2.9,2.9,0,1,1,1.924-2.729A2.9,2.9,0,0,1,341.626,356.332Z" transform="translate(-301.412 -310.133)" fill="#ff6161" fill-rule="evenodd"/>
    <path id="Trazado_1048854" data-name="Trazado 1048854" d="M68.994,48.309H63.332a8.467,8.467,0,0,1-16.855,0H40.822v.985l2.333.459a.815.815,0,0,1,.6.492l1.319,3.174a.833.833,0,0,1-.079.773L43.669,56.17l2.553,2.555L48.2,57.4a.812.812,0,0,1,.77-.078l3.176,1.317a.831.831,0,0,1,.493.6l.459,2.335h3.612l.459-2.335a.818.818,0,0,1,.493-.6l3.176-1.317a.814.814,0,0,1,.77.078l1.982,1.326,2.553-2.555-1.33-1.978a.817.817,0,0,1-.074-.773l1.313-3.174a.835.835,0,0,1,.6-.492l2.338-.459v-.985Zm-20.908-.822a6.865,6.865,0,0,1,2.78-5.5.815.815,0,0,0,.34-.662V21.505a3.7,3.7,0,1,1,7.405,0V41.325a.822.822,0,0,0,.334.661,6.823,6.823,0,1,1-10.859,5.5Zm1.472-9.928V21.505a5.358,5.358,0,0,1,2.752-4.673,19.414,19.414,0,0,0-4.376-6.006,4.393,4.393,0,0,0,.26,2.459c.453,1.713,1.132,4.3-1.795,5.243a2.963,2.963,0,0,1-2.769-.066A2.462,2.462,0,0,1,43,16.218c.085-.833-.091-1.167-.2-1.228-.147-.087-.617-.025-1.195.382a2.9,2.9,0,0,0-1.376,2.555c.04.228.108.521.187.862.442,1.895,1.11,4.758-.328,6.057-.776.7-1.953.782-3.51.247-.04-.015-.311.042-.81.6A14.008,14.008,0,0,0,34.429,27.6c-.119.192-.226.364-.323.5a3.64,3.64,0,0,1-2.735,1.817c-.04,0-.085,0-.13,0a2.937,2.937,0,0,1-2.31-1.235c-.844-1.039-1.353-1.347-1.636-1.422-.238-.064-.43.014-.815.181a2.819,2.819,0,0,1-3.063-.212,1.6,1.6,0,0,1-.872-1.655c.164-.872,1.127-2.044,7.179-3.375l.13-.029c1.33-.3,1.325-.841,1.313-1.919a3.171,3.171,0,0,1,.538-2.2c1.223-1.481,1-1.945.674-2.587a2.5,2.5,0,0,1-.113-2.5c.193-.389.119-.565.091-.631-.266-.624-1.761-1.088-2.57-1.337l-.1-.029c-1.313-.408-2.367-1.58-3.142-3.489a19.485,19.485,0,0,0-10.31,11.793,5.98,5.98,0,0,1,.555.249,1.788,1.788,0,0,0,.776-.515,13.9,13.9,0,0,0,1.149-1.265c.125-.146.232-.277.323-.383a3.18,3.18,0,0,1,2.587-1.232A2.551,2.551,0,0,1,23.61,17.5l.034.063c1.449,2.965-1.059,5.21-2.893,6.849-.17.153-.34.3-.5.452a2.611,2.611,0,0,0-.9,2.9,3.11,3.11,0,0,1-.311,2.49c-.17.247-.142.361-.13.4.13.486,1.325,1.045,1.9,1.314l.074.036c2.282,1.072,2.565,2.247,2.406,3.044-.232,1.142-1.529,1.979-3.493,2.319a19.49,19.49,0,0,0,7.043,5.38,3.119,3.119,0,0,1,3.035-2.563c1.3-.034,1.631-.286,1.7-.362.1-.1.085-.357.062-.733a2.448,2.448,0,0,1,.515-1.976c.583-.621,1.6-.9,3.3-.9A2.877,2.877,0,0,1,38.409,38.3c.017.05.04.108.062.162a10.6,10.6,0,0,0,1.9-1.512C41.863,35.58,43.312,35,44.682,35.23c1.716.287,2.944,1.765,3.924,3.38q.493-.506.951-1.051ZM34.746,44.439a19.286,19.286,0,0,1-6.375-1.079c.351-1.5,1.195-1.522,1.534-1.532a3.83,3.83,0,0,0,2.87-.9,2.44,2.44,0,0,0,.493-1.944c-.023-.393-.028-.64.068-.748.085-.089.487-.38,2.1-.38,1.013,0,1.189.42,1.449,1.058a1.71,1.71,0,0,0,1.132,1.229c.781.175,1.653-.325,3.465-1.986a3.712,3.712,0,0,1,2.927-1.308c1.189.2,2.185,1.567,2.967,2.912a19.33,19.33,0,0,1-12.631,4.675ZM15.361,25.053a19.438,19.438,0,0,1,.453-4.167c.085.037.17.078.26.123,1.455.739,2.933-1.033,3.906-2.206.113-.134.215-.254.3-.352a1.642,1.642,0,0,1,1.2-.678.994.994,0,0,1,.7.546c.8,1.7-.481,3.035-2.531,4.868-.175.157-.345.311-.515.464a4.232,4.232,0,0,0-1.41,4.387c.108.645.153,1-.045,1.284a2.057,2.057,0,0,0-.362,1.762c.328,1.221,1.806,1.915,2.78,2.373l.079.036c1.3.61,1.517,1.1,1.489,1.229-.068.324-1.042.969-3.012,1.13a19.284,19.284,0,0,1-3.3-10.8ZM34.746,5.668a19.364,19.364,0,0,1,11.9,4.067c-.787,1.137-.385,2.68-.045,3.969.577,2.2.555,2.852-.708,3.259a2.517,2.517,0,0,1-1.229.218,1.705,1.705,0,0,1-.034-.8c.175-1.739-.447-2.489-1-2.813a2.792,2.792,0,0,0-2.972.458,4.485,4.485,0,0,0-2.049,4.2c.051.264.125.574.2.933.289,1.238.889,3.814.175,4.463-.289.26-.957.229-1.874-.087-1.727-.593-3.148,1.688-4.082,3.2-.113.179-.209.339-.3.471a2.084,2.084,0,0,1-1.444,1.076,1.355,1.355,0,0,1-1.076-.624c-2.01-2.476-3.221-2.223-4.388-1.713a1.236,1.236,0,0,1-1.5-.077c-.023-.018-.051-.035-.068-.05.323-.282,1.54-1.061,5.82-2l.142-.031c2.627-.593,2.61-2.439,2.6-3.542a2.1,2.1,0,0,1,.153-1.132c1.766-2.13,1.427-3.283.883-4.372-.238-.47-.317-.628-.119-1.023a2.3,2.3,0,0,0,.136-2.013c-.561-1.325-2.316-1.867-3.6-2.263l-.091-.029a4.142,4.142,0,0,1-2.117-2.553,19.31,19.31,0,0,1,6.681-1.187ZM70.636,47.487v2.482a.823.823,0,0,1-.662.807l-2.565.505-.979,2.361,1.455,2.173a.819.819,0,0,1-.1,1.04l-3.516,3.511a.819.819,0,0,1-1.036.1l-2.174-1.458-2.361.98-.5,2.565a.826.826,0,0,1-.81.664H52.422a.82.82,0,0,1-.8-.664l-.5-2.565-2.361-.98-2.174,1.458a.827.827,0,0,1-1.042-.1l-3.51-3.511a.827.827,0,0,1-.1-1.04l1.461-2.173-.979-2.361-2.565-.505a.828.828,0,0,1-.668-.807V47.487A.823.823,0,0,1,40,46.665h6.483a8.5,8.5,0,0,1,3.074-5.743v-.939a21.027,21.027,0,1,1,4.3-23.721,5.355,5.355,0,0,1,6.4,5.244V40.922a8.527,8.527,0,0,1,3.074,5.743h6.483A.821.821,0,0,1,70.636,47.487Zm-17.8,0a2.072,2.072,0,1,1,2.072,2.072A2.074,2.074,0,0,1,52.835,47.487Zm-1.647,0a3.723,3.723,0,0,1,2.9-3.625V22.976a.821.821,0,1,1,1.642,0V43.862a3.717,3.717,0,1,1-4.541,3.625ZM66.712,33.135H64.685a.822.822,0,0,0,0,1.645h2.027a.822.822,0,0,0,0-1.645Zm-3.493,5.3h3.493a.822.822,0,0,0,0-1.645H63.219a.822.822,0,0,0,0,1.645Zm0-14.643h3.493a.822.822,0,0,0,0-1.644H63.219a.822.822,0,0,0,0,1.644Zm3.493,2.017H64.685a.822.822,0,0,0,0,1.644h2.027a.822.822,0,0,0,0-1.644ZM62.4,30.3a.822.822,0,0,0,.821.822h3.493a.822.822,0,0,0,0-1.645H63.219A.822.822,0,0,0,62.4,30.3Z" transform="translate(-13.719 -4.023)" fill-rule="evenodd"/>
  </g>
</svg>
