<svg xmlns="http://www.w3.org/2000/svg" xmlns:xlink="http://www.w3.org/1999/xlink" width="118" height="118" viewBox="0 0 118 118">
  <defs>
    <filter id="Elipse_12115" x="0" y="0" width="118" height="118" filterUnits="userSpaceOnUse">
      <feOffset dy="3" input="SourceAlpha"/>
      <feGaussianBlur stdDeviation="3" result="blur"/>
      <feFlood flood-opacity="0.161"/>
      <feComposite operator="in" in2="blur"/>
      <feComposite in="SourceGraphic"/>
    </filter>
  </defs>
  <g id="Grupo_1197970" data-name="Grupo 1197970" transform="translate(-3908.731 9193.04)">
    <g id="Grupo_1184446" data-name="Grupo 1184446" transform="translate(3108.95 -11736.04)">
      <g transform="matrix(1, 0, 0, 1, 799.78, 2543)" filter="url(#Elipse_12115)">
        <g id="Elipse_12115-2" data-name="Elipse 12115" transform="translate(9 6)" fill="#cea499" stroke="#8f726a" stroke-width="3">
          <circle cx="50" cy="50" r="50" stroke="none"/>
          <circle cx="50" cy="50" r="48.5" fill="none"/>
        </g>
      </g>
    </g>
    <g id="plant_8377015" transform="translate(3933.116 -9167.979)">
      <g id="Grupo_1197968" data-name="Grupo 1197968" transform="translate(1.09 5.59)">
        <rect id="Rect치ngulo_414830" data-name="Rect치ngulo 414830" width="68" height="42" rx="2" transform="translate(-0.206 0.389)" fill="#eeecff"/>
        <path id="Trazado_1065000" data-name="Trazado 1065000" d="M68.588,40.5v2.18a2.187,2.187,0,0,1-2.18,2.18H3.18A2.187,2.187,0,0,1,1,42.68V40.5Z" transform="translate(-1 -2.346)" fill="#756c8a"/>
        <path id="Trazado_1065001" data-name="Trazado 1065001" d="M40.262,44.5V55.4H25V44.5h4.906v3.815a2.725,2.725,0,1,0,5.451,0V44.5Z" transform="translate(1.163 -1.985)" fill="#eeecff"/>
        <rect id="Rect치ngulo_414831" data-name="Rect치ngulo 414831" width="20" height="4" rx="1" transform="translate(23.794 53.389)" fill="#d3d3ff"/>
        <g id="Grupo_1197967" data-name="Grupo 1197967" transform="translate(29.433 9.266)">
          <path id="Trazado_1065002" data-name="Trazado 1065002" d="M51.18,25.09v6.541a1.09,1.09,0,1,1-2.18,0V25.09a1.09,1.09,0,1,1,2.18,0Z" transform="translate(-26.107 -13.099)" fill="#59d5ff"/>
          <path id="Trazado_1065003" data-name="Trazado 1065003" d="M28,19.451a1.09,1.09,0,0,1,1.09-1.09h6.541V15.09a1.09,1.09,0,1,1,2.18,0v4.361a1.09,1.09,0,0,1-1.09,1.09H29.09A1.09,1.09,0,0,1,28,19.451Z" transform="translate(-28 -14)" fill="#59d5ff"/>
          <path id="Trazado_1065004" data-name="Trazado 1065004" d="M51.18,15.09v6.541a1.09,1.09,0,1,1-2.18,0V15.09a1.09,1.09,0,1,1,2.18,0Z" transform="translate(-26.107 -14)" fill="#59d5ff"/>
          <path id="Trazado_1065005" data-name="Trazado 1065005" d="M37.811,27.09v4.361a1.09,1.09,0,1,1-2.18,0V28.18H29.09a1.09,1.09,0,0,1,0-2.18h7.631A1.09,1.09,0,0,1,37.811,27.09Z" transform="translate(-28 -12.918)" fill="#59d5ff"/>
          <path id="Trazado_1065006" data-name="Trazado 1065006" d="M47.622,23.09a1.09,1.09,0,0,1-1.09,1.09H29.09a1.09,1.09,0,0,1,0-2.18H46.532A1.09,1.09,0,0,1,47.622,23.09Z" transform="translate(-28 -13.279)" fill="#59d5ff"/>
        </g>
        <path id="Trazado_1065007" data-name="Trazado 1065007" d="M18.18,24.55V42.036H16V24.55a1.09,1.09,0,0,1,2.18,0Z" transform="translate(0.352 -3.881)" fill="#da9d81"/>
        <ellipse id="Elipse_12281" data-name="Elipse 12281" cx="5.839" cy="3.373" rx="5.839" ry="3.373" transform="translate(15.285 19.142) rotate(-45)" fill="#59c230"/>
        <ellipse id="Elipse_12282" data-name="Elipse 12282" cx="3.373" cy="5.839" rx="3.373" ry="5.839" transform="translate(6.565 15.654) rotate(-45)" fill="#59c230"/>
        <ellipse id="Elipse_12283" data-name="Elipse 12283" cx="5.839" cy="3.373" rx="5.839" ry="3.373" transform="translate(15.284 31.132) rotate(-45)" fill="#59c230"/>
        <ellipse id="Elipse_12284" data-name="Elipse 12284" cx="3.373" cy="5.839" rx="3.373" ry="5.839" transform="translate(6.564 27.645) rotate(-45)" fill="#59c230"/>
        <path id="Trazado_1065008" data-name="Trazado 1065008" d="M20.647,16.3a6.613,6.613,0,0,1-.85,3.27c-.185.153-.371.316-.545.491a6.71,6.71,0,0,0-1.973,4.764,6.71,6.71,0,0,0-1.973-4.764c-.174-.174-.36-.338-.545-.491a6.613,6.613,0,0,1-.85-3.27,6.716,6.716,0,0,1,3.368-5.843A6.716,6.716,0,0,1,20.647,16.3Z" transform="translate(0.164 -5.053)" fill="#7dce5c"/>
        <path id="Trazado_1065009" data-name="Trazado 1065009" d="M31,11H41.9v4.361H31Z" transform="translate(1.704 -5.004)" fill="#00c4fc"/>
        <path id="Trazado_1065010" data-name="Trazado 1065010" d="M45,11H55.9v4.361H45Z" transform="translate(2.966 -5.004)" fill="#00c4fc"/>
        <path id="Trazado_1065011" data-name="Trazado 1065011" d="M45,21H55.9v4.361H45Z" transform="translate(2.966 -4.103)" fill="#00c4fc"/>
        <path id="Trazado_1065012" data-name="Trazado 1065012" d="M45,31H55.9v4.361H45Z" transform="translate(2.966 -3.202)" fill="#00c4fc"/>
        <path id="Trazado_1065013" data-name="Trazado 1065013" d="M31,31H41.9v4.361H31Z" transform="translate(1.704 -3.202)" fill="#00c4fc"/>
      </g>
      <g id="Grupo_1197969" data-name="Grupo 1197969" transform="translate(0 4.5)">
        <path id="Trazado_1065014" data-name="Trazado 1065014" d="M66.5,4.5H3.27A3.27,3.27,0,0,0,0,7.77V45.925A3.27,3.27,0,0,0,3.27,49.2H26.163v8.721a2.18,2.18,0,0,0-2.18,2.18v2.18a2.18,2.18,0,0,0,2.18,2.18H43.605a2.18,2.18,0,0,0,2.18-2.18V60.1a2.18,2.18,0,0,0-2.18-2.18V49.2H66.5a3.27,3.27,0,0,0,3.27-3.27V7.77A3.27,3.27,0,0,0,66.5,4.5ZM43.605,62.277H26.163V60.1H43.605Zm-8.721-6.541A3.815,3.815,0,0,0,38.7,51.921V49.2h2.725v8.721H28.343V49.2h2.725v2.725a3.815,3.815,0,0,0,3.815,3.815Zm-1.635-3.815V49.2h3.27v2.725a1.635,1.635,0,0,1-3.27,0Zm34.339-6a1.09,1.09,0,0,1-1.09,1.09H3.27a1.09,1.09,0,0,1-1.09-1.09v-1.09H67.588ZM17.333,19.876c-.131-.131-.276-.242-.415-.362a5.547,5.547,0,0,1-.654-2.63,5.669,5.669,0,0,1,2.269-4.541,5.669,5.669,0,0,1,2.278,4.541,5.535,5.535,0,0,1-.66,2.63c-.138.12-.283.232-.414.362a7.809,7.809,0,0,0-1.2,1.568,7.809,7.809,0,0,0-1.2-1.568Zm.052,6.364a5.65,5.65,0,0,1-6.415-6.416,5.651,5.651,0,0,1,6.415,6.416Zm3.894-4.822A5.647,5.647,0,0,1,26.1,19.824a5.65,5.65,0,0,1-6.415,6.416A5.669,5.669,0,0,1,21.279,21.419ZM67.588,42.654H19.622V40.415a7.823,7.823,0,0,0,8.452-9.8,1.09,1.09,0,0,0-.77-.77,7.849,7.849,0,0,0-7.568,2.027c-.041.043-.074.089-.114.132V28.424a7.823,7.823,0,0,0,8.452-9.8,1.09,1.09,0,0,0-.77-.77,7.815,7.815,0,0,0-4.393.117,7.763,7.763,0,0,0,.08-1.082A7.849,7.849,0,0,0,19.077,10.1a1.09,1.09,0,0,0-1.09,0,7.849,7.849,0,0,0-3.914,6.788,7.76,7.76,0,0,0,.08,1.081A7.825,7.825,0,0,0,9.76,17.85a1.09,1.09,0,0,0-.77.77,7.791,7.791,0,0,0,8.452,9.8V32c-.04-.043-.073-.089-.114-.132A7.849,7.849,0,0,0,9.76,29.841a1.09,1.09,0,0,0-.77.77,7.791,7.791,0,0,0,8.452,9.8v2.239H2.18V7.77A1.09,1.09,0,0,1,3.27,6.68H66.5a1.09,1.09,0,0,1,1.09,1.09ZM21.279,33.41A5.653,5.653,0,0,1,26.1,31.815a5.65,5.65,0,0,1-6.415,6.416,5.669,5.669,0,0,1,1.595-4.822Zm-3.9,4.822a5.65,5.65,0,0,1-6.415-6.416,5.651,5.651,0,0,1,6.415,6.416Z" transform="translate(0 -4.5)"/>
        <path id="Trazado_1065015" data-name="Trazado 1065015" d="M29.09,20.9h7.631a1.09,1.09,0,0,0,1.09-1.09v-3.27h4.361a1.09,1.09,0,0,0,1.09-1.09V11.09A1.09,1.09,0,0,0,42.172,10H31.27a1.09,1.09,0,0,0-1.09,1.09v4.361a1.09,1.09,0,0,0,1.09,1.09h4.361v2.18H29.09a1.09,1.09,0,0,0,0,2.18Zm3.27-6.541V12.18h8.721v2.18Z" transform="translate(2.524 -4.004)"/>
        <path id="Trazado_1065016" data-name="Trazado 1065016" d="M57.433,10h-10.9a1.09,1.09,0,0,0-1.09,1.09v4.361a1.09,1.09,0,0,0,1.09,1.09h4.361V20.9H46.532a1.09,1.09,0,0,0-1.09,1.09v1.09H29.09a1.09,1.09,0,0,0,0,2.18H45.442v1.09a1.09,1.09,0,0,0,1.09,1.09h4.361V31.8H46.532a1.09,1.09,0,0,0-1.09,1.09v4.361a1.09,1.09,0,0,0,1.09,1.09h10.9a1.09,1.09,0,0,0,1.09-1.09V32.893a1.09,1.09,0,0,0-1.09-1.09H53.073V27.442h4.361a1.09,1.09,0,0,0,1.09-1.09V21.991a1.09,1.09,0,0,0-1.09-1.09H53.073V16.541h4.361a1.09,1.09,0,0,0,1.09-1.09V11.09A1.09,1.09,0,0,0,57.433,10Zm-1.09,23.983v2.18H47.622v-2.18Zm0-10.9v2.18H47.622v-2.18Zm0-8.721H47.622V12.18h8.721Z" transform="translate(2.524 -4.004)"/>
        <path id="Trazado_1065017" data-name="Trazado 1065017" d="M42.172,30.361H37.811V27.09A1.09,1.09,0,0,0,36.721,26H29.09a1.09,1.09,0,0,0,0,2.18h6.541v2.18H31.27a1.09,1.09,0,0,0-1.09,1.09v4.361a1.09,1.09,0,0,0,1.09,1.09h10.9a1.09,1.09,0,0,0,1.09-1.09V31.451A1.09,1.09,0,0,0,42.172,30.361Zm-1.09,4.361H32.361v-2.18h8.721Z" transform="translate(2.524 -2.562)"/>
      </g>
    </g>
  </g>
</svg>
