<svg xmlns="http://www.w3.org/2000/svg" xmlns:xlink="http://www.w3.org/1999/xlink" width="118" height="118" viewBox="0 0 118 118">
  <defs>
    <filter id="Elipse_12115" x="0" y="0" width="118" height="118" filterUnits="userSpaceOnUse">
      <feOffset dy="3" input="SourceAlpha"/>
      <feGaussianBlur stdDeviation="3" result="blur"/>
      <feFlood flood-opacity="0.161"/>
      <feComposite operator="in" in2="blur"/>
      <feComposite in="SourceGraphic"/>
    </filter>
  </defs>
  <g id="Grupo_1197972" data-name="Grupo 1197972" transform="translate(-3566.731 8752.04)">
    <g id="Grupo_1184447" data-name="Grupo 1184447" transform="translate(2766.95 -11295.04)">
      <g transform="matrix(1, 0, 0, 1, 799.78, 2543)" filter="url(#Elipse_12115)">
        <g id="Elipse_12115-2" data-name="Elipse 12115" transform="translate(9 6)" fill="#cea499" stroke="#8f726a" stroke-width="3">
          <circle cx="50" cy="50" r="50" stroke="none"/>
          <circle cx="50" cy="50" r="48.5" fill="none"/>
        </g>
      </g>
    </g>
    <g id="_08-growth" data-name="08-growth" transform="translate(3591.753 -8729.042)">
      <circle id="Elipse_12285" data-name="Elipse 12285" cx="10.5" cy="10.5" r="10.5" transform="translate(10.978 1.042)" fill="#e2e8ed"/>
      <circle id="Elipse_12286" data-name="Elipse 12286" cx="6.5" cy="6.5" r="6.5" transform="translate(14.978 5.042)" fill="#cdebfc"/>
      <path id="Trazado_1065018" data-name="Trazado 1065018" d="M20.064,5A6.383,6.383,0,0,0,19,5.1,6.375,6.375,0,0,1,19,17.67,6.383,6.383,0,1,0,20.064,5Z" transform="translate(1.149 0.319)" fill="#8bc8e8"/>
      <path id="Trazado_1065019" data-name="Trazado 1065019" d="M30.638,23v2.128a4.255,4.255,0,0,1-4.255,4.255H20V27.255A4.255,4.255,0,0,1,24.255,23Z" transform="translate(1.212 1.468)" fill="#d7fa78"/>
      <path id="Trazado_1065020" data-name="Trazado 1065020" d="M28.51,23a4.255,4.255,0,0,1-4.255,4.255H20v2.128h6.383a4.255,4.255,0,0,0,4.255-4.255V23Z" transform="translate(1.212 1.468)" fill="#93d632"/>
      <path id="Trazado_1065021" data-name="Trazado 1065021" d="M20.638,35.255v2.128H14.255A4.255,4.255,0,0,1,10,33.128V31h6.383A4.255,4.255,0,0,1,20.638,35.255Z" transform="translate(0.574 1.978)" fill="#d7fa78"/>
      <path id="Trazado_1065022" data-name="Trazado 1065022" d="M12.128,31H10v2.128a4.255,4.255,0,0,0,4.255,4.255h6.383V35.255H16.383A4.255,4.255,0,0,1,12.128,31Z" transform="translate(0.574 1.978)" fill="#93d632"/>
      <path id="Trazado_1065023" data-name="Trazado 1065023" d="M54.638,23v2.128a4.255,4.255,0,0,1-4.255,4.255H44V27.255A4.255,4.255,0,0,1,48.255,23Z" transform="translate(2.744 1.468)" fill="#d7fa78"/>
      <path id="Trazado_1065024" data-name="Trazado 1065024" d="M52.51,23a4.255,4.255,0,0,1-4.255,4.255H44v2.128h6.383a4.255,4.255,0,0,0,4.255-4.255V23Z" transform="translate(2.744 1.468)" fill="#93d632"/>
      <path id="Trazado_1065025" data-name="Trazado 1065025" d="M44.638,35.255v2.128H38.255A4.255,4.255,0,0,1,34,33.128V31h6.383A4.255,4.255,0,0,1,44.638,35.255Z" transform="translate(2.106 1.978)" fill="#d7fa78"/>
      <path id="Trazado_1065026" data-name="Trazado 1065026" d="M36.128,31H34v2.128a4.255,4.255,0,0,0,4.255,4.255h6.383V35.255H40.383A4.255,4.255,0,0,1,36.128,31Z" transform="translate(2.106 1.978)" fill="#93d632"/>
      <path id="Trazado_1065027" data-name="Trazado 1065027" d="M44.638,19.255v2.128H38.255A4.255,4.255,0,0,1,34,17.128V15h6.383A4.255,4.255,0,0,1,44.638,19.255Z" transform="translate(2.106 0.957)" fill="#d7fa78"/>
      <path id="Trazado_1065028" data-name="Trazado 1065028" d="M36.128,15H34v2.128a4.255,4.255,0,0,0,4.255,4.255h6.383V19.255H40.383A4.255,4.255,0,0,1,36.128,15Z" transform="translate(2.106 0.957)" fill="#93d632"/>
      <path id="Trazado_1065029" data-name="Trazado 1065029" d="M31.276,41v6.383H10V41H31.276Z" transform="translate(0.574 2.616)" fill="#8ca4b8"/>
      <path id="Trazado_1065030" data-name="Trazado 1065030" d="M30.149,47v8.51l-2.128,2.128H13.128L11,55.51V47Z" transform="translate(0.638 2.999)" fill="#5c7c94"/>
      <path id="Trazado_1065031" data-name="Trazado 1065031" d="M11,47v2.128H28.021v8.51l2.128-2.128V47Z" transform="translate(0.638 2.999)" fill="#4b6276"/>
      <path id="Trazado_1065032" data-name="Trazado 1065032" d="M27,41h3.191v6.383H27Z" transform="translate(1.659 2.616)" fill="#a8bbc9"/>
      <path id="Trazado_1065033" data-name="Trazado 1065033" d="M55.276,41v6.383H34V41H55.276Z" transform="translate(2.106 2.616)" fill="#8ca4b8"/>
      <path id="Trazado_1065034" data-name="Trazado 1065034" d="M54.149,47v8.51l-2.128,2.128H37.128L35,55.51V47Z" transform="translate(2.17 2.999)" fill="#5c7c94"/>
      <path id="Trazado_1065035" data-name="Trazado 1065035" d="M35,47v2.128H52.021v8.51l2.128-2.128V47Z" transform="translate(2.17 2.999)" fill="#4b6276"/>
      <path id="Trazado_1065036" data-name="Trazado 1065036" d="M51,41h3.191v6.383H51Z" transform="translate(3.191 2.616)" fill="#a8bbc9"/>
      <g id="Grupo_1197971" data-name="Grupo 1197971" transform="translate(1)">
        <path id="Trazado_1065037" data-name="Trazado 1065037" d="M55.34,41.659H45.766V31.021h5.319A5.325,5.325,0,0,0,56.4,25.7V23.574A1.064,1.064,0,0,0,55.34,22.51H48.957A5.264,5.264,0,0,0,45.766,23.6V19.319A5.325,5.325,0,0,0,40.447,14H34.064A1.064,1.064,0,0,0,33,15.064v2.128a5.325,5.325,0,0,0,5.319,5.319h5.319v9.6a5.264,5.264,0,0,0-3.191-1.091H34.064A1.064,1.064,0,0,0,33,32.085v2.128a5.325,5.325,0,0,0,5.319,5.319h5.319v2.128H34.064A1.064,1.064,0,0,0,33,42.723v6.383a1.064,1.064,0,0,0,1.064,1.064v7.447a1.064,1.064,0,0,0,.312.752L36.5,60.5a1.064,1.064,0,0,0,.752.312h6.383v2.128h2.128V60.808h6.383A1.064,1.064,0,0,0,52.9,60.5l2.128-2.128a1.064,1.064,0,0,0,.312-.752V50.17A1.064,1.064,0,0,0,56.4,49.106V42.723A1.064,1.064,0,0,0,55.34,41.659ZM48.957,24.638h5.319V25.7a3.191,3.191,0,0,1-3.191,3.191H45.766V27.83A3.191,3.191,0,0,1,48.957,24.638Zm-13.83-7.447V16.128h5.319a3.191,3.191,0,0,1,3.191,3.191v1.064H38.319A3.191,3.191,0,0,1,35.128,17.191ZM38.319,37.4a3.191,3.191,0,0,1-3.191-3.191V33.149h5.319a3.191,3.191,0,0,1,3.191,3.191V37.4ZM53.212,57.176l-1.5,1.5H37.7l-1.5-1.5V50.17h11.7V48.042H35.128V43.787H54.276v4.255H50.021V50.17h3.191Z" transform="translate(1.042 0.893)" fill="#002026"/>
        <path id="Trazado_1065038" data-name="Trazado 1065038" d="M37,43h2.128v2.128H37Z" transform="translate(1.297 2.744)" fill="#002026"/>
        <path id="Trazado_1065039" data-name="Trazado 1065039" d="M41,43h2.128v2.128H41Z" transform="translate(1.552 2.744)" fill="#002026"/>
        <path id="Trazado_1065040" data-name="Trazado 1065040" d="M32.4,42.212a1.064,1.064,0,0,0-1.064-1.064H21.766V30.51h5.319A5.325,5.325,0,0,0,32.4,25.191V23.064A1.064,1.064,0,0,0,31.34,22H24.957a5.325,5.325,0,0,0-5.319,5.319V31.6a5.264,5.264,0,0,0-3.191-1.091H10.064A1.064,1.064,0,0,0,9,31.574V33.7a5.325,5.325,0,0,0,5.319,5.319h5.319v2.128H10.064A1.064,1.064,0,0,0,9,42.212V48.6a1.064,1.064,0,0,0,1.064,1.064v7.447a1.064,1.064,0,0,0,.312.752L12.5,59.986a1.064,1.064,0,0,0,.752.312h6.383v2.128h2.128V60.3h6.383a1.064,1.064,0,0,0,.752-.312l2.128-2.128a1.064,1.064,0,0,0,.312-.752V49.659A1.064,1.064,0,0,0,32.4,48.6ZM21.766,27.319a3.191,3.191,0,0,1,3.191-3.191h5.319v1.064a3.191,3.191,0,0,1-3.191,3.191H21.766Zm-7.447,9.574A3.191,3.191,0,0,1,11.128,33.7V32.638h5.319a3.191,3.191,0,0,1,3.191,3.191v1.064ZM29.212,56.665l-1.5,1.5H13.7l-1.5-1.5V49.659h11.7V47.531H11.128V43.276H30.276v4.255H26.021v2.128h3.191Z" transform="translate(-0.49 1.404)" fill="#002026"/>
        <path id="Trazado_1065041" data-name="Trazado 1065041" d="M13,43h2.128v2.128H13Z" transform="translate(-0.234 2.744)" fill="#002026"/>
        <path id="Trazado_1065042" data-name="Trazado 1065042" d="M17,43h2.128v2.128H17Z" transform="translate(0.021 2.744)" fill="#002026"/>
        <path id="Trazado_1065043" data-name="Trazado 1065043" d="M19,62h2.128v2.128H19Z" transform="translate(0.149 3.956)" fill="#002026"/>
        <path id="Trazado_1065044" data-name="Trazado 1065044" d="M23,62h2.128v2.128H23Z" transform="translate(0.404 3.956)" fill="#002026"/>
        <path id="Trazado_1065045" data-name="Trazado 1065045" d="M27,62h2.128v2.128H27Z" transform="translate(0.659 3.956)" fill="#002026"/>
        <path id="Trazado_1065046" data-name="Trazado 1065046" d="M31,62h2.128v2.128H31Z" transform="translate(0.914 3.956)" fill="#002026"/>
        <path id="Trazado_1065047" data-name="Trazado 1065047" d="M35,62h2.128v2.128H35Z" transform="translate(1.17 3.956)" fill="#002026"/>
        <path id="Trazado_1065048" data-name="Trazado 1065048" d="M39,62h2.128v2.128H39Z" transform="translate(1.425 3.956)" fill="#002026"/>
        <path id="Trazado_1065049" data-name="Trazado 1065049" d="M43,62h2.128v2.128H43Z" transform="translate(1.68 3.956)" fill="#002026"/>
        <path id="Trazado_1065050" data-name="Trazado 1065050" d="M20.7,23.4A11.7,11.7,0,1,0,9,11.7,11.7,11.7,0,0,0,20.7,23.4Zm0-21.276A9.574,9.574,0,1,1,11.128,11.7,9.574,9.574,0,0,1,20.7,2.128Z" transform="translate(-0.49)" fill="#002026"/>
        <path id="Trazado_1065051" data-name="Trazado 1065051" d="M20.447,18.893A7.447,7.447,0,1,0,13,11.447a7.447,7.447,0,0,0,7.447,7.447Zm0-12.766a5.319,5.319,0,1,1-5.319,5.319,5.319,5.319,0,0,1,5.319-5.319Z" transform="translate(-0.234 0.255)" fill="#002026"/>
        <path id="Trazado_1065052" data-name="Trazado 1065052" d="M22.5,15.2l1.5-1.5-2.88-2.88V7H19v4.255a1.064,1.064,0,0,0,.312.752Z" transform="translate(0.149 0.447)" fill="#002026"/>
        <path id="Trazado_1065053" data-name="Trazado 1065053" d="M43,11h2.128v2.128H43Z" transform="translate(1.68 0.702)" fill="#002026"/>
        <path id="Trazado_1065054" data-name="Trazado 1065054" d="M43,7h2.128V9.128H43Z" transform="translate(1.68 0.447)" fill="#002026"/>
        <path id="Trazado_1065055" data-name="Trazado 1065055" d="M43,3h2.128V5.128H43Z" transform="translate(1.68 0.191)" fill="#002026"/>
        <path id="Trazado_1065056" data-name="Trazado 1065056" d="M39,3h2.128V5.128H39Z" transform="translate(1.425 0.191)" fill="#002026"/>
        <path id="Trazado_1065057" data-name="Trazado 1065057" d="M35,3h2.128V5.128H35Z" transform="translate(1.17 0.191)" fill="#002026"/>
        <path id="Trazado_1065058" data-name="Trazado 1065058" d="M31,3h2.128V5.128H31Z" transform="translate(0.914 0.191)" fill="#002026"/>
        <path id="Trazado_1065059" data-name="Trazado 1065059" d="M56,6h2.128V8.128H56Z" transform="translate(2.51 0.383)" fill="#002026"/>
        <path id="Trazado_1065060" data-name="Trazado 1065060" d="M60,6h3.191V8.128H60Z" transform="translate(2.765 0.383)" fill="#002026"/>
        <path id="Trazado_1065061" data-name="Trazado 1065061" d="M56,10h7.447v2.128H56Z" transform="translate(2.51 0.638)" fill="#002026"/>
        <path id="Trazado_1065062" data-name="Trazado 1065062" d="M60.83,19.319V14H58.7v4.255H47v2.128H59.766A1.064,1.064,0,0,0,60.83,19.319Z" transform="translate(1.935 0.893)" fill="#002026"/>
        <path id="Trazado_1065063" data-name="Trazado 1065063" d="M6,14H8.128v2.128H6Z" transform="translate(-0.681 0.893)" fill="#002026"/>
        <path id="Trazado_1065064" data-name="Trazado 1065064" d="M1,14H4.191v2.128H1Z" transform="translate(-1 0.893)" fill="#002026"/>
        <path id="Trazado_1065065" data-name="Trazado 1065065" d="M1,18H8.447v2.128H1Z" transform="translate(-1 1.149)" fill="#002026"/>
        <path id="Trazado_1065066" data-name="Trazado 1065066" d="M17.83,26.255H6.128V22H4v5.319a1.064,1.064,0,0,0,1.064,1.064H17.83Z" transform="translate(-0.809 1.404)" fill="#002026"/>
        <path id="Trazado_1065067" data-name="Trazado 1065067" d="M56,52h2.128v2.128H56Z" transform="translate(2.51 3.318)" fill="#002026"/>
        <path id="Trazado_1065068" data-name="Trazado 1065068" d="M60,52h3.191v2.128H60Z" transform="translate(2.765 3.318)" fill="#002026"/>
        <path id="Trazado_1065069" data-name="Trazado 1065069" d="M56,48h7.447v2.128H56Z" transform="translate(2.51 3.063)" fill="#002026"/>
        <path id="Trazado_1065070" data-name="Trazado 1065070" d="M60.83,46.638V37.064A1.064,1.064,0,0,0,59.766,36H47v2.128H58.7v8.51Z" transform="translate(1.935 2.297)" fill="#002026"/>
        <path id="Trazado_1065071" data-name="Trazado 1065071" d="M6,52H8.128v2.128H6Z" transform="translate(-0.681 3.318)" fill="#002026"/>
        <path id="Trazado_1065072" data-name="Trazado 1065072" d="M1,52H4.191v2.128H1Z" transform="translate(-1 3.318)" fill="#002026"/>
        <path id="Trazado_1065073" data-name="Trazado 1065073" d="M1,48H8.447v2.128H1Z" transform="translate(-1 3.063)" fill="#002026"/>
        <path id="Trazado_1065074" data-name="Trazado 1065074" d="M4,37.064v9.574H6.128v-8.51H9.319V36H5.064A1.064,1.064,0,0,0,4,37.064Z" transform="translate(-0.809 2.297)" fill="#002026"/>
      </g>
    </g>
  </g>
</svg>
