<svg xmlns="http://www.w3.org/2000/svg" xmlns:xlink="http://www.w3.org/1999/xlink" width="220" height="173.993" viewBox="0 0 220 173.993">
  <defs>
    <filter id="Rect치ngulo_404858" x="0" y="0" width="220" height="173.993" filterUnits="userSpaceOnUse">
      <feOffset dx="3" dy="6" input="SourceAlpha"/>
      <feGaussianBlur stdDeviation="5" result="blur"/>
      <feFlood flood-opacity="0.161"/>
      <feComposite operator="in" in2="blur"/>
      <feComposite in="SourceGraphic"/>
    </filter>
  </defs>
  <g id="Grupo_1197997" data-name="Grupo 1197997" transform="translate(-194.051 -2788)">
    <g id="Grupo_1184454" data-name="Grupo 1184454" transform="translate(206.051 2797)">
      <g transform="matrix(1, 0, 0, 1, -12, -9)" filter="url(#Rect치ngulo_404858)">
        <rect id="Rect치ngulo_404858-2" data-name="Rect치ngulo 404858" width="190" height="143.993" rx="8" transform="translate(12 9)" fill="#1b5e69"/>
      </g>
    </g>
    <g id="_14-analysis" data-name="14-analysis" transform="translate(242.051 2809)">
      <path id="Trazado_1065210" data-name="Trazado 1065210" d="M20.114,59.1a9.124,9.124,0,0,0-.992,1.254l-4.154,6.231L13.715,68.46H0V58.88H20.338Z" transform="translate(0 51.288)" fill="#a67c52"/>
      <path id="Trazado_1065211" data-name="Trazado 1065211" d="M0,58.88H7.484v9.58H0Z" transform="translate(0 51.288)" fill="#b89675"/>
      <path id="Trazado_1065212" data-name="Trazado 1065212" d="M32.1,55.544a2.877,2.877,0,0,0-.318-.355,7.5,7.5,0,0,0-10.59,0,2.876,2.876,0,0,0-.318.356A7.484,7.484,0,0,0,19,60.484,7.37,7.37,0,0,0,19.879,64a7.484,7.484,0,0,0,13.21,0,7.37,7.37,0,0,0,.879-3.518A7.484,7.484,0,0,0,32.1,55.544Z" transform="translate(16.55 46.166)" fill="#736357"/>
      <path id="Trazado_1065213" data-name="Trazado 1065213" d="M23,53a7.484,7.484,0,1,1,0,14.968" transform="translate(20.034 46.166)" fill="#534741"/>
      <path id="Trazado_1065214" data-name="Trazado 1065214" d="M64.715,68.226,60.562,62a9.124,9.124,0,0,0-.992-1.254l-.225-.225A11.1,11.1,0,0,0,51.225,57H44.134a7.37,7.37,0,0,1-.879,3.518,7.484,7.484,0,0,1-13.21,0A7.37,7.37,0,0,1,29.165,57H22.074a11.1,11.1,0,0,0-8.12,3.518l-.225.225A9.124,9.124,0,0,0,12.737,62L8.584,68.226,7.33,70.1H65.969Z" transform="translate(6.385 49.65)" fill="#534741"/>
      <path id="Trazado_1065215" data-name="Trazado 1065215" d="M47.6,68.226,43.444,62a9.124,9.124,0,0,0-.992-1.254l-.225-.225A11.1,11.1,0,0,0,34.108,57H27.017c0,.187-.021.374-.036.561a11.073,11.073,0,0,1,4.638,2.956l.225.225A9.123,9.123,0,0,1,32.836,62l4.154,6.231L38.243,70.1H48.852Z" transform="translate(23.502 49.65)" fill="#3e3531"/>
      <path id="Trazado_1065216" data-name="Trazado 1065216" d="M8.565,68.226,12.718,62a9.123,9.123,0,0,1,.992-1.254l.225-.225A11.1,11.1,0,0,1,22.055,57h7.091c0,.187.022.374.036.561a11.073,11.073,0,0,0-4.638,2.956l-.226.225A9.124,9.124,0,0,0,23.325,62l-4.152,6.231L17.92,70.1H7.311Z" transform="translate(6.368 49.65)" fill="#6b625b"/>
      <path id="Trazado_1065217" data-name="Trazado 1065217" d="M42,7H71.937V79.971H42Z" transform="translate(36.584 6.097)" fill="#a3dee3"/>
      <path id="Trazado_1065218" data-name="Trazado 1065218" d="M51.968,31V44.1H40.742A3.753,3.753,0,0,1,37,40.355V34.742A3.77,3.77,0,0,1,40.742,31Z" transform="translate(32.229 27.003)" fill="#c76f28"/>
      <path id="Trazado_1065219" data-name="Trazado 1065219" d="M74.421,19V32.1H40.742A3.753,3.753,0,0,1,37,28.355V22.742A3.77,3.77,0,0,1,40.742,19Z" transform="translate(32.229 16.55)" fill="#0071bc"/>
      <path id="Trazado_1065220" data-name="Trazado 1065220" d="M61.324,7V20.1H40.742A3.753,3.753,0,0,1,37,16.355V10.742A3.77,3.77,0,0,1,40.742,7Z" transform="translate(32.229 6.097)" fill="#dd5757"/>
      <path id="Trazado_1065221" data-name="Trazado 1065221" d="M46,7h7.484V20.1H46Z" transform="translate(40.069 6.097)" fill="#a64141"/>
      <path id="Trazado_1065222" data-name="Trazado 1065222" d="M53,19h7.484V32.1H53Z" transform="translate(46.166 16.55)" fill="#00558d"/>
      <path id="Trazado_1065223" data-name="Trazado 1065223" d="M41,31h7.484V44.1H41Z" transform="translate(35.713 27.003)" fill="#95531e"/>
      <path id="Trazado_1065224" data-name="Trazado 1065224" d="M35.13,58.88H89.147v9.58H41.754L40.5,66.589l-4.154-6.231a9.124,9.124,0,0,0-.992-1.254Z" transform="translate(30.6 51.288)" fill="#a67c52"/>
      <path id="Trazado_1065225" data-name="Trazado 1065225" d="M54,58.88H72.711v9.58H54Z" transform="translate(47.037 51.288)" fill="#7d5d3e"/>
      <path id="Trazado_1065226" data-name="Trazado 1065226" d="M74.324,10.742v5.613A3.753,3.753,0,0,1,70.582,20.1H50V7H70.582A3.753,3.753,0,0,1,74.324,10.742Z" transform="translate(43.553 6.097)" fill="#d6d6d6"/>
      <path id="Trazado_1065227" data-name="Trazado 1065227" d="M68.226,22.742v5.613A3.753,3.753,0,0,1,64.484,32.1H57V19h7.484a3.753,3.753,0,0,1,3.742,3.742Z" transform="translate(49.65 16.55)" fill="#d6d6d6"/>
      <path id="Trazado_1065228" data-name="Trazado 1065228" d="M78.679,34.742v5.613A3.753,3.753,0,0,1,74.937,44.1H45V31H74.937A3.753,3.753,0,0,1,78.679,34.742Z" transform="translate(39.198 27.003)" fill="#d6d6d6"/>
      <path id="Trazado_1065229" data-name="Trazado 1065229" d="M20,76.816,22.807,28.58l.168.056a16.839,16.839,0,0,0,2.638.73,18.28,18.28,0,0,0,2.807-.786l2.807,48.236a2.877,2.877,0,0,0-.318-.355,7.5,7.5,0,0,0-10.59,0A2.876,2.876,0,0,0,20,76.816Z" transform="translate(17.421 24.895)" fill="#c69c6d"/>
      <path id="Trazado_1065230" data-name="Trazado 1065230" d="M23,29.366a18.28,18.28,0,0,0,2.807-.786l2.807,48.236a2.877,2.877,0,0,0-.318-.355A7.531,7.531,0,0,0,23,74.271Z" transform="translate(20.034 24.895)" fill="#957552"/>
      <path id="Trazado_1065231" data-name="Trazado 1065231" d="M25.058,1.78C29.567,5.223,39.84,14.821,39.84,30.258c0,14.632-9.243,19.908-14.033,21.667A18.28,18.28,0,0,1,23,52.71V2.192Z" transform="translate(20.034 1.55)" fill="#009245"/>
      <path id="Trazado_1065232" data-name="Trazado 1065232" d="M14,30.937C14,11.179,30.84,1,30.84,1A24.1,24.1,0,0,1,32.9,2.459l-2.058.412V53.39a16.839,16.839,0,0,1-2.638-.73l-.168-.056C23.262,50.864,14,45.587,14,30.937Z" transform="translate(12.195 0.871)" fill="#8cc63f"/>
      <path id="Trazado_1065233" data-name="Trazado 1065233" d="M1,28.293S37.561,20.453,37.561,60.1L27.195,51.083,21.582,46.2Z" transform="translate(0.871 24.097)" fill="#8cc63f"/>
      <path id="Trazado_1065234" data-name="Trazado 1065234" d="M1,28,21.582,45.906l5.613,4.883,10.366,9.019S1,70.192,1,28Z" transform="translate(0.871 24.39)" fill="#009245"/>
      <g id="Grupo_1197995" data-name="Grupo 1197995" transform="translate(0 0)">
        <path id="Trazado_1065235" data-name="Trazado 1065235" d="M82.776,6H41.613A5.641,5.641,0,0,0,36,11.613v5.613a5.613,5.613,0,0,0,5.613,5.613H82.776a5.613,5.613,0,0,0,5.613-5.613V11.613A5.613,5.613,0,0,0,82.776,6ZM39.742,17.226V11.613a1.822,1.822,0,0,1,.573-1.332,1.791,1.791,0,0,1,1.3-.539H60.324V19.1H41.613A1.871,1.871,0,0,1,39.742,17.226Zm44.905,0A1.871,1.871,0,0,1,82.776,19.1H64.066V9.742H82.776a1.871,1.871,0,0,1,1.871,1.871Z" transform="translate(31.358 5.226)" fill="#202020"/>
        <path id="Trazado_1065236" data-name="Trazado 1065236" d="M82.776,18H41.613A5.641,5.641,0,0,0,36,23.613v5.613a5.613,5.613,0,0,0,5.613,5.613H82.776a5.613,5.613,0,0,0,5.613-5.613V23.613A5.613,5.613,0,0,0,82.776,18ZM39.742,29.226V23.613a1.822,1.822,0,0,1,.573-1.332,1.791,1.791,0,0,1,1.3-.539H73.421V31.1H41.613A1.871,1.871,0,0,1,39.742,29.226Zm44.905,0A1.871,1.871,0,0,1,82.776,31.1H77.163V21.742h5.613a1.871,1.871,0,0,1,1.871,1.871Z" transform="translate(31.358 15.679)" fill="#202020"/>
        <path id="Trazado_1065237" data-name="Trazado 1065237" d="M82.776,30H41.613A5.641,5.641,0,0,0,36,35.613v5.613a5.613,5.613,0,0,0,5.613,5.613H82.776a5.613,5.613,0,0,0,5.613-5.613V35.613A5.613,5.613,0,0,0,82.776,30ZM39.742,41.226V35.613a1.822,1.822,0,0,1,.573-1.332,1.791,1.791,0,0,1,1.3-.539h9.355V43.1H41.613A1.871,1.871,0,0,1,39.742,41.226Zm44.905,0A1.871,1.871,0,0,1,82.776,43.1H54.711V33.742H82.776a1.871,1.871,0,0,1,1.871,1.871Z" transform="translate(31.358 26.132)" fill="#202020"/>
        <path id="Trazado_1065238" data-name="Trazado 1065238" d="M54.87,61.483a3.71,3.71,0,0,1-2.644,1.1H42.871a1.871,1.871,0,1,0,0,3.742h9.355a7.484,7.484,0,0,0,7.484-7.484V51.355h13.1a1.871,1.871,0,0,0,1.871-1.871V43.871a1.871,1.871,0,1,0-3.742,0v3.742H44.742V43.871a1.871,1.871,0,0,0-3.742,0v5.613a1.871,1.871,0,0,0,1.871,1.871h13.1V58.84a3.716,3.716,0,0,1-1.1,2.644Z" transform="translate(35.713 36.585)" fill="#202020"/>
        <path id="Trazado_1065239" data-name="Trazado 1065239" d="M117.877,108.521H66.715a13.008,13.008,0,0,0-9.1-3.742H52.184a9.38,9.38,0,0,0-1.7-3.714L47.787,54.7c5.033-2.2,13.958-8.173,13.958-22.892,0-16.342-10.852-26.393-15.511-29.961A25.48,25.48,0,0,0,44,.269a1.871,1.871,0,0,0-1.935,0C41.35.707,24.324,11.226,24.324,31.808c0,14.746,8.923,20.705,13.958,22.9l-.748,12.869a26.689,26.689,0,0,0-8.046-11.241C18.1,47.13,2.152,50.416,1.48,50.56a1.724,1.724,0,0,0-.236.1,1.943,1.943,0,0,0-.268.107,1.808,1.808,0,0,0-.4.311c-.036.036-.084.051-.116.09l-.015.026a1.821,1.821,0,0,0-.341.6c-.021.064-.019.129-.034.187A1.871,1.871,0,0,0,0,52.39v.129C.024,66.273,3.853,76.137,11.385,81.827a29.145,29.145,0,0,0,17.721,5.385,41.065,41.065,0,0,0,7.321-.664l-.844,14.506a9.38,9.38,0,0,0-1.7,3.725H28.463a12.987,12.987,0,0,0-9.108,3.742H1.871a1.871,1.871,0,1,0,0,3.742H16.465l-3.05,4.575a1.871,1.871,0,0,0,3.113,2.077l4.156-6.233a7.065,7.065,0,0,1,.748-.965l.268-.268a9.252,9.252,0,0,1,6.758-2.928h5.426a9.011,9.011,0,0,0,.9,2.53,9.355,9.355,0,0,0,16.5.013,9.059,9.059,0,0,0,.9-2.543h5.426a9.3,9.3,0,0,1,6.8,2.969l.187.187a7.233,7.233,0,0,1,.79,1l4.154,6.231a1.871,1.871,0,1,0,3.113-2.077l-3.05-4.569h48.273a1.871,1.871,0,0,0,0-3.742ZM41.959,55.945c.434.1.722.153.78.163a1.82,1.82,0,0,0,.6,0c.022,0,.3-.052.767-.163l2.447,42.043a9.3,9.3,0,0,0-7.045,0ZM28.066,31.808c0-13.545,8.517-22.423,13.1-26.221V37.421a1.871,1.871,0,0,0,3.742,0V5.57C49.486,9.322,58,18.136,58,31.808c0,13.232-8.025,18.149-12.789,19.9l-.309.1V46.777a1.871,1.871,0,0,0-3.742,0v5.039l-.294-.1c-4.782-1.746-12.8-6.652-12.8-19.91ZM13.629,78.83C7.842,74.448,4.6,66.971,3.914,56.646L21.225,71.708a1.871,1.871,0,1,0,2.455-2.825L6.279,53.737c5.11-.341,14.095.022,20.879,5.521,5.437,4.4,8.513,11.365,9.226,20.668L29.3,73.767a1.871,1.871,0,1,0-2.455,2.825L34.3,83.075c-4.9.675-13.818.945-20.67-4.245Zm34.36,30.455a5.613,5.613,0,0,1-9.917-.015,5.458,5.458,0,0,1-.651-2.619,5.643,5.643,0,0,1,1.409-3.707c.041-.051.187-.2.223-.256a5.647,5.647,0,0,1,3.982-1.65,5.74,5.74,0,0,1,4.086,1.755c.037.052.077.1.118.152a5.643,5.643,0,0,1,1.409,3.707,5.48,5.48,0,0,1-.659,2.634Z" transform="translate(0 0)" fill="#202020"/>
        <path id="Trazado_1065240" data-name="Trazado 1065240" d="M36.871,56.742h3.742a1.871,1.871,0,1,0,0-3.742H36.871a1.871,1.871,0,1,0,0,3.742Z" transform="translate(30.487 46.166)" fill="#202020"/>
      </g>
    </g>
  </g>
</svg>
