<svg xmlns="http://www.w3.org/2000/svg" xmlns:xlink="http://www.w3.org/1999/xlink" width="220" height="173.993" viewBox="0 0 220 173.993">
  <defs>
    <filter id="Rectángulo_404858" x="0" y="0" width="220" height="173.993" filterUnits="userSpaceOnUse">
      <feOffset dx="3" dy="6" input="SourceAlpha"/>
      <feGaussianBlur stdDeviation="5" result="blur"/>
      <feFlood flood-opacity="0.161"/>
      <feComposite operator="in" in2="blur"/>
      <feComposite in="SourceGraphic"/>
    </filter>
  </defs>
  <g id="Grupo_1197960" data-name="Grupo 1197960" transform="translate(-194.467 -598)">
    <g id="Grupo_1113681" data-name="Grupo 1113681" transform="translate(206.467 607)">
      <g transform="matrix(1, 0, 0, 1, -12, -9)" filter="url(#Rectángulo_404858)">
        <rect id="Rectángulo_404858-2" data-name="Rectángulo 404858" width="190" height="143.993" rx="8" transform="translate(12 9)" fill="#1b5e69"/>
      </g>
    </g>
    <g id="coloring_12963289" transform="translate(237.02 599.752)">
      <g id="Grupo_1197951" data-name="Grupo 1197951" transform="translate(7.5 26.697)">
        <path id="Trazado_1064847" data-name="Trazado 1064847" d="M118.36,102.085l-5.147-.458H73.844A2.526,2.526,0,0,1,72.185,101l-2.425-2.109a2.527,2.527,0,0,0-1.659-.625h-7.31a2.526,2.526,0,0,0-1.659.625L56.708,101a2.527,2.527,0,0,1-1.659.625H10.075A2.617,2.617,0,0,0,7.5,104.284v76.659a2.617,2.617,0,0,0,2.575,2.658H55.152a2.249,2.249,0,0,1,1.477.557h0a11.327,11.327,0,0,0,7.437,2.8h.762a11.328,11.328,0,0,0,7.437-2.8h0a2.25,2.25,0,0,1,1.477-.557h39.117l5.5-.458a2.617,2.617,0,0,0,2.575-2.658V104.742A2.618,2.618,0,0,0,118.36,102.085Z" transform="translate(-7.5 -81.866)" fill="#7a8c98"/>
        <g id="Grupo_1197944" data-name="Grupo 1197944" transform="translate(53.975 16.401)">
          <path id="Trazado_1064848" data-name="Trazado 1064848" d="M247.135,101a2.544,2.544,0,0,0,1.666.625h6.6a2.526,2.526,0,0,1-1.659-.625l-2.424-2.109a2.527,2.527,0,0,0-1.659-.625h-6.626a2.543,2.543,0,0,1,1.666.625Z" transform="translate(-243.035 -98.267)" fill="#687c87"/>
          <path id="Trazado_1064849" data-name="Trazado 1064849" d="M471.676,112.927h-6.418c1.428,0,.294,1.19.294,2.658v68.3l2.292,3.586v4.777a2.622,2.622,0,0,1-2.585,2.658h6.418a2.617,2.617,0,0,0,2.575-2.658V115.585A2.617,2.617,0,0,0,471.676,112.927Z" transform="translate(-414.333 -109.568)" fill="#687c87"/>
        </g>
        <path id="Trazado_1064850" data-name="Trazado 1064850" d="M136.538,79.172v78.341a1.329,1.329,0,0,1-1.329,1.329H87.718L86,157.762l-1.719,1.08H36.789a1.329,1.329,0,0,1-1.329-1.329V79.2a1.417,1.417,0,0,1,1.068-1.375l5.021-1.281a77.432,77.432,0,0,1,38.015-.064l4.716,1.185L86,81.269l1.719-3.609,4.693-1.194a77.435,77.435,0,0,1,40.1.5l3,.841A1.42,1.42,0,0,1,136.538,79.172Z" transform="translate(-29.053 -63.213)" fill="#eef5f6"/>
        <g id="Grupo_1197946" data-name="Grupo 1197946" transform="translate(17.01 23.311)">
          <g id="Grupo_1197945" data-name="Grupo 1197945">
            <path id="Trazado_1064851" data-name="Trazado 1064851" d="M143.545,141.394a2.919,2.919,0,0,1-4.551-1.834q-.041-.222-.074-.448a10.582,10.582,0,0,1,4.387-10.154,2.919,2.919,0,0,1,4.552,1.834q.041.222.074.448A10.581,10.581,0,0,1,143.545,141.394Z" transform="translate(-125.731 -128.423)" fill="#fe5ca7"/>
            <path id="Trazado_1064852" data-name="Trazado 1064852" d="M115.853,209.191a2.919,2.919,0,0,1-4.551-1.834q-.042-.222-.074-.448a10.582,10.582,0,0,1,4.387-10.154,2.919,2.919,0,0,1,4.552,1.834q.041.222.074.448A10.581,10.581,0,0,1,115.853,209.191Z" transform="translate(-104.385 -180.683)" fill="#fe5ca7"/>
            <path id="Trazado_1064853" data-name="Trazado 1064853" d="M94.7,162.308a2.919,2.919,0,0,1-1.834,4.551q-.222.041-.448.074a10.582,10.582,0,0,1-10.154-4.387,2.919,2.919,0,0,1,1.834-4.552q.222-.041.448-.074A10.58,10.58,0,0,1,94.7,162.308Z" transform="translate(-81.729 -151.078)" fill="#fe5ca7"/>
            <path id="Trazado_1064854" data-name="Trazado 1064854" d="M162.5,190a2.919,2.919,0,0,1-1.834,4.551q-.222.041-.448.074a10.582,10.582,0,0,1-10.154-4.387,2.919,2.919,0,0,1,1.834-4.552q.222-.041.448-.074A10.581,10.581,0,0,1,162.5,190Z" transform="translate(-133.99 -172.424)" fill="#fe5ca7"/>
            <path id="Trazado_1064855" data-name="Trazado 1064855" d="M92.952,185.9a2.915,2.915,0,0,1,1.937,4.491q-.135.2-.281.393a10.581,10.581,0,0,1-10.283,4.078,2.916,2.916,0,0,1-1.938-4.492q.135-.2.281-.392A10.581,10.581,0,0,1,92.952,185.9Z" transform="translate(-81.853 -172.605)" fill="#fe7ab6"/>
            <path id="Trazado_1064856" data-name="Trazado 1064856" d="M160.473,157.537a2.915,2.915,0,0,1,1.937,4.491q-.135.2-.281.393a10.581,10.581,0,0,1-10.283,4.078,2.916,2.916,0,0,1-1.938-4.492q.135-.2.281-.392A10.581,10.581,0,0,1,160.473,157.537Z" transform="translate(-133.901 -150.745)" fill="#fe7ab6"/>
            <path id="Trazado_1064857" data-name="Trazado 1064857" d="M139.2,198.54a2.915,2.915,0,0,1,4.491-1.937q.2.135.393.281a10.581,10.581,0,0,1,4.078,10.283,2.916,2.916,0,0,1-4.492,1.938q-.2-.135-.392-.281A10.581,10.581,0,0,1,139.2,198.54Z" transform="translate(-125.912 -180.595)" fill="#fe7ab6"/>
            <path id="Trazado_1064858" data-name="Trazado 1064858" d="M156.78,280.744a.453.453,0,0,1,.379.429A10.723,10.723,0,0,1,144.4,292.056a10.72,10.72,0,0,1,12.383-11.312Z" transform="translate(-130.016 -245.733)" fill="#ade194"/>
            <path id="Trazado_1064859" data-name="Trazado 1064859" d="M88.928,280.744a.453.453,0,0,0-.379.429,10.723,10.723,0,0,0,12.761,10.883,10.72,10.72,0,0,0-12.383-11.312Z" transform="translate(-86.981 -245.733)" fill="#ade194"/>
            <path id="Trazado_1064860" data-name="Trazado 1064860" d="M110.845,131.02a2.915,2.915,0,0,1,4.491-1.937q.2.135.393.281a10.581,10.581,0,0,1,4.078,10.283,2.916,2.916,0,0,1-4.492,1.938q-.2-.135-.392-.281A10.581,10.581,0,0,1,110.845,131.02Z" transform="translate(-104.053 -128.548)" fill="#fe7ab6"/>
            <circle id="Elipse_12278" data-name="Elipse 12278" cx="5.213" cy="5.213" r="5.213" transform="translate(7.559 17.444) rotate(-67.785)" fill="#fece85"/>
          </g>
        </g>
        <g id="Grupo_1197948" data-name="Grupo 1197948" transform="translate(63.855 23.37)">
          <path id="Trazado_1064861" data-name="Trazado 1064861" d="M321.826,210.232c0,8.058-4.606,14.754-11.864,17.143a4.662,4.662,0,0,1-3.519.132h0a5.22,5.22,0,0,0-4.066.115h0a5.215,5.215,0,0,1-3.734.181,18.2,18.2,0,0,1-9.289-27.6,8.142,8.142,0,0,1,6.716-3.474h.275a8.408,8.408,0,0,1,5.942,2.463l.328.328a2.637,2.637,0,0,0,3.729,0l.321-.321a8.409,8.409,0,0,1,5.946-2.463h0c2.67,0,3.2,1.133,4.713,3.331C319.342,203,321.826,206.4,321.826,210.232Z" transform="translate(-286.146 -181.134)" fill="#ade194"/>
          <g id="Grupo_1197947" data-name="Grupo 1197947" transform="translate(16.728 15.602)">
            <path id="Trazado_1064862" data-name="Trazado 1064862" d="M375.593,200.238a8.14,8.14,0,0,0-6.714-3.477h0a8.416,8.416,0,0,0-1.09.073,7.889,7.889,0,0,1,.929,1.111,18.1,18.1,0,0,1,3.2,10.308c0,8.057-5.51,16.814-12.768,19.2l-.008,0a4.854,4.854,0,0,1,3.42.186,5.214,5.214,0,0,0,3.734.181,18.2,18.2,0,0,0,9.295-27.589Z" transform="translate(-359.144 -196.761)" fill="#97da7b"/>
          </g>
          <path id="Trazado_1064863" data-name="Trazado 1064863" d="M317.706,136.67a9.93,9.93,0,0,0,8.272,2.227,9.952,9.952,0,0,0-11.351-10.122.465.465,0,0,0-.4.468A9.923,9.923,0,0,0,317.706,136.67Z" transform="translate(-307.792 -128.676)" fill="#ade194"/>
        </g>
        <g id="Grupo_1197950" data-name="Grupo 1197950" transform="translate(77.436)">
          <g id="Grupo_1197949" data-name="Grupo 1197949">
            <path id="Trazado_1064864" data-name="Trazado 1064864" d="M347.3,219.959l7.644-.621,1.732,5.671-8.686,7.964a1.539,1.539,0,0,1-2.56-1.379Z" transform="translate(-345.409 -175.192)" fill="#97da7b"/>
            <path id="Trazado_1064865" data-name="Trazado 1064865" d="M349.3,184.527a2.758,2.758,0,0,0,1.117,3.725l3.679,1.982,4.462,1.339a2.758,2.758,0,0,0,3.725-1.117l2.917-3.165-3.422-9.344-10.057,2.084Z" transform="translate(-348.156 -143.286)" fill="#eef5f6"/>
            <path id="Trazado_1064866" data-name="Trazado 1064866" d="M448.021,35.759a2.758,2.758,0,0,0-1.117-3.725l-3.774-3.086-3.57-1.923a2.758,2.758,0,0,0-3.725,1.117l-2.409,4.473,4.352,7.082,9.127.178Z" transform="translate(-413.255 -26.697)" fill="#eef5f6"/>
            <path id="Trazado_1064867" data-name="Trazado 1064867" d="M377.572,52.515l-16.6,30.828,7.616,4.1,5.863,1.456,15.4-29.192-4.657-3.092Z" transform="translate(-357.403 -46.599)" fill="#97da7b"/>
            <path id="Trazado_1064868" data-name="Trazado 1064868" d="M379.373,182.244l-5.319,9.876a2.759,2.759,0,0,1-2.724,1.427l4.957,2.67a2.758,2.758,0,0,0,3.725-1.117l2.422-4.5Z" transform="translate(-365.39 -146.599)" fill="#deecf1"/>
            <path id="Trazado_1064869" data-name="Trazado 1064869" d="M468.357,38.791l-5.316-2.863a3.241,3.241,0,0,1,.475,3.609l-3.935,7.306,7.485.146,2.409-4.473A2.758,2.758,0,0,0,468.357,38.791Z" transform="translate(-433.417 -33.813)" fill="#deecf1"/>
            <rect id="Rectángulo_414829" data-name="Rectángulo 414829" width="35.015" height="6.659" transform="translate(11.181 40.848) rotate(-61.692)" fill="#80d261"/>
          </g>
        </g>
      </g>
      <g id="Grupo_1197959" data-name="Grupo 1197959" transform="translate(7.5 26.697)">
        <path id="Trazado_1064870" data-name="Trazado 1064870" d="M470.5,194.9h5.218a2.617,2.617,0,0,0,2.575-2.658V115.585a2.617,2.617,0,0,0-2.575-2.658h-3.505" transform="translate(-364.396 -93.167)" fill="none" stroke="#000" stroke-linecap="round" stroke-linejoin="round" stroke-miterlimit="10" stroke-width="2"/>
        <path id="Trazado_1064871" data-name="Trazado 1064871" d="M13.688,112.927H10.075A2.617,2.617,0,0,0,7.5,115.585v76.659a2.617,2.617,0,0,0,2.575,2.658H55.152a2.249,2.249,0,0,1,1.477.557h0a11.327,11.327,0,0,0,7.437,2.8h.762a11.328,11.328,0,0,0,7.437-2.8h0a2.25,2.25,0,0,1,1.477-.557H105.58" transform="translate(-7.5 -93.167)" fill="none" stroke="#000" stroke-linecap="round" stroke-linejoin="round" stroke-miterlimit="10" stroke-width="2"/>
        <path id="Trazado_1064872" data-name="Trazado 1064872" d="M162.317,74.239a77.448,77.448,0,0,1,15.034,2.241l6.435,1.617,6.411-1.633a77.449,77.449,0,0,1,30.928-1.491" transform="translate(-126.839 -63.212)" fill="none" stroke="#000" stroke-linecap="round" stroke-linejoin="round" stroke-miterlimit="10" stroke-width="2"/>
        <path id="Trazado_1064873" data-name="Trazado 1064873" d="M73.211,159.494H36.788a1.329,1.329,0,0,1-1.329-1.329V79.853a1.419,1.419,0,0,1,1.069-1.375l5.021-1.28a77.449,77.449,0,0,1,14.858-2.283" transform="translate(-29.052 -63.865)" fill="none" stroke="#000" stroke-linecap="round" stroke-linejoin="round" stroke-miterlimit="10" stroke-width="2"/>
        <path id="Trazado_1064874" data-name="Trazado 1064874" d="M290.5,115.351v73.984a1.329,1.329,0,0,1-1.329,1.329H235.2" transform="translate(-183.019 -95.035)" fill="none" stroke="#000" stroke-linecap="round" stroke-linejoin="round" stroke-miterlimit="10" stroke-width="2"/>
        <line id="Línea_575" data-name="Línea 575" y2="79.615" transform="translate(56.946 15.217)" fill="none" stroke="#000" stroke-linecap="round" stroke-linejoin="round" stroke-miterlimit="10" stroke-width="2"/>
        <g id="Grupo_1197953" data-name="Grupo 1197953" transform="translate(17.01 23.311)">
          <line id="Línea_576" data-name="Línea 576" y2="18.04" transform="translate(14.355 25.698)" fill="none" stroke="#000" stroke-linecap="round" stroke-linejoin="round" stroke-miterlimit="10" stroke-width="2"/>
          <g id="Grupo_1197952" data-name="Grupo 1197952">
            <path id="Trazado_1064875" data-name="Trazado 1064875" d="M145.429,132.16a10.627,10.627,0,0,1,2.979-3.2,2.919,2.919,0,0,1,4.552,1.834q.041.222.074.448a10.558,10.558,0,0,1-.183,3.968" transform="translate(-130.832 -128.423)" fill="none" stroke="#000" stroke-linecap="round" stroke-linejoin="round" stroke-miterlimit="10" stroke-width="2"/>
            <path id="Trazado_1064876" data-name="Trazado 1064876" d="M118.883,228.516a10.623,10.623,0,0,1-3.03,3.287,2.919,2.919,0,0,1-4.551-1.834q-.042-.222-.074-.448a10.556,10.556,0,0,1,.183-3.968" transform="translate(-104.385 -203.295)" fill="none" stroke="#000" stroke-linecap="round" stroke-linejoin="round" stroke-miterlimit="10" stroke-width="2"/>
            <path id="Trazado_1064877" data-name="Trazado 1064877" d="M85.53,165.562a10.624,10.624,0,0,1-3.264-3.016,2.919,2.919,0,0,1,1.834-4.552q.222-.041.448-.074a10.557,10.557,0,0,1,3.968.183" transform="translate(-81.729 -151.077)" fill="none" stroke="#000" stroke-linecap="round" stroke-linejoin="round" stroke-miterlimit="10" stroke-width="2"/>
            <path id="Trazado_1064878" data-name="Trazado 1064878" d="M181.9,192.1a10.623,10.623,0,0,1,3.21,2.984,2.919,2.919,0,0,1-1.834,4.551q-.222.041-.448.074a10.558,10.558,0,0,1-3.968-.183" transform="translate(-156.602 -177.506)" fill="none" stroke="#000" stroke-linecap="round" stroke-linejoin="round" stroke-miterlimit="10" stroke-width="2"/>
            <path id="Trazado_1064879" data-name="Trazado 1064879" d="M93.639,191.905a10.592,10.592,0,0,1-9.312,2.955,2.916,2.916,0,0,1-1.938-4.492q.135-.2.281-.392a10.565,10.565,0,0,1,8.365-4.233" transform="translate(-81.854 -172.608)" fill="none" stroke="#000" stroke-linecap="round" stroke-linejoin="round" stroke-miterlimit="10" stroke-width="2"/>
            <path id="Trazado_1064880" data-name="Trazado 1064880" d="M156.228,160.686a10.589,10.589,0,0,1,9.5-3.148,2.915,2.915,0,0,1,1.937,4.491q-.135.2-.281.393a10.567,10.567,0,0,1-8.644,4.232" transform="translate(-139.156 -150.745)" fill="none" stroke="#000" stroke-linecap="round" stroke-linejoin="round" stroke-miterlimit="10" stroke-width="2"/>
            <path id="Trazado_1064881" data-name="Trazado 1064881" d="M145.069,203.135a10.589,10.589,0,0,1,3.1,9.451,2.916,2.916,0,0,1-4.492,1.938q-.2-.135-.392-.281a10.565,10.565,0,0,1-4.233-8.384" transform="translate(-125.914 -186.014)" fill="none" stroke="#000" stroke-linecap="round" stroke-linejoin="round" stroke-miterlimit="10" stroke-width="2"/>
            <path id="Trazado_1064882" data-name="Trazado 1064882" d="M157.139,280.808A10.722,10.722,0,0,1,144.4,292.056a10.719,10.719,0,0,1,12.742-11.248Z" transform="translate(-130.016 -245.733)" fill="none" stroke="#000" stroke-linecap="round" stroke-linejoin="round" stroke-miterlimit="10" stroke-width="2"/>
            <path id="Trazado_1064883" data-name="Trazado 1064883" d="M88.568,280.808a10.722,10.722,0,0,0,12.742,11.248,10.719,10.719,0,0,0-12.742-11.248Z" transform="translate(-86.981 -245.733)" fill="none" stroke="#000" stroke-linecap="round" stroke-linejoin="round" stroke-miterlimit="10" stroke-width="2"/>
            <path id="Trazado_1064884" data-name="Trazado 1064884" d="M113.834,140.365a10.591,10.591,0,0,1-2.988-9.346,2.915,2.915,0,0,1,4.491-1.937q.2.135.393.281a10.567,10.567,0,0,1,4.233,8.59" transform="translate(-104.053 -128.547)" fill="none" stroke="#000" stroke-linecap="round" stroke-linejoin="round" stroke-miterlimit="10" stroke-width="2"/>
            <circle id="Elipse_12279" data-name="Elipse 12279" cx="5.213" cy="5.213" r="5.213" transform="translate(7.559 17.444) rotate(-67.785)" fill="none" stroke="#000" stroke-linecap="round" stroke-linejoin="round" stroke-miterlimit="10" stroke-width="2"/>
          </g>
        </g>
        <g id="Grupo_1197954" data-name="Grupo 1197954" transform="translate(63.855 23.37)">
          <path id="Trazado_1064885" data-name="Trazado 1064885" d="M318.467,199.174a7.894,7.894,0,0,1,.856,1.039,18.2,18.2,0,0,1-9.3,27.589,5.215,5.215,0,0,1-3.734-.181h0a4.856,4.856,0,0,0-3.917,0h0a5.215,5.215,0,0,1-3.734.181,18.2,18.2,0,0,1-9.289-27.6,8.142,8.142,0,0,1,6.716-3.474h.275a8.408,8.408,0,0,1,4.662,1.413" transform="translate(-286.146 -181.134)" fill="none" stroke="#000" stroke-linecap="round" stroke-linejoin="round" stroke-miterlimit="10" stroke-width="2"/>
          <line id="Línea_577" data-name="Línea 577" y1="0.696" transform="translate(18.19 10.386)" fill="none" stroke="#000" stroke-linecap="round" stroke-linejoin="round" stroke-miterlimit="10" stroke-width="2"/>
          <path id="Trazado_1064886" data-name="Trazado 1064886" d="M317.7,136.67a9.929,9.929,0,0,0,8.272,2.227,9.952,9.952,0,0,0-11.749-10.057A9.928,9.928,0,0,0,317.7,136.67Z" transform="translate(-307.788 -128.676)" fill="none" stroke="#000" stroke-linecap="round" stroke-linejoin="round" stroke-miterlimit="10" stroke-width="2"/>
        </g>
        <g id="Grupo_1197957" data-name="Grupo 1197957" transform="translate(77.436)">
          <g id="Grupo_1197956" data-name="Grupo 1197956">
            <path id="Trazado_1064887" data-name="Trazado 1064887" d="M356.676,227.1l-8.686,7.964a1.539,1.539,0,0,1-2.559-1.379l1.87-11.635" transform="translate(-345.409 -177.281)" fill="none" stroke="#000" stroke-linecap="round" stroke-linejoin="round" stroke-miterlimit="10" stroke-width="2"/>
            <g id="Grupo_1197955" data-name="Grupo 1197955" transform="translate(0.817)">
              <path id="Trazado_1064888" data-name="Trazado 1064888" d="M361.911,44.525l8.824-16.384a2.758,2.758,0,0,1,3.725-1.117l8.637,4.652a2.758,2.758,0,0,1,1.117,3.725L362.779,75.2a2.758,2.758,0,0,1-3.725,1.117l-8.637-4.652a2.758,2.758,0,0,1-1.117-3.725l8.806-16.349" transform="translate(-348.974 -26.698)" fill="none" stroke="#000" stroke-linecap="round" stroke-linejoin="round" stroke-miterlimit="10" stroke-width="2"/>
              <line id="Línea_578" data-name="Línea 578" x1="13.022" y1="7.013" transform="translate(3.011 36.886)" fill="none" stroke="#000" stroke-linecap="round" stroke-linejoin="round" stroke-miterlimit="10" stroke-width="2"/>
              <line id="Línea_579" data-name="Línea 579" x1="13.479" y1="7.26" transform="translate(19.367 5.924)" fill="none" stroke="#000" stroke-linecap="round" stroke-linejoin="round" stroke-miterlimit="10" stroke-width="2"/>
            </g>
          </g>
        </g>
        <g id="Grupo_1197958" data-name="Grupo 1197958" transform="translate(15.813 79.454)">
          <line id="Línea_580" data-name="Línea 580" x2="31.738" fill="none" stroke="#000" stroke-linecap="round" stroke-linejoin="round" stroke-miterlimit="10" stroke-width="2"/>
          <line id="Línea_581" data-name="Línea 581" x2="31.738" transform="translate(50.529)" fill="none" stroke="#000" stroke-linecap="round" stroke-linejoin="round" stroke-miterlimit="10" stroke-width="2"/>
        </g>
        <line id="Línea_582" data-name="Línea 582" x2="22.253" transform="translate(20.555 86.534)" fill="none" stroke="#000" stroke-linecap="round" stroke-linejoin="round" stroke-miterlimit="10" stroke-width="2"/>
        <line id="Línea_583" data-name="Línea 583" x2="22.253" transform="translate(70.918 86.534)" fill="none" stroke="#000" stroke-linecap="round" stroke-linejoin="round" stroke-miterlimit="10" stroke-width="2"/>
      </g>
    </g>
  </g>
</svg>
