<svg xmlns="http://www.w3.org/2000/svg" width="100" height="100" viewBox="0 0 100 100">
  <g id="Grupo_1150106" data-name="Grupo 1150106" transform="translate(16265.764 9019.525)">
    <g id="Grupo_1112415" data-name="Grupo 1112415" transform="translate(-16265.764 -9019.525)">
      <g id="Grupo_1098742" data-name="Grupo 1098742" transform="translate(0 0)">
        <g id="Rectángulo_400898" data-name="Rectángulo 400898" transform="translate(0.001 0)" fill="#ffedd9" stroke="#fd951f" stroke-width="3">
          <rect width="100" height="100" rx="50" stroke="none"/>
          <rect x="1.5" y="1.5" width="97" height="97" rx="48.5" fill="none"/>
        </g>
        <g id="Rectángulo_400907" data-name="Rectángulo 400907" transform="translate(0 0)" fill="none" stroke="#fd951f" stroke-width="3">
          <rect width="100" height="100" rx="50" stroke="none"/>
          <rect x="1.5" y="1.5" width="97" height="97" rx="48.5" fill="none"/>
        </g>
      </g>
    </g>
    <g id="inspire-idea_14781822_1_" data-name="inspire-idea_14781822 (1)" transform="translate(-16254.347 -9009.89)">
      <g id="Grupo_1173811" data-name="Grupo 1173811" transform="translate(7.75 7.5)">
        <path id="Trazado_1030754" data-name="Trazado 1030754" d="M118.589,348.094v-4.516a2.746,2.746,0,0,0,2.232-2.7v-7.766h14.185v7.766a2.747,2.747,0,0,0,2.232,2.7l.386,3.89Z" transform="translate(-104.823 -292.673)" fill="#ca6e59"/>
        <path id="Trazado_1030755" data-name="Trazado 1030755" d="M65.384,19.724c0,8.936-4.809,19.552-17.052,16.04L38.117,31.118a4.034,4.034,0,0,1-.266-5.965l1.031-.284.713-.709a4.262,4.262,0,0,1,.854-7.312.376.376,0,0,0,.22-.437,4.046,4.046,0,0,1-.113-.952,3.938,3.938,0,0,1,3.895-3.979,3.9,3.9,0,0,1,.758.076,1.849,1.849,0,0,1,.294-.3,1.573,1.573,0,0,0,.653-1.372,4.39,4.39,0,0,1,6.15-.434.37.37,0,0,0,.556-.089,3.853,3.853,0,0,1,6.6,0,.371.371,0,0,0,.557.089,4.375,4.375,0,0,1,.875-.581C65.384,10.231,65.384,16.5,65.384,19.724Z" transform="translate(-33.069 -7.5)" fill="#73788c"/>
        <path id="Trazado_1030756" data-name="Trazado 1030756" d="M157.968,34.321a4,4,0,0,1-1.457,3.1l-11.684,6.349H134.383l-3.743-1.7a18.352,18.352,0,0,0,12.557-26.9,4.347,4.347,0,0,1,1.977-.473,4.407,4.407,0,0,1,3.3,1.489l.2,1,.743.668a3.9,3.9,0,0,1,.756-.076,3.938,3.938,0,0,1,3.9,3.979,4.068,4.068,0,0,1-.2,1.273,4.258,4.258,0,0,1,1.166,7.428A3.966,3.966,0,0,1,157.968,34.321Z" transform="translate(-115.377 -13.806)" fill="#5e6577"/>
        <path id="Trazado_1030757" data-name="Trazado 1030757" d="M73.794,201.857a6.8,6.8,0,0,0,5.18-6.6h0a2.7,2.7,0,0,0-2.7-2.7H73.793l-27.238,0H44.079a2.7,2.7,0,0,0-2.7,2.7h0a6.8,6.8,0,0,0,5.18,6.6Z" transform="translate(-37.199 -169.566)" fill="#ca6e59"/>
        <path id="Trazado_1030758" data-name="Trazado 1030758" d="M103.594,131a2.69,2.69,0,0,1,3.513,1.157,10.8,10.8,0,0,0,.9,1.369l.587.781c.249.725.8,4.113,1.569,4.113v10.316a8.606,8.606,0,0,1-2.939,6.478l-5.344,4.677a5.736,5.736,0,0,1-3.777,1.418H94.935a5.736,5.736,0,0,1-3.777-1.418l-5.344-4.677a8.605,8.605,0,0,1-2.939-6.478V138.417a1.827,1.827,0,0,0,1.7-1.248l1.177-4.592a2.69,2.69,0,0,1,3.705-1.555l.172.082,1.384.53a15.329,15.329,0,0,0,10.969,0l1.384-.53Z" transform="translate(-73.544 -115.433)" fill="#d78878"/>
        <path id="Trazado_1030759" data-name="Trazado 1030759" d="M171.2,300.819c-2.947,0-3.078-2.72-3.028-3.706a.372.372,0,0,1,.372-.352h5.3a.372.372,0,0,1,.372.361C174.242,298.116,174.047,300.819,171.2,300.819Z" transform="translate(-148.239 -260.834)" fill="#eaf6ff"/>
        <path id="Trazado_1030760" data-name="Trazado 1030760" d="M15.918,441.3l-7.8-.018a.372.372,0,0,1-.373-.372v-6.922a.373.373,0,0,1,.2-.332A12.048,12.048,0,0,1,11.2,432.54l.9-.18,7.922,2.939Z" transform="translate(-7.75 -379.592)" fill="#9be69d"/>
        <path id="Trazado_1030761" data-name="Trazado 1030761" d="M300.916,435.956l-3.007,4.907-10.381.008-3.756-6.578c.041-.042,7.593-2.413,7.593-2.413l.513.1a12.052,12.052,0,0,1,3.394,1.195Z" transform="translate(-249.49 -379.172)" fill="#9be69d"/>
        <path id="Trazado_1030762" data-name="Trazado 1030762" d="M125.746,418.39l1.134,5.7-4.1,4.964-12.451.014-4.723-5.206,1.762-5.442A12.753,12.753,0,0,0,125.746,418.39Z" transform="translate(-93.453 -367.357)" fill="#eaf6ff"/>
        <path id="Trazado_1030763" data-name="Trazado 1030763" d="M51.518,411.318l-3.391-12.195a1.365,1.365,0,0,0-1.712-.94l-7.539,2.3a.591.591,0,0,0-.369.806l1.591,3.6a.373.373,0,0,0,.257.213l3.875.889a.373.373,0,0,1,.222.576l-2.1,3.014a.373.373,0,0,0-.045.339l.506,1.4Z" transform="translate(-34.642 -349.608)" fill="#bbf49b"/>
        <path id="Trazado_1030764" data-name="Trazado 1030764" d="M243.879,411.1l3.4-12.209a1.364,1.364,0,0,1,1.712-.939l7.539,2.3a.592.592,0,0,1,.369.806l-1.59,3.6a.372.372,0,0,1-.258.213l-3.875.889a.373.373,0,0,0-.222.577l2.1,3.014a.372.372,0,0,1,.045.339l-.508,1.417Z" transform="translate(-214.552 -349.408)" fill="#bbf49b"/>
        <g id="Grupo_1173808" data-name="Grupo 1173808" transform="translate(45.977 33.692)">
          <path id="Trazado_1030765" data-name="Trazado 1030765" d="M392.691,387.922V392.7a14.549,14.549,0,0,1-.327,2.9,10.174,10.174,0,0,1-1.177,2.117c-.753,1.267-.423,2.571-.418,4.044l-.954.61H380.4v-2.044a5.136,5.136,0,0,0-1.351-3.471,4.252,4.252,0,0,1-1.117-2.869v-2.058a2.519,2.519,0,0,1,1.076-2.064Z" transform="translate(-377.933 -374.365)" fill="#d78878"/>
          <g id="Grupo_1173807" data-name="Grupo 1173807" transform="translate(11.488 8.02)">
            <path id="Trazado_1030766" data-name="Trazado 1030766" d="M473.7,344.151v4.736a.993.993,0,0,1-.4.889c-.3.3-1.345-.158-1.8-.154l-.81-.866-.262-3.079.859-.664a1.665,1.665,0,0,1,1.622-1.663C473.453,343.553,473.7,343.834,473.7,344.151Z" transform="translate(-470.425 -343.35)" fill="#d78878"/>
            <path id="Trazado_1030767" data-name="Trazado 1030767" d="M482.175,345v3.742a1.667,1.667,0,0,1-3.014.979l-.107-.113a1.667,1.667,0,0,0,1.652-1.667v-3.738a1.656,1.656,0,0,0-.242-.866h.045A1.666,1.666,0,0,1,482.175,345Z" transform="translate(-477.982 -343.34)" fill="#ca6e59"/>
          </g>
          <path id="Trazado_1030768" data-name="Trazado 1030768" d="M477.358,386.87v4.982a8.123,8.123,0,0,1-1.143,4.155,8.127,8.127,0,0,0-1.141,4.186l0,.878a.373.373,0,0,1-.372.374h-1.146l0-1.252a8.139,8.139,0,0,1,1.143-4.186,8.121,8.121,0,0,0,1.143-4.154v-4.767Z" transform="translate(-461.678 -373.444)" fill="#ca6e59"/>
          <path id="Trazado_1030769" data-name="Trazado 1030769" d="M391.914,281.63v13.453c0,.966-1.581,1.756-2.547,1.756l.821-2.194-1.136-1.08V281.63a1.758,1.758,0,0,1,1.036-1.6A1.624,1.624,0,0,1,391.914,281.63Z" transform="translate(-387.671 -279.874)" fill="#d78878"/>
          <path id="Trazado_1030770" data-name="Trazado 1030770" d="M418.246,332.451v4.414c0,.712-1.156,1.328-1.767,1.6a1.76,1.76,0,0,1-1.04-1.6l-.429-.095V332.6l.429-.152a1.76,1.76,0,0,1,1.04-1.6C417.953,331.038,418.246,331.741,418.246,332.451Z" transform="translate(-410.406 -324.382)" fill="#d78878"/>
          <path id="Trazado_1030771" data-name="Trazado 1030771" d="M447.868,332.451v4.681c0,.71-1.285,1.327-1.9,1.6a1.759,1.759,0,0,1-1.04-1.6l-.419-.267v-4.224l.419-.19a1.76,1.76,0,0,1,1.04-1.6C447.637,331.076,447.868,331.741,447.868,332.451Z" transform="translate(-436.245 -324.382)" fill="#d78878"/>
          <path id="Trazado_1030772" data-name="Trazado 1030772" d="M400.011,280.526v12.737a.794.794,0,0,1-1.582,0V280.526a1.761,1.761,0,0,0-1.035-1.6,1.729,1.729,0,0,1,.72-.156h.14A1.761,1.761,0,0,1,400.011,280.526Z" transform="translate(-394.977 -278.77)" fill="#ca6e59"/>
          <path id="Trazado_1030773" data-name="Trazado 1030773" d="M429.448,331.356v4.414a1.762,1.762,0,0,1-1.756,1.758h-.142a1.715,1.715,0,0,1-.717-.155,1.76,1.76,0,0,0,1.04-1.6v-4.414a1.76,1.76,0,0,0-1.04-1.6,1.717,1.717,0,0,1,.717-.155h.142A1.762,1.762,0,0,1,429.448,331.356Z" transform="translate(-420.76 -323.287)" fill="#ca6e59"/>
          <path id="Trazado_1030774" data-name="Trazado 1030774" d="M458.868,331.356v4.681a1.762,1.762,0,0,1-1.757,1.756h-.14a1.711,1.711,0,0,1-.717-.155,1.759,1.759,0,0,0,1.038-1.6v-4.681a1.76,1.76,0,0,0-1.038-1.6,1.712,1.712,0,0,1,.717-.155h.14A1.763,1.763,0,0,1,458.868,331.356Z" transform="translate(-446.526 -323.287)" fill="#ca6e59"/>
          <path id="Trazado_1030775" data-name="Trazado 1030775" d="M401.383,367.424a3.784,3.784,0,0,1-.08.773c-.326,1.562-2.651,1.756-4.3,1.927a5.254,5.254,0,0,0-3.113-.424c-.985.3-1.6,1.886-1.618,1.875l-3.224-1.687V368.3l3.113-2.238a3.487,3.487,0,0,1,1.993-.649l5.168-.049A2.061,2.061,0,0,1,401.383,367.424Z" transform="translate(-387.669 -354.611)" fill="#ca6e59"/>
          <path id="Trazado_1030776" data-name="Trazado 1030776" d="M391.33,381.94l1.47-1.979a.373.373,0,0,1,.254-.148l3.178-.385a2.522,2.522,0,0,0,1.738-2.419.848.848,0,0,0-.854-.83h-4.676a3.156,3.156,0,0,0-1.811.57l-4.036,2.824Z" transform="translate(-385.519 -364.081)" fill="#d78878"/>
        </g>
        <g id="Grupo_1173810" data-name="Grupo 1173810" transform="translate(34.126 1.756)">
          <path id="Trazado_1030777" data-name="Trazado 1030777" d="M307.429,31.586a14.468,14.468,0,0,1-14.366,14.691c-2.621,0-8.375-1.923-9.123-4.012l.142-.571a.369.369,0,0,0-.032-.26,13.562,13.562,0,0,1,21-16.418A12.874,12.874,0,0,1,307.429,31.586Z" transform="translate(-282.517 -21.635)" fill="#eaf6ff"/>
          <path id="Trazado_1030778" data-name="Trazado 1030778" d="M310.532,61.91a13.583,13.583,0,0,1-20.356,8.673.37.37,0,0,0-.263-.048L284.32,71.6a.373.373,0,0,1-.432-.456l1.243-5.03A14.625,14.625,0,0,0,306.24,48.865,13.529,13.529,0,0,1,310.532,61.91Z" transform="translate(-283.708 -45.483)" fill="#d8ecfe"/>
          <g id="Grupo_1173809" data-name="Grupo 1173809" transform="translate(6.563 3.379)">
            <path id="Trazado_1030779" data-name="Trazado 1030779" d="M347.755,56.457c0,3.634-3.817,7.149-7.525,7.149-.562,0-1.171.382-2.153-1.069a7.9,7.9,0,0,0-.972-1.709,6.732,6.732,0,0,1,3.8-11.146C346,49.682,347.755,53.225,347.755,56.457Z" transform="translate(-335.361 -49.577)" fill="#ffe177"/>
            <path id="Trazado_1030780" data-name="Trazado 1030780" d="M366.521,55.569a6.707,6.707,0,0,1-1.713,4.485,8.127,8.127,0,0,0-1.63,4.846v.421l-6.777.022v-.372a11.375,11.375,0,0,0-.833-3.7,6.816,6.816,0,0,0,1.631.2c3.708,0,6.921-2.415,6.921-6.049a6.618,6.618,0,0,0-5.519-6.473,6.736,6.736,0,0,1,7.92,6.627Z" transform="translate(-353.058 -48.837)" fill="#ffd15b"/>
            <path id="Trazado_1030781" data-name="Trazado 1030781" d="M367.52,179.51l1.054,2.058c0,1.117-.669,2.058-3.074,2.058h-.528a2.021,2.021,0,0,1-2.021-2.021V179.51h4.569Z" transform="translate(-359.524 -163.28)" fill="#5e6577"/>
            <path id="Trazado_1030782" data-name="Trazado 1030782" d="M387.534,179.511v2.094a2.021,2.021,0,0,1-2.021,2.021h-2.039a2.02,2.02,0,0,0,2.02-2.021v-2.094Z" transform="translate(-377.498 -163.281)" fill="#4d5263"/>
            <path id="Trazado_1030783" data-name="Trazado 1030783" d="M355.677,160.791c0,.447.271.954,0,1.248a8.139,8.139,0,0,1-2.7.641H348a1.564,1.564,0,0,1-1.5-1.62,1.688,1.688,0,0,1,.439-1.147,1.446,1.446,0,0,1,1.062-.474h4.971C353.8,159.439,355.677,159.9,355.677,160.791Z" transform="translate(-345.12 -145.702)" fill="#73788c"/>
            <path id="Trazado_1030784" data-name="Trazado 1030784" d="M402.834,161.06a1.685,1.685,0,0,1-.439,1.146,1.447,1.447,0,0,1-1.062.474h-2.722a1.444,1.444,0,0,0,1.062-.474,1.686,1.686,0,0,0,.439-1.146,1.564,1.564,0,0,0-1.5-1.621h2.722A1.564,1.564,0,0,1,402.834,161.06Z" transform="translate(-390.755 -145.702)" fill="#5e6577"/>
          </g>
        </g>
      </g>
      <g id="Grupo_1173820" data-name="Grupo 1173820" transform="translate(7.75 7.5)">
        <g id="Grupo_1173812" data-name="Grupo 1173812" transform="translate(4.176 22.987)">
          <path id="Trazado_1030785" data-name="Trazado 1030785" d="M46.493,201.869a6.8,6.8,0,0,1-5.117-6.588h0a2.7,2.7,0,0,1,2.7-2.7h2.476" transform="translate(-41.376 -192.577)" fill="none" stroke="#000" stroke-linecap="round" stroke-linejoin="round" stroke-miterlimit="10" stroke-width="0.8"/>
          <path id="Trazado_1030786" data-name="Trazado 1030786" d="M307.79,232.041a6.811,6.811,0,0,1-4.733,4.382" transform="translate(-270.556 -227.14)" fill="none" stroke="#000" stroke-linecap="round" stroke-linejoin="round" stroke-miterlimit="10" stroke-width="0.8"/>
        </g>
        <path id="Trazado_1030787" data-name="Trazado 1030787" d="M209.872,132.5a15.325,15.325,0,0,0,3.332-.863l1.384-.53.23-.108a2.69,2.69,0,0,1,3.69,1.562" transform="translate(-184.768 -115.433)" fill="none" stroke="#000" stroke-linecap="round" stroke-linejoin="round" stroke-miterlimit="10" stroke-width="0.8"/>
        <path id="Trazado_1030788" data-name="Trazado 1030788" d="M110.165,143.558v5.3a8.606,8.606,0,0,1-2.939,6.478l-5.344,4.677a5.736,5.736,0,0,1-3.777,1.419H94.935a5.736,5.736,0,0,1-3.777-1.419l-5.344-4.677a8.605,8.605,0,0,1-2.939-6.478V138.546a1.827,1.827,0,0,0,1.7-1.248l1.177-4.592a2.69,2.69,0,0,1,3.705-1.555l.172.082,1.384.53a15.318,15.318,0,0,0,3.311.86" transform="translate(-73.544 -115.562)" fill="none" stroke="#000" stroke-linecap="round" stroke-linejoin="round" stroke-miterlimit="10" stroke-width="0.8"/>
        <g id="Grupo_1173814" data-name="Grupo 1173814" transform="translate(15.092 21.806)">
          <g id="Grupo_1173813" data-name="Grupo 1173813">
            <path id="Trazado_1030789" data-name="Trazado 1030789" d="M184.7,262.089a2.879,2.879,0,0,1-2.611,0" transform="translate(-175.528 -252.275)" fill="none" stroke="#000" stroke-linecap="round" stroke-linejoin="round" stroke-miterlimit="10" stroke-width="0.8"/>
            <path id="Trazado_1030790" data-name="Trazado 1030790" d="M134.042,183.685a4.967,4.967,0,0,0-4.775,0" transform="translate(-129.266 -183.073)" fill="none" stroke="#000" stroke-linecap="round" stroke-linejoin="round" stroke-miterlimit="10" stroke-width="0.8"/>
            <path id="Trazado_1030791" data-name="Trazado 1030791" d="M222.261,183.685a4.967,4.967,0,0,0-4.775,0" transform="translate(-206.529 -183.073)" fill="none" stroke="#000" stroke-linecap="round" stroke-linejoin="round" stroke-miterlimit="10" stroke-width="0.8"/>
            <line id="Línea_813" data-name="Línea 813" y1="2.116" transform="translate(13.345 3.586)" fill="none" stroke="#000" stroke-linecap="round" stroke-linejoin="round" stroke-miterlimit="10" stroke-width="0.8"/>
            <line id="Línea_814" data-name="Línea 814" y1="2.116" transform="translate(2.388 3.586)" fill="none" stroke="#000" stroke-linecap="round" stroke-linejoin="round" stroke-miterlimit="10" stroke-width="0.8"/>
          </g>
          <path id="Trazado_1030792" data-name="Trazado 1030792" d="M171.2,300.819c-3.6,0-3-4.059-3-4.059H174.2S174.689,300.819,171.2,300.819Z" transform="translate(-163.331 -282.64)" fill="none" stroke="#000" stroke-linecap="round" stroke-linejoin="round" stroke-miterlimit="10" stroke-width="0.8"/>
        </g>
        <path id="Trazado_1030793" data-name="Trazado 1030793" d="M70.833,12.872a3.84,3.84,0,0,0-3.718-1.317,4.47,4.47,0,0,0-4.245-3.16,4.4,4.4,0,0,0-3.189,1.373,3.862,3.862,0,0,0-7.035,0,4.4,4.4,0,0,0-3.189-1.373,4.47,4.47,0,0,0-4.245,3.16,3.838,3.838,0,0,0-.758-.076,3.938,3.938,0,0,0-3.9,3.979,4.049,4.049,0,0,0,.2,1.273A4.259,4.259,0,0,0,39.6,24.16a4.013,4.013,0,0,0-1.478,6.958" transform="translate(-33.073 -7.5)" fill="none" stroke="#000" stroke-linecap="round" stroke-linejoin="round" stroke-miterlimit="10" stroke-width="0.8"/>
        <path id="Trazado_1030794" data-name="Trazado 1030794" d="M62.085,142.353a3.9,3.9,0,0,1-1.758-.712" transform="translate(-53.797 -124.981)" fill="none" stroke="#000" stroke-linecap="round" stroke-linejoin="round" stroke-miterlimit="10" stroke-width="0.8"/>
        <path id="Trazado_1030795" data-name="Trazado 1030795" d="M105.6,40.2a3.7,3.7,0,0,1,2.343,1.556" transform="translate(-93.447 -36.138)" fill="none" stroke="#000" stroke-linecap="round" stroke-linejoin="round" stroke-miterlimit="10" stroke-width="0.8"/>
        <path id="Trazado_1030796" data-name="Trazado 1030796" d="M268.428,40.183a3.7,3.7,0,0,0-1.882,1.434" transform="translate(-234.403 -36.124)" fill="none" stroke="#000" stroke-linecap="round" stroke-linejoin="round" stroke-miterlimit="10" stroke-width="0.8"/>
        <path id="Trazado_1030797" data-name="Trazado 1030797" d="M307.058,35.929q-.062.393-.148.788a13.982,13.982,0,0,1-21.083,8.851L279.337,46.8l1.6-6.488A13.946,13.946,0,0,1,290.918,20" transform="translate(-245.569 -18.449)" fill="none" stroke="#000" stroke-linecap="round" stroke-linejoin="round" stroke-miterlimit="10" stroke-width="0.8"/>
        <path id="Trazado_1030798" data-name="Trazado 1030798" d="M407.545,19.544q.5.072,1,.18a13.962,13.962,0,0,1,10.834,11.457" transform="translate(-357.89 -18.048)" fill="none" stroke="#000" stroke-linecap="round" stroke-linejoin="round" stroke-miterlimit="10" stroke-width="0.8"/>
        <g id="Grupo_1173815" data-name="Grupo 1173815" transform="translate(40.689 5.137)">
          <path id="Trazado_1030799" data-name="Trazado 1030799" d="M338.281,62.368a7.94,7.94,0,0,0-1.184-2.279,6.724,6.724,0,1,1,10-.034,8.293,8.293,0,0,0-1.2,2.286" transform="translate(-335.355 -48.863)" fill="none" stroke="#000" stroke-linecap="round" stroke-linejoin="round" stroke-miterlimit="10" stroke-width="0.8"/>
          <line id="Línea_815" data-name="Línea 815" y1="4.944" transform="translate(6.724 8.534)" fill="none" stroke="#000" stroke-linecap="round" stroke-linejoin="round" stroke-miterlimit="10" stroke-width="0.8"/>
          <path id="Trazado_1030800" data-name="Trazado 1030800" d="M369.52,186.134v.765a2.484,2.484,0,0,1-2.484,2.484H365.4a2.484,2.484,0,0,1-2.484-2.484v-.765" transform="translate(-359.495 -169.085)" fill="none" stroke="#000" stroke-linecap="round" stroke-linejoin="round" stroke-miterlimit="10" stroke-width="0.8"/>
          <path id="Trazado_1030801" data-name="Trazado 1030801" d="M357.259,161.1h-6.692a1.7,1.7,0,0,1-1.7-1.7v-.1a1.7,1.7,0,0,1,1.7-1.7h6.692a1.7,1.7,0,0,1,1.7,1.7v.1A1.7,1.7,0,0,1,357.259,161.1Z" transform="translate(-347.189 -144.09)" fill="none" stroke="#000" stroke-linecap="round" stroke-linejoin="round" stroke-miterlimit="10" stroke-width="0.8"/>
          <line id="Línea_816" data-name="Línea 816" x2="4.305" transform="translate(4.661 8.523)" fill="none" stroke="#000" stroke-linecap="round" stroke-linejoin="round" stroke-miterlimit="10" stroke-width="0.8"/>
        </g>
        <path id="Trazado_1030802" data-name="Trazado 1030802" d="M346.53,432.2l.312.059a12.03,12.03,0,0,1,3.394,1.195" transform="translate(-304.453 -379.448)" fill="none" stroke="#000" stroke-linecap="round" stroke-linejoin="round" stroke-miterlimit="10" stroke-width="0.8"/>
        <path id="Trazado_1030803" data-name="Trazado 1030803" d="M250.768,358.351v4.631a2.747,2.747,0,0,0,2.232,2.7" transform="translate(-220.585 -314.775)" fill="none" stroke="#000" stroke-linecap="round" stroke-linejoin="round" stroke-miterlimit="10" stroke-width="0.8"/>
        <path id="Trazado_1030804" data-name="Trazado 1030804" d="M118.589,417.362h0a12.755,12.755,0,0,0,18.649,0h0" transform="translate(-104.823 -366.457)" fill="none" stroke="#000" stroke-linecap="round" stroke-linejoin="round" stroke-miterlimit="10" stroke-width="0.8"/>
        <path id="Trazado_1030805" data-name="Trazado 1030805" d="M11.687,367.625l-.488.1a12.03,12.03,0,0,0-3.448,1.224m16-10.6v4.631a2.747,2.747,0,0,1-2.232,2.7l-.143.027" transform="translate(-7.75 -314.775)" fill="none" stroke="#000" stroke-linecap="round" stroke-linejoin="round" stroke-miterlimit="10" stroke-width="0.8"/>
        <g id="Grupo_1173816" data-name="Grupo 1173816" transform="translate(3.472 48.516)">
          <path id="Trazado_1030806" data-name="Trazado 1030806" d="M47.324,406.131l-1.949-7.008a1.365,1.365,0,0,0-1.712-.94l-7.539,2.3a.591.591,0,0,0-.369.806l1.666,3.772,4.6,1.054-2.529,3.624.573,1.6" transform="translate(-35.703 -398.124)" fill="none" stroke="#000" stroke-linecap="round" stroke-linejoin="round" stroke-miterlimit="10" stroke-width="0.8"/>
          <line id="Línea_817" data-name="Línea 817" x1="0.283" y1="1.017" transform="translate(12.785 12.195)" fill="none" stroke="#000" stroke-linecap="round" stroke-linejoin="round" stroke-miterlimit="10" stroke-width="0.8"/>
          <path id="Trazado_1030807" data-name="Trazado 1030807" d="M244.868,411.337l3.4-12.213a1.364,1.364,0,0,1,1.712-.939l7.539,2.3a.592.592,0,0,1,.369.806l-1.666,3.772-4.6,1.054,2.529,3.625-.573,1.6" transform="translate(-218.89 -398.125)" fill="none" stroke="#000" stroke-linecap="round" stroke-linejoin="round" stroke-miterlimit="10" stroke-width="0.8"/>
        </g>
        <g id="Grupo_1173819" data-name="Grupo 1173819" transform="translate(45.985 33.728)">
          <g id="Grupo_1173817" data-name="Grupo 1173817" transform="translate(12.347 8.02)">
            <path id="Trazado_1030808" data-name="Trazado 1030808" d="M480.745,345.291a1.665,1.665,0,0,0-1.664-1.665h0a1.667,1.667,0,0,0-1.667,1.667v3.738a1.667,1.667,0,0,0,1.667,1.667h0a1.667,1.667,0,0,0,1.667-1.667Z" transform="translate(-477.412 -343.626)" fill="none" stroke="#000" stroke-linecap="round" stroke-linejoin="round" stroke-miterlimit="10" stroke-width="0.8"/>
            <path id="Trazado_1030809" data-name="Trazado 1030809" d="M490.831,400.563" transform="translate(-489.164 -393.491)" fill="none" stroke="#000" stroke-linecap="round" stroke-linejoin="round" stroke-miterlimit="10" stroke-width="0.8"/>
          </g>
          <g id="Grupo_1173818" data-name="Grupo 1173818" transform="translate(13.396 13.472)">
            <path id="Trazado_1030810" data-name="Trazado 1030810" d="M488.142,387.53v4.981A8.09,8.09,0,0,1,487,396.62h0a8.131,8.131,0,0,0-1.142,4.185l0,1.252" transform="translate(-485.857 -387.53)" fill="none" stroke="#000" stroke-linecap="round" stroke-linejoin="round" stroke-miterlimit="10" stroke-width="0.8"/>
          </g>
          <path id="Trazado_1030811" data-name="Trazado 1030811" d="M433.859,414.75a6.814,6.814,0,0,1,1.455,6.23l-.052.2" transform="translate(-426.921 -397.897)" fill="none" stroke="#000" stroke-linecap="round" stroke-linejoin="round" stroke-miterlimit="10" stroke-width="0.8"/>
          <path id="Trazado_1030812" data-name="Trazado 1030812" d="M389.115,294.258V280.813a1.761,1.761,0,0,1,1.756-1.756h.141a1.762,1.762,0,0,1,1.756,1.756v10.924" transform="translate(-387.734 -279.057)" fill="none" stroke="#000" stroke-linecap="round" stroke-linejoin="round" stroke-miterlimit="10" stroke-width="0.8"/>
          <path id="Trazado_1030813" data-name="Trazado 1030813" d="M418.532,331.649a1.761,1.761,0,0,1,1.756-1.756h.141a1.762,1.762,0,0,1,1.756,1.756v4" transform="translate(-413.498 -323.579)" fill="none" stroke="#000" stroke-linecap="round" stroke-linejoin="round" stroke-miterlimit="10" stroke-width="0.8"/>
          <path id="Trazado_1030814" data-name="Trazado 1030814" d="M447.947,335.6v-3.955a1.762,1.762,0,0,1,1.756-1.756h.141a1.761,1.761,0,0,1,1.756,1.756v1.677" transform="translate(-439.259 -323.579)" fill="none" stroke="#000" stroke-linecap="round" stroke-linejoin="round" stroke-miterlimit="10" stroke-width="0.8"/>
          <path id="Trazado_1030815" data-name="Trazado 1030815" d="M383.81,382.229l1.566-2.107,3.138-.4a2.522,2.522,0,0,0,1.739-2.4.854.854,0,0,0-.854-.853h-4.477a3.156,3.156,0,0,0-1.811.57l-4.035,2.824A2.521,2.521,0,0,0,378,381.927v2.057a4.246,4.246,0,0,0,1.117,2.869,5.138,5.138,0,0,1,1.351,3.472v2.044" transform="translate(-377.999 -364.369)" fill="none" stroke="#000" stroke-linecap="round" stroke-linejoin="round" stroke-miterlimit="10" stroke-width="0.8"/>
        </g>
      </g>
    </g>
  </g>
</svg>
