<svg xmlns="http://www.w3.org/2000/svg" xmlns:xlink="http://www.w3.org/1999/xlink" width="118" height="118" viewBox="0 0 118 118">
  <defs>
    <filter id="Elipse_12115" x="0" y="0" width="118" height="118" filterUnits="userSpaceOnUse">
      <feOffset dy="3" input="SourceAlpha"/>
      <feGaussianBlur stdDeviation="3" result="blur"/>
      <feFlood flood-opacity="0.161"/>
      <feComposite operator="in" in2="blur"/>
      <feComposite in="SourceGraphic"/>
    </filter>
  </defs>
  <g id="Grupo_1197900" data-name="Grupo 1197900" transform="translate(-314 -1235.523)">
    <g id="Grupo_1182333" data-name="Grupo 1182333" transform="translate(-431.781 -2610.477)">
      <g id="Grupo_1181949" data-name="Grupo 1181949" transform="translate(-54 1303)">
        <g transform="matrix(1, 0, 0, 1, 799.78, 2543)" filter="url(#Elipse_12115)">
          <g id="Elipse_12115-2" data-name="Elipse 12115" transform="translate(9 6)" fill="#ebdad5" stroke="#8f726a" stroke-width="3">
            <circle cx="50" cy="50" r="50" stroke="none"/>
            <circle cx="50" cy="50" r="48.5" fill="none"/>
          </g>
        </g>
      </g>
    </g>
    <g id="fruit_15676723" transform="translate(342.521 1259.914)">
      <path id="Trazado_1064751" data-name="Trazado 1064751" d="M378.262,229.16c5.378,15.6,1.762,23.589-5.261,26.009s-15.128-2.616-20.17-17.244c-5.209-15.113-1.762-23.589,5.261-26.009S372.773,213.235,378.262,229.16Z" transform="translate(-320.738 -193.405)" fill="#af2872"/>
      <path id="Trazado_1064752" data-name="Trazado 1064752" d="M360.385,247.507a11.155,11.155,0,0,1-2.163-.213,13.626,13.626,0,0,1-5.782-2.778c-3.87-3.049-7.2-8.376-9.618-15.4-2.522-7.316-3.187-13.455-1.977-18.246a12.049,12.049,0,0,1,19.2-6.97c3.872,2.92,7.17,8.27,9.8,15.9,2.587,7.506,3.273,13.709,2.039,18.437a11.863,11.863,0,0,1-7.822,8.646A11.252,11.252,0,0,1,360.385,247.507ZM352.732,203a10.939,10.939,0,0,0-3.576.629,10.26,10.26,0,0,0-6.674,7.654c-1.128,4.468-.477,10.282,1.936,17.282,2.317,6.721,5.452,11.778,9.067,14.627,3.206,2.526,6.674,3.25,10.03,2.094a10.116,10.116,0,0,0,6.739-7.476c1.149-4.4.476-10.274-2-17.46-2.519-7.308-5.621-12.389-9.22-15.1A10.317,10.317,0,0,0,352.732,203Z" transform="translate(-311.527 -184.318)"/>
      <path id="Trazado_1064753" data-name="Trazado 1064753" d="M440.223,526.767a.847.847,0,0,1-.183-.02c-4.668-1.033-8.7-5.843-11.355-13.545a.844.844,0,0,1,1.6-.55,27.187,27.187,0,0,0,4.747,8.889A10.149,10.149,0,0,0,440.4,525.1a.844.844,0,0,1-.182,1.669Z" transform="translate(-392.443 -468.84)" fill="#820f54"/>
      <path id="Trazado_1064754" data-name="Trazado 1064754" d="M403.008,246.029a6.777,6.777,0,0,1-1.721-.222l-.076-.02a.844.844,0,1,1,.43-1.633l.076.02a5.124,5.124,0,0,0,5.85-2.64.844.844,0,1,1,1.509.759,6.783,6.783,0,0,1-6.067,3.736Z" transform="translate(-366.755 -220.712)"/>
      <path id="Trazado_1064755" data-name="Trazado 1064755" d="M37.509,247.59c-5.67,15.253-13.424,19.072-20.288,16.52S7.334,252.649,12.65,238.35c5.492-14.773,13.424-19.072,20.288-16.52S43.3,232.023,37.509,247.59Z" transform="translate(-9.1 -202.465)" fill="#af2872"/>
      <path id="Trazado_1064756" data-name="Trazado 1064756" d="M12.027,256.48a12.009,12.009,0,0,1-4.2-.781,10.967,10.967,0,0,1-4.716-3.346,13.445,13.445,0,0,1-2.668-5.74C-.6,241.865.2,235.724,2.758,228.852c2.659-7.154,6-12.248,9.919-15.142a11.892,11.892,0,0,1,19.011,6.718c1.123,4.65.286,10.792-2.488,18.254-2.728,7.34-6.09,12.5-9.992,15.326A12.126,12.126,0,0,1,12.027,256.48Zm8.078-43.7a10.768,10.768,0,0,0-6.424,2.286c-3.654,2.7-6.8,7.531-9.339,14.372-2.441,6.567-3.219,12.381-2.249,16.811.86,3.927,3.046,6.647,6.322,7.864a9.963,9.963,0,0,0,9.8-1.476c3.627-2.631,6.79-7.525,9.4-14.547,2.655-7.141,3.472-12.951,2.429-17.269a9.959,9.959,0,0,0-6.5-7.406A9.827,9.827,0,0,0,20.1,212.783Zm8.3,25.6h0Z" transform="translate(0 -193.261)"/>
      <path id="Trazado_1064757" data-name="Trazado 1064757" d="M211.113,255.453a6.7,6.7,0,0,1-5.429-2.775l-.045-.062a.844.844,0,1,1,1.368-.99l.045.062a5.04,5.04,0,0,0,6.1,1.647.844.844,0,1,1,.684,1.544A6.719,6.719,0,0,1,211.113,255.453Z" transform="translate(-188.127 -230.058)"/>
      <path id="Trazado_1064758" data-name="Trazado 1064758" d="M60.621,481.052a.843.843,0,0,1-.312-.06,8.056,8.056,0,0,1-4.761-6.2c-.657-3.173-.165-7.265,1.422-11.833a.844.844,0,0,1,1.6.554c-1.487,4.28-1.959,8.062-1.364,10.937a6.347,6.347,0,0,0,3.731,4.977.845.845,0,0,1-.312,1.629Z" transform="translate(-50.599 -423.342)" fill="#820f54"/>
      <path id="Trazado_1064759" data-name="Trazado 1064759" d="M433.386,57.936a.844.844,0,0,1-.764-.484,18.1,18.1,0,0,1-1.429-7.3,15.835,15.835,0,0,1,1.588-6.826,18.151,18.151,0,0,1,6.06-6.836.844.844,0,0,1,.969,1.383,16.51,16.51,0,0,0-5.494,6.158,14.144,14.144,0,0,0-1.434,6.075,16.706,16.706,0,0,0,1.267,6.624.845.845,0,0,1-.765,1.2Z" transform="translate(-394.781 -33.272)"/>
      <path id="Trazado_1064760" data-name="Trazado 1064760" d="M242.988,58.422a.845.845,0,0,1-.823-1.038,27.627,27.627,0,0,1,4.515-9.091,29.622,29.622,0,0,1,7.294-7.034,32.535,32.535,0,0,1,12.1-4.906.844.844,0,0,1,.323,1.658,30.873,30.873,0,0,0-11.442,4.62,27.932,27.932,0,0,0-6.875,6.6,26.5,26.5,0,0,0-4.276,8.539A.845.845,0,0,1,242.988,58.422Z" transform="translate(-221.696 -33.268)"/>
      <path id="Trazado_1064761" data-name="Trazado 1064761" d="M56.136,20.277s6.691-15.738,27.738-8.285C83.874,11.992,78.366,29.285,56.136,20.277Z" transform="translate(-51.396 -9.145)" fill="#afdd4a"/>
      <path id="Trazado_1064762" data-name="Trazado 1064762" d="M58.723,14.581a32.432,32.432,0,0,1-12.059-2.667A.844.844,0,0,1,46.2,10.8a18.836,18.836,0,0,1,6.27-7.3A19.438,19.438,0,0,1,61.405.159,30.24,30.24,0,0,1,75,2.051.845.845,0,0,1,75.523,3.1a17.646,17.646,0,0,1-8.885,9.8,18.423,18.423,0,0,1-7.916,1.677ZM48.156,10.687c7.024,2.683,12.989,2.919,17.742.7a16.194,16.194,0,0,0,7.709-8.026,27.978,27.978,0,0,0-11.946-1.53A17.791,17.791,0,0,0,53.507,4.84a18,18,0,0,0-5.351,5.847Z" transform="translate(-42.24 0)"/>
      <path id="Trazado_1064763" data-name="Trazado 1064763" d="M46.981,33.683a.844.844,0,0,1-.47-1.546,48.988,48.988,0,0,1,8.031-4.067A58.165,58.165,0,0,1,74.7,23.71h.015c.34,0,8.382-.056,12.312,1.1a.844.844,0,0,1-.477,1.62C82.9,25.359,75.01,25.4,74.732,25.4a56.449,56.449,0,0,0-19.506,4.216,48.436,48.436,0,0,0-7.776,3.926.841.841,0,0,1-.468.142Z" transform="translate(-42.24 -21.707)"/>
    </g>
  </g>
</svg>
