<svg id="smart-farm_1143928_1_" data-name="smart-farm_1143928 (1)" xmlns="http://www.w3.org/2000/svg" width="56.99" height="58.405" viewBox="0 0 56.99 58.405">
  <path id="Trazado_1048887" data-name="Trazado 1048887" d="M60.844,256.469h4.794v-4.3a4.365,4.365,0,0,0-4.365-4.365.428.428,0,0,0-.429.429Zm0,0" transform="translate(-53.903 -219.534)" fill="#5be167"/>
  <path id="Trazado_1048888" data-name="Trazado 1048888" d="M175.11,273.92v-6.307a.429.429,0,0,0-.429-.429,4.365,4.365,0,0,0-4.365,4.365v2.371Zm0,0" transform="translate(-150.888 -236.705)" fill="#5be167"/>
  <path id="Trazado_1048889" data-name="Trazado 1048889" d="M62.779,320.416v17.126a1.141,1.141,0,0,1-1.141,1.141h-53A1.141,1.141,0,0,1,7.5,337.542V320.416a3.084,3.084,0,0,1,3.084-3.084H59.695a3.083,3.083,0,0,1,3.084,3.084Zm0,0" transform="translate(-6.645 -281.133)" fill="#e29c6d"/>
  <path id="Trazado_1048890" data-name="Trazado 1048890" d="M61.638,391.125h-53A1.141,1.141,0,0,1,7.5,389.984V376.527H62.779v13.457A1.141,1.141,0,0,1,61.638,391.125Zm0,0" transform="translate(-6.645 -333.576)" fill="#fedfc5"/>
  <path id="Trazado_1048891" data-name="Trazado 1048891" d="M61.638,459.9h-53A1.141,1.141,0,0,1,7.5,458.755v-4.6H62.779v4.6A1.141,1.141,0,0,1,61.638,459.9Zm0,0" transform="translate(-6.645 -402.346)" fill="#618baa"/>
  <path id="Trazado_1048892" data-name="Trazado 1048892" d="M66.11,101.6V97.855A4.851,4.851,0,0,0,61.259,93H57.517a.919.919,0,0,0-.919.919v3.742a4.851,4.851,0,0,0,4.851,4.851h3.742A.919.919,0,0,0,66.11,101.6Zm0,0" transform="translate(-50.141 -82.395)" fill="#5be167"/>
  <path id="Trazado_1048893" data-name="Trazado 1048893" d="M113.143,345.713a3.968,3.968,0,1,1-3.968-3.968A3.968,3.968,0,0,1,113.143,345.713Zm0,0" transform="translate(-93.206 -302.762)" fill="#19aa60"/>
  <path id="Trazado_1048894" data-name="Trazado 1048894" d="M128.572,363.425a1.687,1.687,0,1,1-1.687-1.687A1.687,1.687,0,0,1,128.572,363.425Zm0,0" transform="translate(-110.917 -320.474)" fill="#fdb659"/>
  <path id="Trazado_1048895" data-name="Trazado 1048895" d="M139.988,138.5v-3.742a4.851,4.851,0,0,1,4.851-4.851h3.743a.919.919,0,0,1,.919.919v3.742a4.851,4.851,0,0,1-4.851,4.851h-3.742A.919.919,0,0,1,139.988,138.5Zm0,0" transform="translate(-124.019 -115.091)" fill="#1fc974"/>
  <path id="Trazado_1048896" data-name="Trazado 1048896" d="M121.829,13.91a2.684,2.684,0,1,1-5.367,0c0-1.482,1.2-5.179,2.684-5.179s2.683,3.7,2.683,5.179Zm0,0" transform="translate(-103.176 -7.735)" fill="#19aa60"/>
  <path id="Trazado_1048897" data-name="Trazado 1048897" d="M369.727,36.836H358.082a1.153,1.153,0,0,1-1.153-1.153V14.392a1.153,1.153,0,0,1,1.153-1.153h11.645a1.153,1.153,0,0,1,1.153,1.153V35.683A1.153,1.153,0,0,1,369.727,36.836Zm0,0" transform="translate(-316.214 -11.729)" fill="#fdb659"/>
  <path id="Trazado_1048898" data-name="Trazado 1048898" d="M53.051,36.433H37.974a.856.856,0,1,0,0,1.711H53.051a2.231,2.231,0,0,1,2.228,2.228v2.813H20.715a4.835,4.835,0,0,0-3.891-3.89V38.144h17.25a.856.856,0,1,0,0-1.711h-9V32a1.286,1.286,0,0,0-1.284-1.285,5.227,5.227,0,0,0-5.221,5.221v.5H16.825V26.274c.021,0,.042,0,.064,0h3.743a5.713,5.713,0,0,0,5.706-5.706V16.828a1.776,1.776,0,0,0-1.774-1.774H20.82a5.686,5.686,0,0,0-4,1.637V10.7a3.545,3.545,0,0,0,2.684-3.434c0-1.551-1.217-6.035-3.539-6.035S12.43,5.715,12.43,7.265A3.545,3.545,0,0,0,15.114,10.7v1.782a5.685,5.685,0,0,0-4-1.638H7.376A1.777,1.777,0,0,0,5.6,12.619v3.742a5.713,5.713,0,0,0,5.707,5.707H15.05c.021,0,.042,0,.064,0V36.433H12.591V33.722A5.227,5.227,0,0,0,7.37,28.5a1.285,1.285,0,0,0-1.284,1.284v6.647H3.94A3.943,3.943,0,0,0,0,40.372V57.5a2,2,0,0,0,2,2H40.235a.856.856,0,1,0,0-1.711H2a.285.285,0,0,1-.285-.285V53.752H55.279V57.5a.285.285,0,0,1-.285.285H44.134a.856.856,0,1,0,0,1.711H54.994a2,2,0,0,0,2-2V40.372a3.943,3.943,0,0,0-3.939-3.939Zm-32.767-.5a3.515,3.515,0,0,1,3.083-3.484v3.984H20.285Zm.536-19.169h3.743a.064.064,0,0,1,.063.063v3.743a4,4,0,0,1-4,4H17.986l3.32-3.321a.855.855,0,0,0-1.21-1.21l-3.271,3.271V20.76a4,4,0,0,1,4-4Zm-6.679-9.5a8.367,8.367,0,0,1,.714-2.8c.548-1.25,1.025-1.521,1.114-1.521s.566.271,1.114,1.521a8.367,8.367,0,0,1,.714,2.8,1.828,1.828,0,0,1-3.657,0Zm-6.829,9.1V12.619a.064.064,0,0,1,.064-.064h3.742a4,4,0,0,1,4,4V19.1l-3.271-3.271a.855.855,0,0,0-1.21,1.21l3.32,3.321H11.308A4,4,0,0,1,7.313,16.361ZM19.082,44.041a3.112,3.112,0,1,1-3.968-2.992v.6a2.542,2.542,0,1,0,1.711,0v-.6A3.117,3.117,0,0,1,19.082,44.041ZM15.97,43.21a.831.831,0,1,1-.831.831A.832.832,0,0,1,15.97,43.21ZM7.8,30.239a3.514,3.514,0,0,1,3.083,3.484v2.711H7.8ZM3.94,38.144H15.114V39.3a4.835,4.835,0,0,0-3.891,3.89H1.712V40.372A2.231,2.231,0,0,1,3.94,38.144Zm-2.228,13.9V44.9h9.512a4.822,4.822,0,0,0,9.492,0H55.279v7.144Zm0,0" transform="translate(-0.001 -1.09)"/>
  <path id="Trazado_1048899" data-name="Trazado 1048899" d="M444.3,468.586a.855.855,0,0,0-.855-.856h-.011a.851.851,0,0,0-.85.856.858.858,0,0,0,1.716,0Zm0,0" transform="translate(-392.099 -414.375)"/>
  <path id="Trazado_1048900" data-name="Trazado 1048900" d="M418.666,473.539a.856.856,0,0,0,0-1.711h-.016a.85.85,0,0,0-.846.86.86.86,0,0,0,.861.851Zm0,0" transform="translate(-370.141 -418.006)"/>
  <path id="Trazado_1048901" data-name="Trazado 1048901" d="M275.475,338.934a.851.851,0,0,0-.85.856.858.858,0,1,0,.861-.856Zm0,0" transform="translate(-243.298 -300.271)"/>
  <path id="Trazado_1048902" data-name="Trazado 1048902" d="M250.69,338.934a.851.851,0,0,0-.85.856.858.858,0,1,0,.861-.856Zm0,0" transform="translate(-221.34 -300.271)"/>
  <path id="Trazado_1048903" data-name="Trazado 1048903" d="M193.674,476.84a.851.851,0,0,0-.85.856.858.858,0,1,0,.861-.856Zm0,0" transform="translate(-170.828 -422.446)"/>
  <path id="Trazado_1048904" data-name="Trazado 1048904" d="M123.643,467.73a.851.851,0,0,0-.85.856.858.858,0,1,0,.861-.856Zm0,0" transform="translate(-108.786 -414.375)"/>
  <path id="Trazado_1048905" data-name="Trazado 1048905" d="M261.848,26.617h4.324a.855.855,0,0,0,.856-.856v-11.6h4.054v9.79a2.011,2.011,0,0,0,2.008,2.008H276.7a.856.856,0,1,0,0-1.711h-3.613a.3.3,0,0,1-.3-.3V2.663a.3.3,0,0,1,.3-.3h11.645a.3.3,0,0,1,.3.3V23.955a.3.3,0,0,1-.3.3H280.6a.856.856,0,0,0,0,1.711h4.133a2.011,2.011,0,0,0,2.008-2.008V2.663A2.011,2.011,0,0,0,284.733.655H273.089a2.011,2.011,0,0,0-2.008,2.008v9.79h-4.054V.856A.855.855,0,0,0,266.171,0h-4.324a.856.856,0,0,0,0,1.711h3.468V24.906h-3.468a.856.856,0,0,0,0,1.711Zm0,0" transform="translate(-231.22 0)"/>
  <path id="Trazado_1048906" data-name="Trazado 1048906" d="M261.848,44.356h1.55a.856.856,0,0,0,0-1.711h-1.55a.856.856,0,0,0,0,1.711Zm0,0" transform="translate(-231.22 -37.78)"/>
  <path id="Trazado_1048907" data-name="Trazado 1048907" d="M261.848,88.7h1.55a.856.856,0,0,0,0-1.711h-1.55a.856.856,0,0,0,0,1.711Zm0,0" transform="translate(-231.22 -77.069)"/>
  <path id="Trazado_1048908" data-name="Trazado 1048908" d="M261.848,133.055h1.55a.856.856,0,0,0,0-1.711h-1.55a.856.856,0,0,0,0,1.711Zm0,0" transform="translate(-231.22 -116.361)"/>
  <path id="Trazado_1048909" data-name="Trazado 1048909" d="M261.848,177.4h1.55a.856.856,0,0,0,0-1.711h-1.55a.856.856,0,0,0,0,1.711Zm0,0" transform="translate(-231.22 -155.65)"/>
  <path id="Trazado_1048910" data-name="Trazado 1048910" d="M382.629,51.672h1.986a.856.856,0,1,0,0-1.711h-1.986a.856.856,0,1,0,0,1.711Zm0,0" transform="translate(-338.223 -44.262)"/>
  <path id="Trazado_1048911" data-name="Trazado 1048911" d="M382.629,92.25h6.932a.856.856,0,0,0,0-1.711h-6.932a.856.856,0,1,0,0,1.711Zm0,0" transform="translate(-338.223 -80.211)"/>
  <path id="Trazado_1048912" data-name="Trazado 1048912" d="M382.629,118.2h6.932a.856.856,0,0,0,0-1.711h-6.932a.856.856,0,1,0,0,1.711Zm0,0" transform="translate(-338.223 -103.197)"/>
  <path id="Trazado_1048913" data-name="Trazado 1048913" d="M382.629,144.141h6.932a.856.856,0,0,0,0-1.711h-6.932a.856.856,0,1,0,0,1.711Zm0,0" transform="translate(-338.223 -126.183)"/>
  <path id="Trazado_1048914" data-name="Trazado 1048914" d="M382.629,170.086h6.932a.856.856,0,0,0,0-1.711h-6.932a.856.856,0,1,0,0,1.711Zm0,0" transform="translate(-338.223 -149.168)"/>
</svg>
