<svg xmlns="http://www.w3.org/2000/svg" xmlns:xlink="http://www.w3.org/1999/xlink" width="118" height="118" viewBox="0 0 118 118">
  <defs>
    <filter id="Elipse_12115" x="0" y="0" width="118" height="118" filterUnits="userSpaceOnUse">
      <feOffset dy="3" input="SourceAlpha"/>
      <feGaussianBlur stdDeviation="3" result="blur"/>
      <feFlood flood-opacity="0.161"/>
      <feComposite operator="in" in2="blur"/>
      <feComposite in="SourceGraphic"/>
    </filter>
  </defs>
  <g id="Grupo_1197963" data-name="Grupo 1197963" transform="translate(-794.782 -1964.96)">
    <g id="Grupo_1184440" data-name="Grupo 1184440" transform="translate(-4.999 -578.04)">
      <g transform="matrix(1, 0, 0, 1, 799.78, 2543)" filter="url(#Elipse_12115)">
        <g id="Elipse_12115-2" data-name="Elipse 12115" transform="translate(9 6)" fill="#cea499" stroke="#8f726a" stroke-width="3">
          <circle cx="50" cy="50" r="50" stroke="none"/>
          <circle cx="50" cy="50" r="48.5" fill="none"/>
        </g>
      </g>
    </g>
    <g id="Layer_1" data-name="Layer 1" transform="translate(816.979 1980.05)">
      <path id="Trazado_1064934" data-name="Trazado 1064934" d="M82.6,65.709H41.547V17.555H82.6Z" transform="translate(-30.848 -4.41)" fill="#80eaff"/>
      <path id="Trazado_1064935" data-name="Trazado 1064935" d="M43.907,65.709h-2.36V17.555h2.36Z" transform="translate(-30.848 -4.41)" fill="#6cf"/>
      <path id="Trazado_1064936" data-name="Trazado 1064936" d="M16.369,17.554V65.708l-3.655,3.655V21.171a3.623,3.623,0,0,1,3.655-3.617Z" transform="translate(-5.67 -4.409)" fill="#4da6ff"/>
      <path id="Trazado_1064937" data-name="Trazado 1064937" d="M57.427,397.42v7.31H16.369a3.655,3.655,0,1,1,0-7.31Z" transform="translate(-5.67 -336.121)" fill="#f5f5f5"/>
      <path id="Trazado_1064938" data-name="Trazado 1064938" d="M57.549,430.65v1.725H16.491a3.655,3.655,0,0,1-3.637-3.3,3.728,3.728,0,0,0,3.206,1.572Z" transform="translate(-5.792 -363.766)" fill="#e6e6e6"/>
      <path id="Trazado_1064939" data-name="Trazado 1064939" d="M345.116,251.751v9.313a1.6,1.6,0,0,0,1,1.481,10.37,10.37,0,1,1-7.838,0,1.6,1.6,0,0,0,1-1.48v-9.314" transform="translate(-284.334 -208.918)" fill="#f5f5f5"/>
      <path id="Trazado_1064940" data-name="Trazado 1064940" d="M341.949,282.517a10.37,10.37,0,0,1-3.667-19.969,1.6,1.6,0,0,0,1-1.48v-9.314h1.2v10a2.159,2.159,0,0,1-1.211,1.942,9.383,9.383,0,0,0-5.679,8.461C333.594,280.554,341.949,282.517,341.949,282.517Z" transform="translate(-284.334 -208.921)" fill="#e6e6e6"/>
      <path id="Trazado_1064941" data-name="Trazado 1064941" d="M388.157,232.991a1.35,1.35,0,0,1-1.411,1.27h-5.831a1.277,1.277,0,1,1,0-2.539h5.831A1.35,1.35,0,0,1,388.157,232.991Z" transform="translate(-325.964 -191.427)" fill="#ff9100"/>
      <path id="Trazado_1064942" data-name="Trazado 1064942" d="M388.154,241.341c0,.017,0,.033,0,.05a1.35,1.35,0,0,1-1.411,1.27h-5.831a1.35,1.35,0,0,1-1.411-1.27c0-.017,0-.033,0-.05a1.5,1.5,0,0,0,1.307.708h6.033A1.5,1.5,0,0,0,388.154,241.341Z" transform="translate(-325.964 -199.827)" fill="#dd7b05"/>
      <path id="Trazado_1064943" data-name="Trazado 1064943" d="M357.332,390.01c3.281-3.238,7.983,0,7.983,0a8.179,8.179,0,1,1-16.053,0S354.05,393.249,357.332,390.01Z" transform="translate(-299.421 -328.394)" fill="#ff9100"/>
      <path id="Trazado_1064944" data-name="Trazado 1064944" d="M103.156,126.241V103.424a2.282,2.282,0,0,1,2.282-2.282h20.874a2.282,2.282,0,0,1,2.282,2.282v22.817a2.282,2.282,0,0,1-2.282,2.282H105.438A2.282,2.282,0,0,1,103.156,126.241Z" transform="translate(-84.647 -77.401)" fill="#f5f5f5"/>
      <path id="Trazado_1064945" data-name="Trazado 1064945" d="M437.6,147.129a6.7,6.7,0,0,1-6.478,1.737,6.708,6.708,0,0,1,8.215-8.215A6.7,6.7,0,0,1,437.6,147.129Z" transform="translate(-370.836 -111.702)" fill="#52cc7b"/>
      <path id="Trazado_1064946" data-name="Trazado 1064946" d="M400.989,92.059a4.581,4.581,0,0,1-2.291,3.969,4.584,4.584,0,0,1,0-7.938,4.581,4.581,0,0,1,2.291,3.969Z" transform="translate(-340.724 -66.003)" fill="#94e671"/>
      <path id="Trazado_1064947" data-name="Trazado 1064947" d="M329.88,125.992a6.707,6.707,0,0,1,8.214,8.214,6.707,6.707,0,0,1-8.214-8.215Z" transform="translate(-282.43 -98.901)" fill="#3d997a"/>
      <path id="Trazado_1064948" data-name="Trazado 1064948" d="M183.746,151.613a6.7,6.7,0,0,1-3.353,5.808,6.708,6.708,0,0,1,0-11.616,6.7,6.7,0,0,1,3.353,5.808Z" transform="translate(-149.166 -116.402)" fill="#94e671"/>
      <path id="Trazado_1064949" data-name="Trazado 1064949" d="M208.21,195.457a6.7,6.7,0,0,1-6.478,1.737,6.708,6.708,0,0,1,8.215-8.214A6.7,6.7,0,0,1,208.21,195.457Z" transform="translate(-170.527 -153.904)" fill="#52cc7b"/>
      <path id="Trazado_1064950" data-name="Trazado 1064950" d="M137.3,188.98a6.708,6.708,0,0,1,8.215,8.215,6.708,6.708,0,0,1-8.215-8.215Z" transform="translate(-114.262 -153.904)" fill="#3d997a"/>
      <path id="Trazado_1064951" data-name="Trazado 1064951" d="M20.855,52.047H41.729A3.173,3.173,0,0,0,44.9,48.878V26.061a3.173,3.173,0,0,0-3.169-3.169H20.855a3.173,3.173,0,0,0-3.169,3.169V48.878A3.173,3.173,0,0,0,20.855,52.047ZM19.461,26.061a1.4,1.4,0,0,1,1.394-1.394H41.729a1.4,1.4,0,0,1,1.394,1.394V48.878a1.4,1.4,0,0,1-1.394,1.394H20.855a1.4,1.4,0,0,1-1.394-1.394Zm42.771,26.81a.69.69,0,0,1-.437-.636v-8.45a2.142,2.142,0,0,0,1.389-1.968,2.212,2.212,0,0,0-2.276-2.137H59l1.5-1.5a7.594,7.594,0,0,0,8.791-9.417.887.887,0,0,0-.629-.629,7.594,7.594,0,0,0-9.417,8.791l-.321.321v-6.7a5.467,5.467,0,0,0-.443-9.185.887.887,0,0,0-.889,0,5.467,5.467,0,0,0-.443,9.185v4.97l-.449-.449a7.577,7.577,0,0,0-3.994-8.211V13.392a.887.887,0,0,0-.887-.887H10.763a4.529,4.529,0,0,0-4.542,4.5V65.2a4.548,4.548,0,0,0,4.542,4.542H49.136a11.318,11.318,0,0,0,1.026,1.193,11.026,11.026,0,0,0,7.608,3.3l.272,0a11.1,11.1,0,0,0,4.191-21.368Zm-.823-11.054a.459.459,0,0,1-.5.362H55.168a.382.382,0,1,1,0-.725h5.739a.459.459,0,0,1,.5.363Zm1.176-10.466a5.841,5.841,0,0,1,5.106-1.619,5.819,5.819,0,0,1-6.725,6.725,5.843,5.843,0,0,1,1.619-5.106ZM58.039,23.2a3.694,3.694,0,0,1,0,5.8,3.694,3.694,0,0,1,0-5.8ZM57.152,39.68H55.168a2.212,2.212,0,0,0-2.276,2.137,2.142,2.142,0,0,0,1.389,1.968v8.45a.689.689,0,0,1-.435.635,11.342,11.342,0,0,0-1.137.54V36.343a7.525,7.525,0,0,0,2.739-.025l1.7,1.7ZM54.984,34.6a5.819,5.819,0,0,1-6.725-6.725A5.819,5.819,0,0,1,54.984,34.6ZM50.934,14.28V26.208a7.6,7.6,0,0,0-3.648.063.887.887,0,0,0-.629.629,7.575,7.575,0,0,0,4.277,8.909v18.8a10.993,10.993,0,0,0-3.712,6.047H11.651V14.28Zm-41.058.14V60.747A4.523,4.523,0,0,0,8,61.6V17.009A2.7,2.7,0,0,1,9.876,14.42Zm.887,53.549a2.768,2.768,0,0,1,0-5.535h36.2q-.027.427-.021.86a10.986,10.986,0,0,0,1.11,4.676Zm53.786,1.843a9.235,9.235,0,0,1-6.738,2.649,9.4,9.4,0,0,1-9.092-9.191,9.273,9.273,0,0,1,5.8-8.758,2.457,2.457,0,0,0,1.539-2.279v-8.28H60.02v8.28a2.458,2.458,0,0,0,1.54,2.279,9.322,9.322,0,0,1,2.988,15.3Zm-7.1-8.571c-2.419,2.387-6.052,0-6.21-.1a.887.887,0,0,0-1.367.566,8.315,8.315,0,1,0,16.321,0,.887.887,0,0,0-.368-.561C64.145,59.981,60.224,58.508,57.454,61.242Zm7.064,1.172A6.54,6.54,0,1,1,51.5,63.3v0c1.981.889,4.98,1.4,7.2-.789,2.035-2.008,4.882-.634,5.818-.091ZM24.21,42.218a7.6,7.6,0,0,0,6.2,2.178V47.08a.887.887,0,0,0,1.775,0V44.4a7.593,7.593,0,0,0,8.161-9.511.887.887,0,0,0-.629-.629,7.614,7.614,0,0,0-4.235.095,7.627,7.627,0,0,0-3.741-5.678.887.887,0,0,0-.889,0,7.627,7.627,0,0,0-3.741,5.678,7.614,7.614,0,0,0-4.235-.095.887.887,0,0,0-.629.629,7.622,7.622,0,0,0,1.966,7.333Zm14.529-6.361a5.815,5.815,0,0,1-6.381,6.771,7.62,7.62,0,0,0-.146-2.825,5.814,5.814,0,0,1,6.527-3.946Zm-7.446-5.364a5.843,5.843,0,0,1,2.462,4.642,7.559,7.559,0,0,0-2.462,2.459,7.533,7.533,0,0,0-2.461-2.459,5.844,5.844,0,0,1,2.462-4.642Zm-7.446,5.364a5.819,5.819,0,0,1,6.724,6.725,5.819,5.819,0,0,1-6.724-6.725Z"/>
    </g>
  </g>
</svg>
