<svg xmlns="http://www.w3.org/2000/svg" width="62" height="62" viewBox="0 0 62 62">
  <g id="growth_1875508" transform="translate(-1 -1)">
    <path id="Trazado_1049199" data-name="Trazado 1049199" d="M52,57.2a22.9,22.9,0,0,1-12,0c-2.43-.73-4-1.89-4-3.2v4c0,1.31,1.57,2.47,4,3.2a22.9,22.9,0,0,0,12,0c2.43-.73,4-1.89,4-3.2V54C56,55.31,54.43,56.47,52,57.2Z" fill="#ffeaa7"/>
    <path id="Trazado_1049200" data-name="Trazado 1049200" d="M52,53.2a22.9,22.9,0,0,1-12,0c-2.43-.73-4-1.89-4-3.2v4c0,1.31,1.57,2.47,4,3.2a22.9,22.9,0,0,0,12,0c2.43-.73,4-1.89,4-3.2V50C56,51.31,54.43,52.47,52,53.2Z" fill="#fcd770"/>
    <path id="Trazado_1049201" data-name="Trazado 1049201" d="M52,49.2a22.9,22.9,0,0,1-12,0c-2.43-.73-4-1.89-4-3.2v4c0,1.31,1.57,2.47,4,3.2a22.9,22.9,0,0,0,12,0c2.43-.73,4-1.89,4-3.2V46C56,47.31,54.43,48.47,52,49.2Z" fill="#ffeaa7"/>
    <path id="Trazado_1049202" data-name="Trazado 1049202" d="M46,42c5.52,0,10,1.79,10,4,0,1.31-1.57,2.47-4,3.2a22.9,22.9,0,0,1-12,0c-2.43-.73-4-1.89-4-3.2C36,43.79,40.48,42,46,42Z" fill="#fcd770"/>
    <path id="Trazado_1049203" data-name="Trazado 1049203" d="M30,33a7.987,7.987,0,0,0,2,5.29V62H2V2H32V33Z" fill="#b4dd7f"/>
    <g id="Grupo_1182345" data-name="Grupo 1182345">
      <path id="Trazado_1049204" data-name="Trazado 1049204" d="M54,33h8a8,8,0,0,1-8,8H46A8,8,0,0,1,54,33Z" fill="#8cc152"/>
      <path id="Trazado_1049205" data-name="Trazado 1049205" d="M32,38.29A7.987,7.987,0,0,1,30,33h8a8,8,0,0,1,8,8H38A7.975,7.975,0,0,1,32,38.29Z" fill="#8cc152"/>
      <path id="Trazado_1049206" data-name="Trazado 1049206" d="M28,12V32A11,11,0,0,0,6,32V12a6,6,0,0,0,6-6H22A6,6,0,0,0,28,12Z" fill="#8cc152"/>
      <path id="Trazado_1049207" data-name="Trazado 1049207" d="M17,43A10.994,10.994,0,0,0,28,32V52a6,6,0,0,0-6,6H12a6,6,0,0,0-6-6V32A10.994,10.994,0,0,0,17,43Z" fill="#8cc152"/>
    </g>
    <path id="Trazado_1049208" data-name="Trazado 1049208" d="M28,32A11,11,0,1,1,17,21,10.994,10.994,0,0,1,28,32Z" fill="#fcd770"/>
    <circle id="Elipse_12255" data-name="Elipse 12255" cx="12" cy="12" r="12" transform="translate(34 6)" fill="#fcd770"/>
    <path id="Trazado_1049209" data-name="Trazado 1049209" d="M47,27V25h3V21a4,4,0,0,0-4-4,2,2,0,0,1-2-2V13h2a2,2,0,0,1,2,2h2a4,4,0,0,0-3-3.858V9H45v2H42v4a4,4,0,0,0,4,4,2,2,0,0,1,2,2v2H46a2,2,0,0,1-2-2H42a4,4,0,0,0,3,3.858V27Z"/>
    <path id="Trazado_1049210" data-name="Trazado 1049210" d="M53,17h2v2H53Z"/>
    <path id="Trazado_1049211" data-name="Trazado 1049211" d="M37,17h2v2H37Z"/>
    <path id="Trazado_1049212" data-name="Trazado 1049212" d="M54,32a8.983,8.983,0,0,0-7,3.356V30.95a13.006,13.006,0,1,0-2,0v4.406A8.985,8.985,0,0,0,38,32H33V1H1V63H33V40.478A8.947,8.947,0,0,0,38,42h1.27c-2.5.836-4.27,2.184-4.27,4V58c0,3.248,5.667,5,11,5s11-1.752,11-5V46c0-1.816-1.774-3.164-4.27-4H54a9.01,9.01,0,0,0,9-9V32ZM35,18A11,11,0,1,1,46,29,11.013,11.013,0,0,1,35,18ZM3,61V3H31V32H29V11H28a5.006,5.006,0,0,1-5-5V5H11V6a5.006,5.006,0,0,1-5,5H5V53H6a5.006,5.006,0,0,1,5,5v1H23V58a5.006,5.006,0,0,1,5-5h1V33a8.953,8.953,0,0,0,2,5.644V61ZM7,38.619a11.982,11.982,0,0,0,20,0V51.071A7.016,7.016,0,0,0,21.071,57H12.928A7.015,7.015,0,0,0,7,51.071V38.619ZM27,25.381a11.982,11.982,0,0,0-20,0V12.929A7.016,7.016,0,0,0,12.929,7h8.143A7.015,7.015,0,0,0,27,12.929V25.381ZM17,22A10,10,0,1,1,7,32,10.011,10.011,0,0,1,17,22ZM31.071,34H38a7.011,7.011,0,0,1,6.929,6H38A7.011,7.011,0,0,1,31.071,34ZM37,48.958a10.277,10.277,0,0,0,2,.943v1.874c-1.284-.563-2-1.225-2-1.776Zm8,8.022a20.2,20.2,0,0,1-4-.544V54.474a23.143,23.143,0,0,0,4,.506Zm0,2v2a20.2,20.2,0,0,1-4-.544V58.474A23.143,23.143,0,0,0,45,58.98Zm2,0a23.143,23.143,0,0,0,4-.506v1.962a20.2,20.2,0,0,1-4,.544Zm0-2v-2a23.143,23.143,0,0,0,4-.506v1.962A20.2,20.2,0,0,1,47,56.98Zm0-4v-2a23.143,23.143,0,0,0,4-.506v1.962A20.2,20.2,0,0,1,47,52.98Zm-2,0a20.2,20.2,0,0,1-4-.544V50.474a23.143,23.143,0,0,0,4,.506Zm-8-.022a10.277,10.277,0,0,0,2,.943v1.874c-1.284-.563-2-1.225-2-1.776ZM37,58V56.958a10.277,10.277,0,0,0,2,.943v1.874C37.716,59.213,37,58.551,37,58Zm16,1.776V57.9a10.277,10.277,0,0,0,2-.943V58C55,58.551,54.284,59.213,53,59.776Zm0-4V53.9a10.277,10.277,0,0,0,2-.943V54C55,54.551,54.284,55.213,53,55.776Zm0-4V49.9a10.277,10.277,0,0,0,2-.943V50C55,50.551,54.284,51.213,53,51.776ZM55,46c0,1.223-3.506,3-9,3s-9-1.777-9-3c0-1.147,3.084-2.781,8-2.98V47h2V43.02C51.916,43.219,55,44.853,55,46Zm-1-6H47.071A7.01,7.01,0,0,1,54,34h6.929A7.011,7.011,0,0,1,54,40Z"/>
    <path id="Trazado_1049213" data-name="Trazado 1049213" d="M17,35a1,1,0,0,1-1-1H14a3,3,0,0,0,2,2.816V39h2V37h2V34a3,3,0,0,0-3-3,1,1,0,0,1-1-1V29h1a1,1,0,0,1,1,1h2a3,3,0,0,0-2-2.816V25H16v2H14v3a3,3,0,0,0,3,3,1,1,0,0,1,1,1v1Z"/>
    <circle id="Elipse_12256" data-name="Elipse 12256" cx="1" cy="1" r="1" transform="translate(10 31)"/>
    <circle id="Elipse_12257" data-name="Elipse 12257" cx="1" cy="1" r="1" transform="translate(22 31)"/>
    <path id="Trazado_1049214" data-name="Trazado 1049214" d="M18.477,11.5a11.15,11.15,0,0,0,1.284,1.779l1.5-1.324A9.19,9.19,0,0,1,20.207,10.5Z"/>
    <path id="Trazado_1049215" data-name="Trazado 1049215" d="M21.371,14.774a11.087,11.087,0,0,0,1.873,1.145l.867-1.8a8.993,8.993,0,0,1-1.533-.938Z"/>
    <path id="Trazado_1049216" data-name="Trazado 1049216" d="M23,16.812h2v2H23Z"/>
    <path id="Trazado_1049217" data-name="Trazado 1049217" d="M9,45.189h2v2H9Z"/>
    <path id="Trazado_1049218" data-name="Trazado 1049218" d="M15.523,52.5a11.148,11.148,0,0,0-1.284-1.78l-1.5,1.325A9.109,9.109,0,0,1,13.793,53.5Z"/>
    <path id="Trazado_1049219" data-name="Trazado 1049219" d="M12.63,49.227a11.087,11.087,0,0,0-1.873-1.145l-.867,1.8a8.993,8.993,0,0,1,1.533.938Z"/>
    <circle id="Elipse_12258" data-name="Elipse 12258" cx="1" cy="1" r="1" transform="translate(5 5)"/>
    <circle id="Elipse_12259" data-name="Elipse 12259" cx="1" cy="1" r="1" transform="translate(27 5)"/>
    <circle id="Elipse_12260" data-name="Elipse 12260" cx="1" cy="1" r="1" transform="translate(5 57)"/>
    <circle id="Elipse_12261" data-name="Elipse 12261" cx="1" cy="1" r="1" transform="translate(27 57)"/>
  </g>
</svg>
