<svg xmlns="http://www.w3.org/2000/svg" xmlns:xlink="http://www.w3.org/1999/xlink" width="118" height="118" viewBox="0 0 118 118">
  <defs>
    <filter id="Elipse_12115" x="0" y="0" width="118" height="118" filterUnits="userSpaceOnUse">
      <feOffset dy="3" input="SourceAlpha"/>
      <feGaussianBlur stdDeviation="3" result="blur"/>
      <feFlood flood-opacity="0.161"/>
      <feComposite operator="in" in2="blur"/>
      <feComposite in="SourceGraphic"/>
    </filter>
  </defs>
  <g id="Grupo_1197904" data-name="Grupo 1197904" transform="translate(-1151 -1235.523)">
    <g id="Grupo_1182332" data-name="Grupo 1182332" transform="translate(405.219 -2610.477)">
      <g id="Grupo_1181949" data-name="Grupo 1181949" transform="translate(-54 1303)">
        <g transform="matrix(1, 0, 0, 1, 799.78, 2543)" filter="url(#Elipse_12115)">
          <g id="Elipse_12115-2" data-name="Elipse 12115" transform="translate(9 6)" fill="#ebdad5" stroke="#8f726a" stroke-width="3">
            <circle cx="50" cy="50" r="50" stroke="none"/>
            <circle cx="50" cy="50" r="48.5" fill="none"/>
          </g>
        </g>
      </g>
    </g>
    <g id="Page-1" transform="translate(1175.308 1258.833)">
      <g id="_004---Cut-Log" data-name="004---Cut-Log" transform="translate(0.001 0)">
        <ellipse id="Oval" cx="20.813" cy="9.25" rx="20.813" ry="9.25" transform="translate(13.874 1.156)" fill="#783e22"/>
        <path id="Path" d="M67.428,35.386,55.345,48.314v9.25c0,5.111-9.32,9.25-20.813,9.25s-20.813-4.139-20.813-9.25V36.751L1.636,23.824A2.437,2.437,0,0,1,1.4,20.84l2.544-3.816a2.441,2.441,0,0,1,3.238-.763L13.719,20V9c0,5.111,9.32,9.25,20.813,9.25S55.345,14.111,55.345,9V31.559l6.533-3.735a2.441,2.441,0,0,1,3.238.763L67.659,32.4A2.437,2.437,0,0,1,67.428,35.386Z" transform="translate(0.155 1.407)" fill="sienna" fill-rule="evenodd"/>
        <path id="Path-2" data-name="Path" d="M48.469,29.582V9c0,1.891-1.281,3.646-3.469,5.11V27.563a2.313,2.313,0,0,0,3.469,2.019Z" transform="translate(7.031 1.407)" fill="#783e22" fill-rule="evenodd"/>
        <path id="Path-3" data-name="Path" d="M63.362,29.9l-2.544-3.816a2.441,2.441,0,0,0-3.238-.763l-.6.347a2.428,2.428,0,0,1,.368.421l2.544,3.816a2.437,2.437,0,0,1-.231,2.983L48.2,45.147a2.318,2.318,0,0,0-.624,1.581v8.336c0,4.856-8.4,8.819-19.079,9.211.578.022,1.149.039,1.734.039,11.493,0,20.813-4.139,20.813-9.25v-9.25L63.131,32.885A2.437,2.437,0,0,0,63.362,29.9Z" transform="translate(4.453 3.907)" fill="#783e22" fill-rule="evenodd"/>
        <ellipse id="Oval-2" data-name="Oval" cx="15.032" cy="4.625" rx="15.032" ry="4.625" transform="translate(19.656 5.781)" fill="#ffe0b2"/>
        <g id="Grupo_1197903" data-name="Grupo 1197903">
          <path id="Shape" d="M32.188,15.563c8.044,0,16.188-1.985,16.188-5.781S40.232,4,32.188,4,16,5.985,16,9.781,24.144,15.563,32.188,15.563Zm0-9.25c8.607,0,13.875,2.245,13.875,3.469S40.8,13.25,32.188,13.25,18.313,11,18.313,9.781,23.581,6.313,32.188,6.313Z" transform="translate(2.499 0.625)"/>
          <path id="Path-4" data-name="Path" d="M24.156,10.313H38.032a1.156,1.156,0,0,0,0-2.313H24.156a1.156,1.156,0,1,0,0,2.313Z" transform="translate(3.593 1.25)" fill-rule="evenodd"/>
          <path id="Shape-2" data-name="Shape" d="M12.719,38.62V58.97c0,3.2,2.92,6.02,7.579,7.914a1.119,1.119,0,0,0,.133.057,39.2,39.2,0,0,0,14.257,2.436,40.551,40.551,0,0,0,13.066-2,1.082,1.082,0,0,0,.149-.052c5.34-1.878,8.754-4.884,8.754-8.353V50.183l11.776-12.6a3.578,3.578,0,0,0,.347-4.412l-2.544-3.816a3.6,3.6,0,0,0-4.763-1.124l-4.816,2.745V10.407C56.658,4.571,47.007,0,34.688,0S12.719,4.571,12.719,10.407v9L7.912,16.661a3.6,3.6,0,0,0-4.764,1.124L.6,21.6a3.584,3.584,0,0,0,.347,4.422ZM34.688,2.313c11.758,0,19.657,4.186,19.657,8.094,0,2.281-2.7,4.649-7.285,6.232a1.346,1.346,0,0,0-.15.05A38.543,38.543,0,0,1,34.688,18.5a37.011,37.011,0,0,1-13.364-2.227,1.057,1.057,0,0,0-.141-.057c-3.885-1.566-6.151-3.729-6.151-5.81C15.032,6.5,22.93,2.313,34.688,2.313ZM2.526,22.886,5.07,19.071a1.272,1.272,0,0,1,1.692-.4l1.332.754v4.856a1.156,1.156,0,1,0,2.313,0V20.751L13.3,22.406a1.156,1.156,0,0,0,1.734-1v-6.3a16.061,16.061,0,0,0,4.625,2.938v21.27a1.156,1.156,0,0,0,2.313,0V18.934a36.539,36.539,0,0,0,6.938,1.516V50.876a1.156,1.156,0,1,0,2.313,0v-30.2c1.131.082,2.282.136,3.469.136s2.338-.054,3.469-.136V43.939a1.156,1.156,0,1,0,2.313,0V20.45a37.827,37.827,0,0,0,5.781-1.156V31.22a1.156,1.156,0,0,0,2.313,0V18.527a17.259,17.259,0,0,0,5.781-3.421V32.963a1.156,1.156,0,0,0,1.734,1l2.891-1.655v3.532a1.156,1.156,0,1,0,2.313,0V30.988l1.33-.76a1.272,1.272,0,0,1,1.692.4l2.544,3.816A1.272,1.272,0,0,1,66.732,36l-5.45,5.838V40.47a1.156,1.156,0,0,0-2.313,0v3.846L54.657,48.93a1.156,1.156,0,0,0-.312.79v9.25c0,2.02-2.122,4.108-5.781,5.666V38.157a1.156,1.156,0,1,0-2.313,0V65.474A34.436,34.436,0,0,1,40.47,66.7V49.72a1.156,1.156,0,0,0-2.313,0V66.928c-1.117.082-2.267.136-3.469.136s-2.352-.054-3.469-.136V57.814a1.156,1.156,0,0,0-2.313,0V66.7a32.98,32.98,0,0,1-6.938-1.61V45.095a1.156,1.156,0,1,0-2.313,0v19c-2.943-1.48-4.625-3.329-4.625-5.125V38.157a1.156,1.156,0,0,0-.312-.79l-4.313-4.614V28.907a1.156,1.156,0,0,0-2.313,0V30.28L2.648,24.454a1.272,1.272,0,0,1-.121-1.568Z" transform="translate(-0.001 0)"/>
        </g>
      </g>
    </g>
  </g>
</svg>
