<svg xmlns="http://www.w3.org/2000/svg" xmlns:xlink="http://www.w3.org/1999/xlink" width="64.006" height="64.006" viewBox="0 0 64.006 64.006">
  <defs>
    <clipPath id="clip-path">
      <path id="path1137" d="M0-682.665H64.006v64.006H0Z" transform="translate(0 682.665)"/>
    </clipPath>
  </defs>
  <g id="g1131" transform="translate(0 682.665)">
    <g id="g1133" transform="translate(0 -682.665)">
      <g id="g1135" clip-path="url(#clip-path)">
        <g id="g1141" transform="translate(0.938 4.704)">
          <path id="path1143" d="M-543.944-51.007h0c-6.14-6.14-14.844-6.14-20.983,0l-4.195,4.195-1.283-.033-1.283-1.217-2.944-2.945c-6.14-6.14-14.844-7.39-20.983-1.25h0a15.721,15.721,0,0,0,0,22.233L-573.091-7.5l1.331,1.331c.068.079.138.157.213.232l3.676,3.677a3.934,3.934,0,0,0,5.564,0,3.917,3.917,0,0,0,1.046-1.87,4.068,4.068,0,0,0-.283-1.953,3.467,3.467,0,0,0-.763-1.741l1.051,1.051a3.934,3.934,0,0,0,5.564,0,3.916,3.916,0,0,0,1.044-1.862,4.059,4.059,0,0,0-.243-1.809,3.511,3.511,0,0,0-.8-1.892l1.051,1.051a3.934,3.934,0,0,0,5.564,0,3.915,3.915,0,0,0,1.048-1.878,4.084,4.084,0,0,0-.568-2.679,3.934,3.934,0,0,0-.73-1.006l-.8-1.051a3.934,3.934,0,0,0,4.017.954,3.918,3.918,0,0,0,1.547-.954c1.536-1.536.286-4.027-1.25-5.564l-2.344-2.344,4.215-4.215c6.139-6.14,6.139-14.844,0-20.983" transform="translate(600.22 56.284)" fill="#fed2a4"/>
        </g>
        <g id="g1145" transform="translate(4.362 4.126)">
          <path id="path1147" d="M-202.136-68.674l4.195,4.195.033-.033,22.246,22.286,2.344,2.344a3.933,3.933,0,0,1,.953,4.017,3.917,3.917,0,0,0,1.547-.953,3.934,3.934,0,0,0,0-5.564l-2.344-2.344,2.965-4.215c6.139-6.14,6.139-14.844,0-20.983h0c-6.139-6.14-14.843-6.14-20.983,0l-4.195,2.945-.033-.033-.033.033-4.195-4.195a15.721,15.721,0,0,0-22.233,0h0a15.888,15.888,0,0,0-1.18,1.32,15.723,15.723,0,0,1,20.913,1.18" transform="translate(223.049 75.778)" fill="#ffbd86"/>
        </g>
        <g id="g1149" transform="translate(32.003 4.167)">
          <path id="path1151" d="M-243.678-259.013c6.139-6.14,7.39-14.844,1.25-20.983h0c-3.548-3.548-8.369-6.3-12.992-5.743a15.655,15.655,0,0,0-9.242,4.493l-4.195,4.195-.033-.033,22.246,22.286Z" transform="translate(268.889 285.81)" fill="#f6a96c"/>
        </g>
        <g id="g1153" transform="translate(45.472 4.126)">
          <path id="path1155" d="M-125.574-44.506h0A15.694,15.694,0,0,0-138.566-49a15.654,15.654,0,0,1,9.241,4.493h0a15.722,15.722,0,0,1,0,22.233l-2.338,2.338,1.874,1.877,4.215-4.215a15.722,15.722,0,0,0,0-22.233" transform="translate(138.566 49.111)" fill="#ea9b58"/>
        </g>
        <g id="g1157" transform="translate(22.954 12.061)">
          <path id="path1159" d="M-5.309-116.033h0a1.875,1.875,0,0,1,0-2.652l8.2-8.2a3.934,3.934,0,0,1,5.564,0h0a3.934,3.934,0,0,1,0,5.564l-5.288,5.288a5.993,5.993,0,0,1-8.476,0" transform="translate(5.858 128.038)" fill="#f6a96c"/>
        </g>
        <g id="g1161" transform="translate(35.334 50.97)">
          <path id="path1163" d="M-44.8-31.983l-3.034-3.034a.937.937,0,0,0-1.326,0,.937.937,0,0,0,0,1.326l4.287,4.287A3.932,3.932,0,0,0-45.919-33.1l1.051,1.051c.022.022.045.043.068.064" transform="translate(49.435 35.292)" fill="#ffbd86"/>
        </g>
        <g id="g1165" transform="translate(36.101 40.619)">
          <path id="path1167" d="M-2.654-2.654a.937.937,0,0,0,0,1.326L7.478,8.8a3.932,3.932,0,0,0-.93-3.582L-1.328-2.654a.938.938,0,0,0-1.326,0" transform="translate(2.929 2.929)" fill="#ffbd86"/>
        </g>
        <g id="g1169" transform="translate(41.471 34.842)">
          <path id="path1171" d="M-15.471-2.654a.937.937,0,0,0-1.326,0,.937.937,0,0,0,0,1.326L-5.416,10.053A3.931,3.931,0,0,0-6.463,6.367L-7.514,5.316c.062.062.127.121.192.178Z" transform="translate(17.071 2.929)" fill="#ffbd86"/>
        </g>
        <g id="g1173" transform="translate(7.492 31.643)">
          <path id="path1175" d="M-11.139-110.61h0a3.934,3.934,0,0,1,0-5.564l4.727-4.728a3.934,3.934,0,0,1,5.564,0,3.934,3.934,0,0,1,0,5.564l-4.728,4.727a3.934,3.934,0,0,1-5.564,0" transform="translate(12.291 122.054)" fill="#f6a96c"/>
        </g>
        <g id="g1177" transform="translate(12.004 37.207)">
          <path id="path1179" d="M-11.138-120.769h0a3.934,3.934,0,0,1,0-5.564l5.779-5.779a3.934,3.934,0,0,1,5.564,0,3.934,3.934,0,0,1,0,5.564l-5.779,5.779a3.934,3.934,0,0,1-5.564,0" transform="translate(12.29 133.264)" fill="#f6a96c"/>
        </g>
        <g id="g1181" transform="translate(18.619 42.771)">
          <path id="path1183" d="M-11.139-110.61h0a3.934,3.934,0,0,1,0-5.564l4.727-4.728a3.934,3.934,0,0,1,5.564,0h0a3.934,3.934,0,0,1,0,5.564l-4.728,4.727a3.934,3.934,0,0,1-5.564,0" transform="translate(12.291 122.054)" fill="#f6a96c"/>
        </g>
        <g id="g1185" transform="translate(25.234 48.335)">
          <path id="path1187" d="M-11.138-100.452h0a3.934,3.934,0,0,1,0-5.564l3.677-3.676a3.934,3.934,0,0,1,5.564,0,3.934,3.934,0,0,1,0,5.564l-3.676,3.677a3.934,3.934,0,0,1-5.564,0" transform="translate(12.29 110.844)" fill="#f6a96c"/>
        </g>
        <g id="g1189" transform="translate(12.004 37.207)">
          <path id="path1191" d="M-11.138-120.769h0a3.934,3.934,0,0,1,0-5.564l5.779-5.779a3.934,3.934,0,0,1,5.564,0,3.934,3.934,0,0,1,0,5.564l-5.779,5.779A3.934,3.934,0,0,1-11.138-120.769Z" transform="translate(12.29 133.264)" fill="none" stroke="#000" stroke-linecap="round" stroke-linejoin="round" stroke-miterlimit="10" stroke-width="1"/>
        </g>
        <g id="g1193" transform="translate(36.844 51.158)">
          <path id="path1195" d="M-19.39-19.39-21.4-21.4" transform="translate(21.396 21.396)" fill="none" stroke="#000" stroke-linecap="round" stroke-linejoin="round" stroke-miterlimit="10" stroke-width="1"/>
        </g>
        <g id="g1197" transform="translate(37.746 40.931)">
          <path id="path1199" d="M-74.614-74.614l-7.719-7.719" transform="translate(82.333 82.333)" fill="none" stroke="#000" stroke-linecap="round" stroke-linejoin="round" stroke-miterlimit="10" stroke-width="1"/>
        </g>
        <g id="g1201" transform="translate(43.096 35.154)">
          <path id="path1203" d="M-76.676-76.676l-7.933-7.933" transform="translate(84.609 84.609)" fill="none" stroke="#000" stroke-linecap="round" stroke-linejoin="round" stroke-miterlimit="10" stroke-width="1"/>
        </g>
        <g id="g1205" transform="translate(32.618 35.179)">
          <path id="path1207" d="M0-221.154l.668.668a3.934,3.934,0,0,0,5.564,0,3.934,3.934,0,0,0,0-5.564L7.283-225a3.934,3.934,0,0,0,5.564,0,3.934,3.934,0,0,0,0-5.564l1.051,1.051a3.934,3.934,0,0,0,5.564,0,3.934,3.934,0,0,0,0-5.564l-1.051-1.051a3.934,3.934,0,0,0,5.564,0h0a3.934,3.934,0,0,0,0-5.564l-2.344-2.344" transform="translate(0 244.034)" fill="none" stroke="#000" stroke-linecap="round" stroke-linejoin="round" stroke-miterlimit="10" stroke-width="1"/>
        </g>
        <g id="g1209" transform="translate(7.492 31.643)">
          <path id="path1211" d="M-64.916-110.61a3.934,3.934,0,0,1-5.564,0,3.934,3.934,0,0,1,0-5.564l4.727-4.728a3.934,3.934,0,0,1,5.564,0,3.934,3.934,0,0,1,0,5.564" transform="translate(71.632 122.054)" fill="none" stroke="#000" stroke-linecap="round" stroke-linejoin="round" stroke-miterlimit="10" stroke-width="1"/>
        </g>
        <g id="g1213" transform="translate(18.619 42.771)">
          <path id="path1215" d="M-56.832-11.138a3.934,3.934,0,0,1,5.564,0h0a3.934,3.934,0,0,1,0,5.564L-56-.846a3.934,3.934,0,0,1-5.564,0h0a3.934,3.934,0,0,1,0-5.564" transform="translate(62.712 12.29)" fill="none" stroke="#000" stroke-linecap="round" stroke-linejoin="round" stroke-miterlimit="10" stroke-width="1"/>
        </g>
        <g id="g1217" transform="translate(25.234 48.335)">
          <path id="path1219" d="M-46.674-11.138a3.934,3.934,0,0,1,5.564,0,3.934,3.934,0,0,1,0,5.564L-44.787-1.9a3.934,3.934,0,0,1-5.564,0,3.934,3.934,0,0,1,0-5.564" transform="translate(51.503 12.29)" fill="none" stroke="#000" stroke-linecap="round" stroke-linejoin="round" stroke-miterlimit="10" stroke-width="1"/>
        </g>
        <g id="g1221" transform="translate(7.963 33.385)">
          <path id="path1223" d="M0,0,2.41,2.41" fill="none" stroke="#000" stroke-linecap="round" stroke-linejoin="round" stroke-miterlimit="10" stroke-width="1"/>
        </g>
        <g id="g1225" transform="translate(0.938 4.126)">
          <path id="path1227" d="M-300.584-85.052l-.033-.033-.033.033-4.195-4.195a15.721,15.721,0,0,0-22.233,0h0a15.722,15.722,0,0,0-.459,21.755" transform="translate(331.682 93.852)" fill="none" stroke="#000" stroke-linecap="round" stroke-linejoin="round" stroke-miterlimit="10" stroke-width="1"/>
        </g>
        <g id="g1229" transform="translate(31.97 4.126)">
          <path id="path1231" d="M-237.936-28.987a15.725,15.725,0,0,0-20.356,1.606l-4.195,4.195-.033-.033-.033.033" transform="translate(262.553 31.986)" fill="none" stroke="#000" stroke-linecap="round" stroke-linejoin="round" stroke-miterlimit="10" stroke-width="1"/>
        </g>
        <g id="g1233" transform="translate(50.155 9.937)">
          <path id="path1235" d="M0-205.759,4.094-201.8l4.215-4.215A15.724,15.724,0,0,0,9.4-227.046" transform="translate(0 227.046)" fill="none" stroke="#000" stroke-linecap="round" stroke-linejoin="round" stroke-miterlimit="10" stroke-width="1"/>
        </g>
        <g id="g1237" transform="translate(22.954 13.214)">
          <path id="path1239" d="M-84.571,0l-8.2,8.2a1.875,1.875,0,0,0,0,2.652,5.993,5.993,0,0,0,8.476,0l5.288-5.289,9.948,9.609" transform="translate(93.32)" fill="none" stroke="#000" stroke-linecap="round" stroke-linejoin="round" stroke-miterlimit="10" stroke-width="1"/>
        </g>
      </g>
    </g>
  </g>
</svg>
