<svg xmlns="http://www.w3.org/2000/svg" xmlns:xlink="http://www.w3.org/1999/xlink" width="118" height="118" viewBox="0 0 118 118">
  <defs>
    <filter id="Elipse_12115" x="0" y="0" width="118" height="118" filterUnits="userSpaceOnUse">
      <feOffset dy="3" input="SourceAlpha"/>
      <feGaussianBlur stdDeviation="3" result="blur"/>
      <feFlood flood-opacity="0.161"/>
      <feComposite operator="in" in2="blur"/>
      <feComposite in="SourceGraphic"/>
    </filter>
  </defs>
  <g id="Grupo_1197965" data-name="Grupo 1197965" transform="translate(-3908.731 9643.04)">
    <g id="Grupo_1184444" data-name="Grupo 1184444" transform="translate(3108.95 -12186.04)">
      <g transform="matrix(1, 0, 0, 1, 799.78, 2543)" filter="url(#Elipse_12115)">
        <g id="Elipse_12115-2" data-name="Elipse 12115" transform="translate(9 6)" fill="#cea499" stroke="#8f726a" stroke-width="3">
          <circle cx="50" cy="50" r="50" stroke="none"/>
          <circle cx="50" cy="50" r="48.5" fill="none"/>
        </g>
      </g>
    </g>
    <g id="smart-farm_1143928_2_" data-name="smart-farm_1143928 (2)" transform="translate(3937.621 -9619.819)">
      <path id="Trazado_1064972" data-name="Trazado 1064972" d="M60.844,256.915h5.04V252.39a4.59,4.59,0,0,0-4.59-4.59.451.451,0,0,0-.451.451Zm0,0" transform="translate(-53.545 -218.079)" fill="#5be167"/>
      <path id="Trazado_1064973" data-name="Trazado 1064973" d="M175.357,274.266v-6.632a.451.451,0,0,0-.451-.451,4.59,4.59,0,0,0-4.59,4.59v2.493Zm0,0" transform="translate(-149.888 -235.137)" fill="#5be167"/>
      <path id="Trazado_1064974" data-name="Trazado 1064974" d="M65.622,320.574v18.007a1.2,1.2,0,0,1-1.2,1.2H8.7a1.2,1.2,0,0,1-1.2-1.2V320.574a3.242,3.242,0,0,1,3.243-3.243H62.38a3.242,3.242,0,0,1,3.243,3.243Zm0,0" transform="translate(-6.6 -279.27)" fill="#e29c6d"/>
      <path id="Trazado_1064975" data-name="Trazado 1064975" d="M64.423,391.876H8.7a1.2,1.2,0,0,1-1.2-1.2v-14.15H65.622v14.15A1.2,1.2,0,0,1,64.423,391.876Zm0,0" transform="translate(-6.6 -331.365)" fill="#fedfc5"/>
      <path id="Trazado_1064976" data-name="Trazado 1064976" d="M64.423,460.191H8.7a1.2,1.2,0,0,1-1.2-1.2v-4.839H65.622v4.839A1.2,1.2,0,0,1,64.423,460.191Zm0,0" transform="translate(-6.6 -399.68)" fill="#618baa"/>
      <path id="Trazado_1064977" data-name="Trazado 1064977" d="M66.6,102.039V98.1A5.1,5.1,0,0,0,61.5,93H57.564a.967.967,0,0,0-.967.967v3.935a5.1,5.1,0,0,0,5.1,5.1h3.935A.967.967,0,0,0,66.6,102.039Zm0,0" transform="translate(-49.808 -81.849)" fill="#5be167"/>
      <path id="Trazado_1064978" data-name="Trazado 1064978" d="M113.551,345.917a4.172,4.172,0,1,1-4.172-4.172A4.172,4.172,0,0,1,113.551,345.917Zm0,0" transform="translate(-92.588 -300.756)" fill="#19aa60"/>
      <path id="Trazado_1064979" data-name="Trazado 1064979" d="M128.746,363.512a1.774,1.774,0,1,1-1.773-1.774A1.773,1.773,0,0,1,128.746,363.512Zm0,0" transform="translate(-110.181 -318.35)" fill="#fdb659"/>
      <path id="Trazado_1064980" data-name="Trazado 1064980" d="M139.988,138.945V135.01a5.1,5.1,0,0,1,5.1-5.1h3.935a.966.966,0,0,1,.966.966v3.935a5.1,5.1,0,0,1-5.1,5.1h-3.935A.966.966,0,0,1,139.988,138.945Zm0,0" transform="translate(-123.197 -114.328)" fill="#1fc974"/>
      <path id="Trazado_1064981" data-name="Trazado 1064981" d="M122.1,14.176a2.822,2.822,0,1,1-5.643,0c0-1.558,1.264-5.446,2.822-5.446S122.1,12.618,122.1,14.176Zm0,0" transform="translate(-102.492 -7.683)" fill="#19aa60"/>
      <path id="Trazado_1064982" data-name="Trazado 1064982" d="M370.385,38.05H358.142a1.212,1.212,0,0,1-1.212-1.212V14.451a1.212,1.212,0,0,1,1.212-1.212h12.244a1.212,1.212,0,0,1,1.213,1.212V36.838A1.212,1.212,0,0,1,370.385,38.05Zm0,0" transform="translate(-314.118 -11.651)" fill="#fdb659"/>
      <path id="Trazado_1064983" data-name="Trazado 1064983" d="M55.781,38.245H39.927a.9.9,0,1,0,0,1.8H55.781a2.345,2.345,0,0,1,2.343,2.343v2.958H21.781a5.083,5.083,0,0,0-4.091-4.09V40.044H35.828a.9.9,0,0,0,0-1.8H26.369V33.581a1.352,1.352,0,0,0-1.35-1.351,5.5,5.5,0,0,0-5.49,5.49v.525H17.69V27.562c.022,0,.045,0,.067,0h3.935a6.007,6.007,0,0,0,6-6V17.631a1.868,1.868,0,0,0-1.866-1.866H21.892a5.979,5.979,0,0,0-4.2,1.721v-6.3a3.728,3.728,0,0,0,2.822-3.611c0-1.63-1.28-6.345-3.721-6.345S13.07,5.945,13.07,7.576a3.728,3.728,0,0,0,2.821,3.611V13.06a5.977,5.977,0,0,0-4.2-1.722H7.756A1.868,1.868,0,0,0,5.89,13.2v3.935a6.007,6.007,0,0,0,6,6h3.935c.022,0,.045,0,.067,0V38.245H13.238v-2.85a5.5,5.5,0,0,0-5.489-5.489,1.352,1.352,0,0,0-1.35,1.35v6.989H4.143A4.146,4.146,0,0,0,0,42.386V60.394a2.1,2.1,0,0,0,2.1,2.1H42.305a.9.9,0,1,0,0-1.8H2.1a.3.3,0,0,1-.3-.3v-3.94H58.123v3.94a.3.3,0,0,1-.3.3H46.4a.9.9,0,1,0,0,1.8H57.823a2.1,2.1,0,0,0,2.1-2.1V42.386a4.146,4.146,0,0,0-4.142-4.142Zm-34.452-.525a3.7,3.7,0,0,1,3.241-3.663v4.189H21.328Zm.563-20.155h3.935a.067.067,0,0,1,.067.067v3.935a4.205,4.205,0,0,1-4.2,4.2H18.911L22.4,22.275A.9.9,0,0,0,21.13,21l-3.439,3.439V21.765a4.205,4.205,0,0,1,4.2-4.2ZM14.869,7.576a8.8,8.8,0,0,1,.751-2.947c.576-1.315,1.078-1.6,1.171-1.6s.6.285,1.171,1.6a8.8,8.8,0,0,1,.751,2.947,1.922,1.922,0,0,1-3.845,0Zm-7.18,9.563V13.2a.067.067,0,0,1,.067-.067H11.69a4.206,4.206,0,0,1,4.2,4.2v2.677l-3.439-3.439a.9.9,0,0,0-1.272,1.272l3.491,3.491H11.89A4.206,4.206,0,0,1,7.689,17.139ZM20.063,46.244A3.272,3.272,0,1,1,15.892,43.1v.628a2.673,2.673,0,1,0,1.8,0V43.1A3.278,3.278,0,0,1,20.063,46.244Zm-3.272-.874a.874.874,0,1,1-.874.874A.875.875,0,0,1,16.791,45.37ZM8.2,31.731a3.7,3.7,0,0,1,3.241,3.663v2.85H8.2ZM4.143,40.044H15.892v1.211a5.083,5.083,0,0,0-4.091,4.09H1.8V42.386a2.345,2.345,0,0,1,2.343-2.343ZM1.8,54.655V47.144h10a5.07,5.07,0,0,0,9.98,0H58.123v7.511Zm0,0" transform="translate(0 -1.083)"/>
      <path id="Trazado_1064984" data-name="Trazado 1064984" d="M444.391,468.63a.9.9,0,0,0-.9-.9h-.012a.9.9,0,0,0-.893.9.9.9,0,0,0,1.8,0Zm0,0" transform="translate(-389.501 -411.629)"/>
      <path id="Trazado_1064985" data-name="Trazado 1064985" d="M418.711,473.627a.9.9,0,0,0,0-1.8h-.016a.894.894,0,0,0-.889.9.9.9,0,0,0,.905.895Zm0,0" transform="translate(-367.689 -415.236)"/>
      <path id="Trazado_1064986" data-name="Trazado 1064986" d="M275.519,338.934a.9.9,0,0,0-.894.9.9.9,0,1,0,.905-.9Zm0,0" transform="translate(-241.685 -298.281)"/>
      <path id="Trazado_1064987" data-name="Trazado 1064987" d="M250.733,338.934a.9.9,0,0,0-.893.9.9.9,0,1,0,.905-.9Zm0,0" transform="translate(-219.873 -298.281)"/>
      <path id="Trazado_1064988" data-name="Trazado 1064988" d="M193.717,476.84a.9.9,0,0,0-.893.9.9.9,0,1,0,.905-.9Zm0,0" transform="translate(-169.695 -419.647)"/>
      <path id="Trazado_1064989" data-name="Trazado 1064989" d="M123.687,467.73a.9.9,0,0,0-.894.9.9.9,0,1,0,.905-.9Zm0,0" transform="translate(-108.064 -411.629)"/>
      <path id="Trazado_1064990" data-name="Trazado 1064990" d="M261.892,27.987h4.546a.9.9,0,0,0,.9-.9V14.893H271.6V25.187a2.114,2.114,0,0,0,2.112,2.112h3.8a.9.9,0,0,0,0-1.8h-3.8a.313.313,0,0,1-.312-.313V2.8a.313.313,0,0,1,.313-.313h12.244a.313.313,0,0,1,.313.313V25.187a.313.313,0,0,1-.312.313h-4.346a.9.9,0,0,0,0,1.8h4.346a2.114,2.114,0,0,0,2.112-2.112V2.8A2.114,2.114,0,0,0,285.955.689H273.711A2.114,2.114,0,0,0,271.6,2.8V13.094h-4.262V.9a.9.9,0,0,0-.9-.9h-4.546a.9.9,0,0,0,0,1.8h3.647V26.188h-3.647a.9.9,0,0,0,0,1.8Zm0,0" transform="translate(-229.688)"/>
      <path id="Trazado_1064991" data-name="Trazado 1064991" d="M261.892,44.444h1.63a.9.9,0,1,0,0-1.8h-1.63a.9.9,0,0,0,0,1.8Zm0,0" transform="translate(-229.688 -37.529)"/>
      <path id="Trazado_1064992" data-name="Trazado 1064992" d="M261.892,88.791h1.63a.9.9,0,1,0,0-1.8h-1.63a.9.9,0,0,0,0,1.8Zm0,0" transform="translate(-229.688 -76.558)"/>
      <path id="Trazado_1064993" data-name="Trazado 1064993" d="M261.892,133.143h1.63a.9.9,0,1,0,0-1.8h-1.63a.9.9,0,0,0,0,1.8Zm0,0" transform="translate(-229.688 -115.59)"/>
      <path id="Trazado_1064994" data-name="Trazado 1064994" d="M261.892,177.49h1.63a.9.9,0,1,0,0-1.8h-1.63a.9.9,0,0,0,0,1.8Zm0,0" transform="translate(-229.688 -154.618)"/>
      <path id="Trazado_1064995" data-name="Trazado 1064995" d="M382.673,51.76h2.089a.9.9,0,1,0,0-1.8h-2.089a.9.9,0,1,0,0,1.8Zm0,0" transform="translate(-335.982 -43.968)"/>
      <path id="Trazado_1064996" data-name="Trazado 1064996" d="M382.673,92.338h7.288a.9.9,0,1,0,0-1.8h-7.288a.9.9,0,0,0,0,1.8Zm0,0" transform="translate(-335.982 -79.679)"/>
      <path id="Trazado_1064997" data-name="Trazado 1064997" d="M382.673,118.283h7.288a.9.9,0,1,0,0-1.8h-7.288a.9.9,0,1,0,0,1.8Zm0,0" transform="translate(-335.982 -102.512)"/>
      <path id="Trazado_1064998" data-name="Trazado 1064998" d="M382.673,144.229h7.288a.9.9,0,1,0,0-1.8h-7.288a.9.9,0,1,0,0,1.8Zm0,0" transform="translate(-335.982 -125.346)"/>
      <path id="Trazado_1064999" data-name="Trazado 1064999" d="M382.673,170.174h7.288a.9.9,0,1,0,0-1.8h-7.288a.9.9,0,1,0,0,1.8Zm0,0" transform="translate(-335.982 -148.179)"/>
    </g>
  </g>
</svg>
